0
SECTION
2
HEADER
9
$ACADVER
1
AC1006
9
$INSUNITS
70
6
0
ENDSEC
0
SECTION
2
ENTITIES
0
POINT
8
1
62
18
10
-9
20
0
30
0
0
POINT
8
1
62
18
10
-3
20
0
30
0
0
POINT
8
1
62
18
10
3
20
0
30
0
0
POINT
8
1
62
18
10
9
20
0
30
0
0
POINT
8
1
62
18
10
-8.4
20
0
30
0
0
POINT
8
1
62
18
10
-7.8
20
0
30
0
0
POINT
8
1
62
18
10
-7.2
20
0
30
0
0
POINT
8
1
62
18
10
-6.6
20
0
30
0
0
POINT
8
1
62
18
10
-6
20
0
30
0
0
POINT
8
1
62
18
10
-5.4
20
0
30
0
0
POINT
8
1
62
18
10
-4.8
20
0
30
0
0
POINT
8
1
62
18
10
-4.2
20
0
30
0
0
POINT
8
1
62
18
10
-3.6
20
0
30
0
0
POINT
8
1
62
18
10
-2.4
20
0
30
0
0
POINT
8
1
62
18
10
-1.8
20
0
30
0
0
POINT
8
1
62
18
10
-1.2
20
0
30
0
0
POINT
8
1
62
18
10
-0.6
20
0
30
0
0
POINT
8
1
62
18
10
0
20
0
30
0
0
POINT
8
1
62
18
10
0.6
20
0
30
0
0
POINT
8
1
62
18
10
1.2
20
0
30
0
0
POINT
8
1
62
18
10
1.8
20
0
30
0
0
POINT
8
1
62
18
10
2.4
20
0
30
0
0
POINT
8
1
62
18
10
3.6
20
0
30
0
0
POINT
8
1
62
18
10
4.2
20
0
30
0
0
POINT
8
1
62
18
10
4.8
20
0
30
0
0
POINT
8
1
62
18
10
5.4
20
0
30
0
0
POINT
8
1
62
18
10
6
20
0
30
0
0
POINT
8
1
62
18
10
6.6
20
0
30
0
0
POINT
8
1
62
18
10
7.2
20
0
30
0
0
POINT
8
1
62
18
10
7.8
20
0
30
0
0
POINT
8
1
62
18
10
8.4
20
0
30
0
0
POLYLINE
8
2
62
2
66
1
10
0
20
0
30
0
70
8
0
VERTEX
8
2
62
2
10
-9
20
0
30
0
70
32
0
VERTEX
8
2
62
2
10
-8.4
20
0
30
0
70
32
0
SEQEND
8
2
0
POLYLINE
8
2
62
2
66
1
10
0
20
0
30
0
70
8
0
VERTEX
8
2
62
2
10
-8.4
20
0
30
0
70
32
0
VERTEX
8
2
62
2
10
-7.8
20
0
30
0
70
32
0
SEQEND
8
2
0
POLYLINE
8
2
62
2
66
1
10
0
20
0
30
0
70
8
0
VERTEX
8
2
62
2
10
-7.8
20
0
30
0
70
32
0
VERTEX
8
2
62
2
10
-7.2
20
0
30
0
70
32
0
SEQEND
8
2
0
POLYLINE
8
2
62
2
66
1
10
0
20
0
30
0
70
8
0
VERTEX
8
2
62
2
10
-7.2
20
0
30
0
70
32
0
VERTEX
8
2
62
2
10
-6.6
20
0
30
0
70
32
0
SEQEND
8
2
0
POLYLINE
8
2
62
2
66
1
10
0
20
0
30
0
70
8
0
VERTEX
8
2
62
2
10
-6.6
20
0
30
0
70
32
0
VERTEX
8
2
62
2
10
-6
20
0
30
0
70
32
0
SEQEND
8
2
0
POLYLINE
8
2
62
2
66
1
10
0
20
0
30
0
70
8
0
VERTEX
8
2
62
2
10
-6
20
0
30
0
70
32
0
VERTEX
8
2
62
2
10
-5.4
20
0
30
0
70
32
0
SEQEND
8
2
0
POLYLINE
8
2
62
2
66
1
10
0
20
0
30
0
70
8
0
VERTEX
8
2
62
2
10
-5.4
20
0
30
0
70
32
0
VERTEX
8
2
62
2
10
-4.8
20
0
30
0
70
32
0
SEQEND
8
2
0
POLYLINE
8
2
62
2
66
1
10
0
20
0
30
0
70
8
0
VERTEX
8
2
62
2
10
-4.8
20
0
30
0
70
32
0
VERTEX
8
2
62
2
10
-4.2
20
0
30
0
70
32
0
SEQEND
8
2
0
POLYLINE
8
2
62
2
66
1
10
0
20
0
30
0
70
8
0
VERTEX
8
2
62
2
10
-4.2
20
0
30
0
70
32
0
VERTEX
8
2
62
2
10
-3.6
20
0
30
0
70
32
0
SEQEND
8
2
0
POLYLINE
8
2
62
2
66
1
10
0
20
0
30
0
70
8
0
VERTEX
8
2
62
2
10
-3.6
20
0
30
0
70
32
0
VERTEX
8
2
62
2
10
-3
20
0
30
0
70
32
0
SEQEND
8
2
0
POLYLINE
8
2
62
2
66
1
10
0
20
0
30
0
70
8
0
VERTEX
8
2
62
2
10
-3
20
0
30
0
70
32
0
VERTEX
8
2
62
2
10
-2.4
20
0
30
0
70
32
0
SEQEND
8
2
0
POLYLINE
8
2
62
2
66
1
10
0
20
0
30
0
70
8
0
VERTEX
8
2
62
2
10
-2.4
20
0
30
0
70
32
0
VERTEX
8
2
62
2
10
-1.8
20
0
30
0
70
32
0
SEQEND
8
2
0
POLYLINE
8
2
62
2
66
1
10
0
20
0
30
0
70
8
0
VERTEX
8
2
62
2
10
-1.8
20
0
30
0
70
32
0
VERTEX
8
2
62
2
10
-1.2
20
0
30
0
70
32
0
SEQEND
8
2
0
POLYLINE
8
2
62
2
66
1
10
0
20
0
30
0
70
8
0
VERTEX
8
2
62
2
10
-1.2
20
0
30
0
70
32
0
VERTEX
8
2
62
2
10
-0.6
20
0
30
0
70
32
0
SEQEND
8
2
0
POLYLINE
8
2
62
2
66
1
10
0
20
0
30
0
70
8
0
VERTEX
8
2
62
2
10
-0.6
20
0
30
0
70
32
0
VERTEX
8
2
62
2
10
0
20
0
30
0
70
32
0
SEQEND
8
2
0
POLYLINE
8
2
62
2
66
1
10
0
20
0
30
0
70
8
0
VERTEX
8
2
62
2
10
0
20
0
30
0
70
32
0
VERTEX
8
2
62
2
10
0.6
20
0
30
0
70
32
0
SEQEND
8
2
0
POLYLINE
8
2
62
2
66
1
10
0
20
0
30
0
70
8
0
VERTEX
8
2
62
2
10
0.6
20
0
30
0
70
32
0
VERTEX
8
2
62
2
10
1.2
20
0
30
0
70
32
0
SEQEND
8
2
0
POLYLINE
8
2
62
2
66
1
10
0
20
0
30
0
70
8
0
VERTEX
8
2
62
2
10
1.2
20
0
30
0
70
32
0
VERTEX
8
2
62
2
10
1.8
20
0
30
0
70
32
0
SEQEND
8
2
0
POLYLINE
8
2
62
2
66
1
10
0
20
0
30
0
70
8
0
VERTEX
8
2
62
2
10
1.8
20
0
30
0
70
32
0
VERTEX
8
2
62
2
10
2.4
20
0
30
0
70
32
0
SEQEND
8
2
0
POLYLINE
8
2
62
2
66
1
10
0
20
0
30
0
70
8
0
VERTEX
8
2
62
2
10
2.4
20
0
30
0
70
32
0
VERTEX
8
2
62
2
10
3
20
0
30
0
70
32
0
SEQEND
8
2
0
POLYLINE
8
2
62
2
66
1
10
0
20
0
30
0
70
8
0
VERTEX
8
2
62
2
10
3
20
0
30
0
70
32
0
VERTEX
8
2
62
2
10
3.6
20
0
30
0
70
32
0
SEQEND
8
2
0
POLYLINE
8
2
62
2
66
1
10
0
20
0
30
0
70
8
0
VERTEX
8
2
62
2
10
3.6
20
0
30
0
70
32
0
VERTEX
8
2
62
2
10
4.2
20
0
30
0
70
32
0
SEQEND
8
2
0
POLYLINE
8
2
62
2
66
1
10
0
20
0
30
0
70
8
0
VERTEX
8
2
62
2
10
4.2
20
0
30
0
70
32
0
VERTEX
8
2
62
2
10
4.8
20
0
30
0
70
32
0
SEQEND
8
2
0
POLYLINE
8
2
62
2
66
1
10
0
20
0
30
0
70
8
0
VERTEX
8
2
62
2
10
4.8
20
0
30
0
70
32
0
VERTEX
8
2
62
2
10
5.4
20
0
30
0
70
32
0
SEQEND
8
2
0
POLYLINE
8
2
62
2
66
1
10
0
20
0
30
0
70
8
0
VERTEX
8
2
62
2
10
5.4
20
0
30
0
70
32
0
VERTEX
8
2
62
2
10
6
20
0
30
0
70
32
0
SEQEND
8
2
0
POLYLINE
8
2
62
2
66
1
10
0
20
0
30
0
70
8
0
VERTEX
8
2
62
2
10
6
20
0
30
0
70
32
0
VERTEX
8
2
62
2
10
6.6
20
0
30
0
70
32
0
SEQEND
8
2
0
POLYLINE
8
2
62
2
66
1
10
0
20
0
30
0
70
8
0
VERTEX
8
2
62
2
10
6.6
20
0
30
0
70
32
0
VERTEX
8
2
62
2
10
7.2
20
0
30
0
70
32
0
SEQEND
8
2
0
POLYLINE
8
2
62
2
66
1
10
0
20
0
30
0
70
8
0
VERTEX
8
2
62
2
10
7.2
20
0
30
0
70
32
0
VERTEX
8
2
62
2
10
7.8
20
0
30
0
70
32
0
SEQEND
8
2
0
POLYLINE
8
2
62
2
66
1
10
0
20
0
30
0
70
8
0
VERTEX
8
2
62
2
10
7.8
20
0
30
0
70
32
0
VERTEX
8
2
62
2
10
8.4
20
0
30
0
70
32
0
SEQEND
8
2
0
POLYLINE
8
2
62
2
66
1
10
0
20
0
30
0
70
8
0
VERTEX
8
2
62
2
10
8.4
20
0
30
0
70
32
0
VERTEX
8
2
62
2
10
9
20
0
30
0
70
32
0
SEQEND
8
2
0
POLYLINE
8
3
62
5
66
1
10
0
20
0
30
0
70
64
0
VERTEX
8
3
62
5
10
-3.6954712
20
-0.029753144
30
0
70
192
0
VERTEX
8
3
62
5
10
-3.6954712
20
-0.029753144
30
1
70
192
0
VERTEX
8
3
62
5
10
-3.6642297
20
-0.076645566
30
0
70
192
0
VERTEX
8
3
62
5
10
-3.6642297
20
-0.076645566
30
1
70
192
0
VERTEX
8
3
62
5
10
-3.6125958
20
-0.099203563
30
0
70
192
0
VERTEX
8
3
62
5
10
-3.6125958
20
-0.099203563
30
1
70
192
0
VERTEX
8
3
62
5
10
-3.5569627
20
-0.090265129
30
0
70
192
0
VERTEX
8
3
62
5
10
-3.5569627
20
-0.090265129
30
1
70
192
0
VERTEX
8
3
62
5
10
-3.5149937
20
-0.052668155
30
0
70
192
0
VERTEX
8
3
62
5
10
-3.5149937
20
-0.052668155
30
1
70
192
0
VERTEX
8
3
62
5
10
-3.5000136
20
0.0016505863
30
0
70
192
0
VERTEX
8
3
62
5
10
-3.5000136
20
0.0016505863
30
1
70
192
0
VERTEX
8
3
62
5
10
-3.5167785
20
0.055445278
30
0
70
192
0
VERTEX
8
3
62
5
10
-3.5167785
20
0.055445278
30
1
70
192
0
VERTEX
8
3
62
5
10
-3.5599656
20
0.091636486
30
0
70
192
0
VERTEX
8
3
62
5
10
-3.5599656
20
0.091636486
30
1
70
192
0
VERTEX
8
3
62
5
10
-3.6158633
20
0.098733757
30
0
70
192
0
VERTEX
8
3
62
5
10
-3.6158633
20
0.098733757
30
1
70
192
0
VERTEX
8
3
62
5
10
-3.6667246
20
0.074483758
30
0
70
192
0
VERTEX
8
3
62
5
10
-3.6667246
20
0.074483758
30
1
70
192
0
VERTEX
8
3
62
5
10
-3.6964012
20
0.026585692
30
0
70
192
0
VERTEX
8
3
62
5
10
-3.6964012
20
0.026585692
30
1
70
192
0
VERTEX
8
3
62
5
10
-3.6954712
20
-0.029753144
30
0
70
192
0
VERTEX
8
3
62
5
10
-3.6954712
20
-0.029753144
30
1
70
192
0
VERTEX
8
3
62
5
10
0
20
0
30
0
70
128
71
1
72
3
73
4
74
0
0
VERTEX
8
3
62
5
10
0
20
0
30
0
70
128
71
3
72
5
73
6
74
0
0
VERTEX
8
3
62
5
10
0
20
0
30
0
70
128
71
5
72
7
73
8
74
0
0
VERTEX
8
3
62
5
10
0
20
0
30
0
70
128
71
7
72
9
73
10
74
0
0
VERTEX
8
3
62
5
10
0
20
0
30
0
70
128
71
9
72
11
73
12
74
0
0
VERTEX
8
3
62
5
10
0
20
0
30
0
70
128
71
11
72
13
73
14
74
0
0
VERTEX
8
3
62
5
10
0
20
0
30
0
70
128
71
13
72
15
73
16
74
0
0
VERTEX
8
3
62
5
10
0
20
0
30
0
70
128
71
15
72
17
73
18
74
0
0
VERTEX
8
3
62
5
10
0
20
0
30
0
70
128
71
17
72
19
73
20
74
0
0
VERTEX
8
3
62
5
10
0
20
0
30
0
70
128
71
19
72
21
73
22
74
0
0
VERTEX
8
3
62
5
10
0
20
0
30
0
70
128
71
21
72
23
73
24
74
0
0
VERTEX
8
3
62
5
10
0
20
0
30
0
70
128
71
1
72
4
73
2
74
0
0
VERTEX
8
3
62
5
10
0
20
0
30
0
70
128
71
3
72
6
73
4
74
0
0
VERTEX
8
3
62
5
10
0
20
0
30
0
70
128
71
5
72
8
73
6
74
0
0
VERTEX
8
3
62
5
10
0
20
0
30
0
70
128
71
7
72
10
73
8
74
0
0
VERTEX
8
3
62
5
10
0
20
0
30
0
70
128
71
9
72
12
73
10
74
0
0
VERTEX
8
3
62
5
10
0
20
0
30
0
70
128
71
11
72
14
73
12
74
0
0
VERTEX
8
3
62
5
10
0
20
0
30
0
70
128
71
13
72
16
73
14
74
0
0
VERTEX
8
3
62
5
10
0
20
0
30
0
70
128
71
15
72
18
73
16
74
0
0
VERTEX
8
3
62
5
10
0
20
0
30
0
70
128
71
17
72
20
73
18
74
0
0
VERTEX
8
3
62
5
10
0
20
0
30
0
70
128
71
19
72
22
73
20
74
0
0
VERTEX
8
3
62
5
10
0
20
0
30
0
70
128
71
21
72
24
73
22
74
0
0
SEQEND
8
3
0
POLYLINE
8
3
62
5
66
1
10
0
20
0
30
0
70
64
0
VERTEX
8
3
62
5
10
-3.7785448
20
-0.090120752
30
1
70
192
0
VERTEX
8
3
62
5
10
-3.6
20
0
30
1.5
70
192
0
VERTEX
8
3
62
5
10
-3.7014785
20
-0.17234301
30
1
70
192
0
VERTEX
8
3
62
5
10
-3.6
20
0
30
1.5
70
192
0
VERTEX
8
3
62
5
10
-3.5921935
20
-0.19984759
30
1
70
192
0
VERTEX
8
3
62
5
10
-3.6
20
0
30
1.5
70
192
0
VERTEX
8
3
62
5
10
-3.485387
20
-0.16390196
30
1
70
192
0
VERTEX
8
3
62
5
10
-3.6
20
0
30
1.5
70
192
0
VERTEX
8
3
62
5
10
-3.4149693
20
-0.075918625
30
1
70
192
0
VERTEX
8
3
62
5
10
-3.6
20
0
30
1.5
70
192
0
VERTEX
8
3
62
5
10
-3.4032976
20
0.036168341
30
1
70
192
0
VERTEX
8
3
62
5
10
-3.6
20
0
30
1.5
70
192
0
VERTEX
8
3
62
5
10
-3.4540775
20
0.13677211
30
1
70
192
0
VERTEX
8
3
62
5
10
-3.6
20
0
30
1.5
70
192
0
VERTEX
8
3
62
5
10
-3.5511867
20
0.19395171
30
1
70
192
0
VERTEX
8
3
62
5
10
-3.6
20
0
30
1.5
70
192
0
VERTEX
8
3
62
5
10
-3.6637939
20
0.189553
30
1
70
192
0
VERTEX
8
3
62
5
10
-3.6
20
0
30
1.5
70
192
0
VERTEX
8
3
62
5
10
-3.7561469
20
0.12497256
30
1
70
192
0
VERTEX
8
3
62
5
10
-3.6
20
0
30
1.5
70
192
0
VERTEX
8
3
62
5
10
-3.7989244
20
0.020714213
30
1
70
192
0
VERTEX
8
3
62
5
10
-3.6
20
0
30
1.5
70
192
0
VERTEX
8
3
62
5
10
-3.7785448
20
-0.090120752
30
1
70
192
0
VERTEX
8
3
62
5
10
-3.6
20
0
30
1.5
70
192
0
VERTEX
8
3
62
5
10
0
20
0
30
0
70
128
71
1
72
3
73
4
74
0
0
VERTEX
8
3
62
5
10
0
20
0
30
0
70
128
71
3
72
5
73
6
74
0
0
VERTEX
8
3
62
5
10
0
20
0
30
0
70
128
71
5
72
7
73
8
74
0
0
VERTEX
8
3
62
5
10
0
20
0
30
0
70
128
71
7
72
9
73
10
74
0
0
VERTEX
8
3
62
5
10
0
20
0
30
0
70
128
71
9
72
11
73
12
74
0
0
VERTEX
8
3
62
5
10
0
20
0
30
0
70
128
71
11
72
13
73
14
74
0
0
VERTEX
8
3
62
5
10
0
20
0
30
0
70
128
71
13
72
15
73
16
74
0
0
VERTEX
8
3
62
5
10
0
20
0
30
0
70
128
71
15
72
17
73
18
74
0
0
VERTEX
8
3
62
5
10
0
20
0
30
0
70
128
71
17
72
19
73
20
74
0
0
VERTEX
8
3
62
5
10
0
20
0
30
0
70
128
71
19
72
21
73
22
74
0
0
VERTEX
8
3
62
5
10
0
20
0
30
0
70
128
71
21
72
23
73
24
74
0
0
VERTEX
8
3
62
5
10
0
20
0
30
0
70
128
71
1
72
4
73
2
74
0
0
VERTEX
8
3
62
5
10
0
20
0
30
0
70
128
71
3
72
6
73
4
74
0
0
VERTEX
8
3
62
5
10
0
20
0
30
0
70
128
71
5
72
8
73
6
74
0
0
VERTEX
8
3
62
5
10
0
20
0
30
0
70
128
71
7
72
10
73
8
74
0
0
VERTEX
8
3
62
5
10
0
20
0
30
0
70
128
71
9
72
12
73
10
74
0
0
VERTEX
8
3
62
5
10
0
20
0
30
0
70
128
71
11
72
14
73
12
74
0
0
VERTEX
8
3
62
5
10
0
20
0
30
0
70
128
71
13
72
16
73
14
74
0
0
VERTEX
8
3
62
5
10
0
20
0
30
0
70
128
71
15
72
18
73
16
74
0
0
VERTEX
8
3
62
5
10
0
20
0
30
0
70
128
71
17
72
20
73
18
74
0
0
VERTEX
8
3
62
5
10
0
20
0
30
0
70
128
71
19
72
22
73
20
74
0
0
VERTEX
8
3
62
5
10
0
20
0
30
0
70
128
71
21
72
24
73
22
74
0
0
SEQEND
8
3
0
TEXT
8
3
62
5
10
-3.6
20
0
30
0
210
0
220
0
230
1
40
1
51
0
50
0
39
0
72
0
73
0
1
Ch. 1; U3
0
POLYLINE
8
3
62
5
66
1
10
0
20
0
30
0
70
64
0
VERTEX
8
3
62
5
10
-1.8814908
20
-0.057959007
30
0
70
192
0
VERTEX
8
3
62
5
10
-1.8814908
20
-0.057959007
30
1
70
192
0
VERTEX
8
3
62
5
10
-1.8372194
20
-0.092815482
30
0
70
192
0
VERTEX
8
3
62
5
10
-1.8372194
20
-0.092815482
30
1
70
192
0
VERTEX
8
3
62
5
10
-1.7811311
20
-0.098203697
30
0
70
192
0
VERTEX
8
3
62
5
10
-1.7811311
20
-0.098203697
30
1
70
192
0
VERTEX
8
3
62
5
10
-1.7310336
20
-0.072412933
30
0
70
192
0
VERTEX
8
3
62
5
10
-1.7310336
20
-0.072412933
30
1
70
192
0
VERTEX
8
3
62
5
10
-1.7028324
20
-0.023631573
30
0
70
192
0
VERTEX
8
3
62
5
10
-1.7028324
20
-0.023631573
30
1
70
192
0
VERTEX
8
3
62
5
10
-1.7054812
20
0.032652644
30
0
70
192
0
VERTEX
8
3
62
5
10
-1.7054812
20
0.032652644
30
1
70
192
0
VERTEX
8
3
62
5
10
-1.7381391
20
0.078569877
30
0
70
192
0
VERTEX
8
3
62
5
10
-1.7381391
20
0.078569877
30
1
70
192
0
VERTEX
8
3
62
5
10
-1.7904374
20
0.099541729
30
0
70
192
0
VERTEX
8
3
62
5
10
-1.7904374
20
0.099541729
30
1
70
192
0
VERTEX
8
3
62
5
10
-1.8457717
20
0.088909786
30
0
70
192
0
VERTEX
8
3
62
5
10
-1.8457717
20
0.088909786
30
1
70
192
0
VERTEX
8
3
62
5
10
-1.8865739
20
0.050049614
30
0
70
192
0
VERTEX
8
3
62
5
10
-1.8865739
20
0.050049614
30
1
70
192
0
VERTEX
8
3
62
5
10
-1.8998894
20
-0.004700957
30
0
70
192
0
VERTEX
8
3
62
5
10
-1.8998894
20
-0.004700957
30
1
70
192
0
VERTEX
8
3
62
5
10
-1.8814908
20
-0.057959007
30
0
70
192
0
VERTEX
8
3
62
5
10
-1.8814908
20
-0.057959007
30
1
70
192
0
VERTEX
8
3
62
5
10
0
20
0
30
0
70
128
71
1
72
3
73
4
74
0
0
VERTEX
8
3
62
5
10
0
20
0
30
0
70
128
71
3
72
5
73
6
74
0
0
VERTEX
8
3
62
5
10
0
20
0
30
0
70
128
71
5
72
7
73
8
74
0
0
VERTEX
8
3
62
5
10
0
20
0
30
0
70
128
71
7
72
9
73
10
74
0
0
VERTEX
8
3
62
5
10
0
20
0
30
0
70
128
71
9
72
11
73
12
74
0
0
VERTEX
8
3
62
5
10
0
20
0
30
0
70
128
71
11
72
13
73
14
74
0
0
VERTEX
8
3
62
5
10
0
20
0
30
0
70
128
71
13
72
15
73
16
74
0
0
VERTEX
8
3
62
5
10
0
20
0
30
0
70
128
71
15
72
17
73
18
74
0
0
VERTEX
8
3
62
5
10
0
20
0
30
0
70
128
71
17
72
19
73
20
74
0
0
VERTEX
8
3
62
5
10
0
20
0
30
0
70
128
71
19
72
21
73
22
74
0
0
VERTEX
8
3
62
5
10
0
20
0
30
0
70
128
71
21
72
23
73
24
74
0
0
VERTEX
8
3
62
5
10
0
20
0
30
0
70
128
71
1
72
4
73
2
74
0
0
VERTEX
8
3
62
5
10
0
20
0
30
0
70
128
71
3
72
6
73
4
74
0
0
VERTEX
8
3
62
5
10
0
20
0
30
0
70
128
71
5
72
8
73
6
74
0
0
VERTEX
8
3
62
5
10
0
20
0
30
0
70
128
71
7
72
10
73
8
74
0
0
VERTEX
8
3
62
5
10
0
20
0
30
0
70
128
71
9
72
12
73
10
74
0
0
VERTEX
8
3
62
5
10
0
20
0
30
0
70
128
71
11
72
14
73
12
74
0
0
VERTEX
8
3
62
5
10
0
20
0
30
0
70
128
71
13
72
16
73
14
74
0
0
VERTEX
8
3
62
5
10
0
20
0
30
0
70
128
71
15
72
18
73
16
74
0
0
VERTEX
8
3
62
5
10
0
20
0
30
0
70
128
71
17
72
20
73
18
74
0
0
VERTEX
8
3
62
5
10
0
20
0
30
0
70
128
71
19
72
22
73
20
74
0
0
VERTEX
8
3
62
5
10
0
20
0
30
0
70
128
71
21
72
24
73
22
74
0
0
SEQEND
8
3
0
POLYLINE
8
3
62
5
66
1
10
0
20
0
30
0
70
64
0
VERTEX
8
3
62
5
10
-1.9281169
20
-0.15357752
30
1
70
192
0
VERTEX
8
3
62
5
10
-1.8
20
0
30
1.5
70
192
0
VERTEX
8
3
62
5
10
-1.8247485
20
-0.19846287
30
1
70
192
0
VERTEX
8
3
62
5
10
-1.8
20
0
30
1.5
70
192
0
VERTEX
8
3
62
5
10
-1.7135227
20
-0.18033766
30
1
70
192
0
VERTEX
8
3
62
5
10
-1.8
20
0
30
1.5
70
192
0
VERTEX
8
3
62
5
10
-1.6297527
20
-0.10495651
30
1
70
192
0
VERTEX
8
3
62
5
10
-1.8
20
0
30
1.5
70
192
0
VERTEX
8
3
62
5
10
-1.6000351
20
0.0037475807
30
1
70
192
0
VERTEX
8
3
62
5
10
-1.8
20
0
30
1.5
70
192
0
VERTEX
8
3
62
5
10
-1.6338049
20
0.11126184
30
1
70
192
0
VERTEX
8
3
62
5
10
-1.8
20
0
30
1.5
70
192
0
VERTEX
8
3
62
5
10
-1.7203405
20
0.18345126
30
1
70
192
0
VERTEX
8
3
62
5
10
-1.8
20
0
30
1.5
70
192
0
VERTEX
8
3
62
5
10
-1.8321674
20
0.1973962
30
1
70
192
0
VERTEX
8
3
62
5
10
-1.8
20
0
30
1.5
70
192
0
VERTEX
8
3
62
5
10
-1.9337814
20
0.14866923
30
1
70
192
0
VERTEX
8
3
62
5
10
-1.8
20
0
30
1.5
70
192
0
VERTEX
8
3
62
5
10
-1.9929207
20
0.052740841
30
1
70
192
0
VERTEX
8
3
62
5
10
-1.8
20
0
30
1.5
70
192
0
VERTEX
8
3
62
5
10
-1.9908091
20
-0.059932396
30
1
70
192
0
VERTEX
8
3
62
5
10
-1.8
20
0
30
1.5
70
192
0
VERTEX
8
3
62
5
10
-1.9281169
20
-0.15357752
30
1
70
192
0
VERTEX
8
3
62
5
10
-1.8
20
0
30
1.5
70
192
0
VERTEX
8
3
62
5
10
0
20
0
30
0
70
128
71
1
72
3
73
4
74
0
0
VERTEX
8
3
62
5
10
0
20
0
30
0
70
128
71
3
72
5
73
6
74
0
0
VERTEX
8
3
62
5
10
0
20
0
30
0
70
128
71
5
72
7
73
8
74
0
0
VERTEX
8
3
62
5
10
0
20
0
30
0
70
128
71
7
72
9
73
10
74
0
0
VERTEX
8
3
62
5
10
0
20
0
30
0
70
128
71
9
72
11
73
12
74
0
0
VERTEX
8
3
62
5
10
0
20
0
30
0
70
128
71
11
72
13
73
14
74
0
0
VERTEX
8
3
62
5
10
0
20
0
30
0
70
128
71
13
72
15
73
16
74
0
0
VERTEX
8
3
62
5
10
0
20
0
30
0
70
128
71
15
72
17
73
18
74
0
0
VERTEX
8
3
62
5
10
0
20
0
30
0
70
128
71
17
72
19
73
20
74
0
0
VERTEX
8
3
62
5
10
0
20
0
30
0
70
128
71
19
72
21
73
22
74
0
0
VERTEX
8
3
62
5
10
0
20
0
30
0
70
128
71
21
72
23
73
24
74
0
0
VERTEX
8
3
62
5
10
0
20
0
30
0
70
128
71
1
72
4
73
2
74
0
0
VERTEX
8
3
62
5
10
0
20
0
30
0
70
128
71
3
72
6
73
4
74
0
0
VERTEX
8
3
62
5
10
0
20
0
30
0
70
128
71
5
72
8
73
6
74
0
0
VERTEX
8
3
62
5
10
0
20
0
30
0
70
128
71
7
72
10
73
8
74
0
0
VERTEX
8
3
62
5
10
0
20
0
30
0
70
128
71
9
72
12
73
10
74
0
0
VERTEX
8
3
62
5
10
0
20
0
30
0
70
128
71
11
72
14
73
12
74
0
0
VERTEX
8
3
62
5
10
0
20
0
30
0
70
128
71
13
72
16
73
14
74
0
0
VERTEX
8
3
62
5
10
0
20
0
30
0
70
128
71
15
72
18
73
16
74
0
0
VERTEX
8
3
62
5
10
0
20
0
30
0
70
128
71
17
72
20
73
18
74
0
0
VERTEX
8
3
62
5
10
0
20
0
30
0
70
128
71
19
72
22
73
20
74
0
0
VERTEX
8
3
62
5
10
0
20
0
30
0
70
128
71
21
72
24
73
22
74
0
0
SEQEND
8
3
0
TEXT
8
3
62
5
10
-1.8
20
0
30
0
210
0
220
0
230
1
40
1
51
0
50
0
39
0
72
0
73
0
1
Ch. 2; U3
0
POLYLINE
8
3
62
5
66
1
10
0
20
0
30
0
70
64
0
VERTEX
8
3
62
5
10
2.3228701
20
-0.06364726
30
0
70
192
0
VERTEX
8
3
62
5
10
2.3228701
20
-0.06364726
30
1
70
192
0
VERTEX
8
3
62
5
10
2.3695245
20
-0.095243072
30
0
70
192
0
VERTEX
8
3
62
5
10
2.3695245
20
-0.095243072
30
1
70
192
0
VERTEX
8
3
62
5
10
2.4258547
20
-0.09659988
30
0
70
192
0
VERTEX
8
3
62
5
10
2.4258547
20
-0.09659988
30
1
70
192
0
VERTEX
8
3
62
5
10
2.4739762
20
-0.06728691
30
0
70
192
0
VERTEX
8
3
62
5
10
2.4739762
20
-0.06728691
30
1
70
192
0
VERTEX
8
3
62
5
10
2.4986108
20
-0.016610821
30
0
70
192
0
VERTEX
8
3
62
5
10
2.4986108
20
-0.016610821
30
1
70
192
0
VERTEX
8
3
62
5
10
2.4919371
20
0.039339087
30
0
70
192
0
VERTEX
8
3
62
5
10
2.4919371
20
0.039339087
30
1
70
192
0
VERTEX
8
3
62
5
10
2.4560741
20
0.082799112
30
0
70
192
0
VERTEX
8
3
62
5
10
2.4560741
20
0.082799112
30
1
70
192
0
VERTEX
8
3
62
5
10
2.402408
20
0.099971004
30
0
70
192
0
VERTEX
8
3
62
5
10
2.402408
20
0.099971004
30
1
70
192
0
VERTEX
8
3
62
5
10
2.3479773
20
0.085402809
30
0
70
192
0
VERTEX
8
3
62
5
10
2.3479773
20
0.085402809
30
1
70
192
0
VERTEX
8
3
62
5
10
2.3100635
20
0.043719825
30
0
70
192
0
VERTEX
8
3
62
5
10
2.3100635
20
0.043719825
30
1
70
192
0
VERTEX
8
3
62
5
10
2.3007039
20
-0.011843894
30
0
70
192
0
VERTEX
8
3
62
5
10
2.3007039
20
-0.011843894
30
1
70
192
0
VERTEX
8
3
62
5
10
2.3228701
20
-0.06364726
30
0
70
192
0
VERTEX
8
3
62
5
10
2.3228701
20
-0.06364726
30
1
70
192
0
VERTEX
8
3
62
5
10
0
20
0
30
0
70
128
71
1
72
3
73
4
74
0
0
VERTEX
8
3
62
5
10
0
20
0
30
0
70
128
71
3
72
5
73
6
74
0
0
VERTEX
8
3
62
5
10
0
20
0
30
0
70
128
71
5
72
7
73
8
74
0
0
VERTEX
8
3
62
5
10
0
20
0
30
0
70
128
71
7
72
9
73
10
74
0
0
VERTEX
8
3
62
5
10
0
20
0
30
0
70
128
71
9
72
11
73
12
74
0
0
VERTEX
8
3
62
5
10
0
20
0
30
0
70
128
71
11
72
13
73
14
74
0
0
VERTEX
8
3
62
5
10
0
20
0
30
0
70
128
71
13
72
15
73
16
74
0
0
VERTEX
8
3
62
5
10
0
20
0
30
0
70
128
71
15
72
17
73
18
74
0
0
VERTEX
8
3
62
5
10
0
20
0
30
0
70
128
71
17
72
19
73
20
74
0
0
VERTEX
8
3
62
5
10
0
20
0
30
0
70
128
71
19
72
21
73
22
74
0
0
VERTEX
8
3
62
5
10
0
20
0
30
0
70
128
71
21
72
23
73
24
74
0
0
VERTEX
8
3
62
5
10
0
20
0
30
0
70
128
71
1
72
4
73
2
74
0
0
VERTEX
8
3
62
5
10
0
20
0
30
0
70
128
71
3
72
6
73
4
74
0
0
VERTEX
8
3
62
5
10
0
20
0
30
0
70
128
71
5
72
8
73
6
74
0
0
VERTEX
8
3
62
5
10
0
20
0
30
0
70
128
71
7
72
10
73
8
74
0
0
VERTEX
8
3
62
5
10
0
20
0
30
0
70
128
71
9
72
12
73
10
74
0
0
VERTEX
8
3
62
5
10
0
20
0
30
0
70
128
71
11
72
14
73
12
74
0
0
VERTEX
8
3
62
5
10
0
20
0
30
0
70
128
71
13
72
16
73
14
74
0
0
VERTEX
8
3
62
5
10
0
20
0
30
0
70
128
71
15
72
18
73
16
74
0
0
VERTEX
8
3
62
5
10
0
20
0
30
0
70
128
71
17
72
20
73
18
74
0
0
VERTEX
8
3
62
5
10
0
20
0
30
0
70
128
71
19
72
22
73
20
74
0
0
VERTEX
8
3
62
5
10
0
20
0
30
0
70
128
71
21
72
24
73
22
74
0
0
SEQEND
8
3
0
POLYLINE
8
3
62
5
66
1
10
0
20
0
30
0
70
64
0
VERTEX
8
3
62
5
10
2.2197713
20
-0.086704095
30
1
70
192
0
VERTEX
8
3
62
5
10
2.4
20
0
30
1.5
70
192
0
VERTEX
8
3
62
5
10
2.2952577
20
-0.17037914
30
1
70
192
0
VERTEX
8
3
62
5
10
2.4
20
0
30
1.5
70
192
0
VERTEX
8
3
62
5
10
2.4039991
20
-0.19996001
30
1
70
192
0
VERTEX
8
3
62
5
10
2.4
20
0
30
1.5
70
192
0
VERTEX
8
3
62
5
10
2.5114708
20
-0.166055
30
1
70
192
0
VERTEX
8
3
62
5
10
2.4
20
0
30
1.5
70
192
0
VERTEX
8
3
62
5
10
2.5835513
20
-0.079428689
30
1
70
192
0
VERTEX
8
3
62
5
10
2.4
20
0
30
1.5
70
192
0
VERTEX
8
3
62
5
10
2.5973556
20
0.032415665
30
1
70
192
0
VERTEX
8
3
62
5
10
2.4
20
0
30
1.5
70
192
0
VERTEX
8
3
62
5
10
2.5485008
20
0.13396827
30
1
70
192
0
VERTEX
8
3
62
5
10
2.4
20
0
30
1.5
70
192
0
VERTEX
8
3
62
5
10
2.4524981
20
0.1929869
30
1
70
192
0
VERTEX
8
3
62
5
10
2.4
20
0
30
1.5
70
192
0
VERTEX
8
3
62
5
10
2.3398277
20
0.19073355
30
1
70
192
0
VERTEX
8
3
62
5
10
2.4
20
0
30
1.5
70
192
0
VERTEX
8
3
62
5
10
2.2462615
20
0.12792365
30
1
70
192
0
VERTEX
8
3
62
5
10
2.4
20
0
30
1.5
70
192
0
VERTEX
8
3
62
5
10
2.2015062
20
0.024498889
30
1
70
192
0
VERTEX
8
3
62
5
10
2.4
20
0
30
1.5
70
192
0
VERTEX
8
3
62
5
10
2.2197713
20
-0.086704095
30
1
70
192
0
VERTEX
8
3
62
5
10
2.4
20
0
30
1.5
70
192
0
VERTEX
8
3
62
5
10
0
20
0
30
0
70
128
71
1
72
3
73
4
74
0
0
VERTEX
8
3
62
5
10
0
20
0
30
0
70
128
71
3
72
5
73
6
74
0
0
VERTEX
8
3
62
5
10
0
20
0
30
0
70
128
71
5
72
7
73
8
74
0
0
VERTEX
8
3
62
5
10
0
20
0
30
0
70
128
71
7
72
9
73
10
74
0
0
VERTEX
8
3
62
5
10
0
20
0
30
0
70
128
71
9
72
11
73
12
74
0
0
VERTEX
8
3
62
5
10
0
20
0
30
0
70
128
71
11
72
13
73
14
74
0
0
VERTEX
8
3
62
5
10
0
20
0
30
0
70
128
71
13
72
15
73
16
74
0
0
VERTEX
8
3
62
5
10
0
20
0
30
0
70
128
71
15
72
17
73
18
74
0
0
VERTEX
8
3
62
5
10
0
20
0
30
0
70
128
71
17
72
19
73
20
74
0
0
VERTEX
8
3
62
5
10
0
20
0
30
0
70
128
71
19
72
21
73
22
74
0
0
VERTEX
8
3
62
5
10
0
20
0
30
0
70
128
71
21
72
23
73
24
74
0
0
VERTEX
8
3
62
5
10
0
20
0
30
0
70
128
71
1
72
4
73
2
74
0
0
VERTEX
8
3
62
5
10
0
20
0
30
0
70
128
71
3
72
6
73
4
74
0
0
VERTEX
8
3
62
5
10
0
20
0
30
0
70
128
71
5
72
8
73
6
74
0
0
VERTEX
8
3
62
5
10
0
20
0
30
0
70
128
71
7
72
10
73
8
74
0
0
VERTEX
8
3
62
5
10
0
20
0
30
0
70
128
71
9
72
12
73
10
74
0
0
VERTEX
8
3
62
5
10
0
20
0
30
0
70
128
71
11
72
14
73
12
74
0
0
VERTEX
8
3
62
5
10
0
20
0
30
0
70
128
71
13
72
16
73
14
74
0
0
VERTEX
8
3
62
5
10
0
20
0
30
0
70
128
71
15
72
18
73
16
74
0
0
VERTEX
8
3
62
5
10
0
20
0
30
0
70
128
71
17
72
20
73
18
74
0
0
VERTEX
8
3
62
5
10
0
20
0
30
0
70
128
71
19
72
22
73
20
74
0
0
VERTEX
8
3
62
5
10
0
20
0
30
0
70
128
71
21
72
24
73
22
74
0
0
SEQEND
8
3
0
TEXT
8
3
62
5
10
2.4
20
0
30
0
210
0
220
0
230
1
40
1
51
0
50
0
39
0
72
0
73
0
1
Ch. 3; U3
0
POLYLINE
8
3
62
5
66
1
10
0
20
0
30
0
70
64
0
VERTEX
8
3
62
5
10
8.3492601
20
-0.086171098
30
0
70
192
0
VERTEX
8
3
62
5
10
8.3492601
20
-0.086171098
30
1
70
192
0
VERTEX
8
3
62
5
10
8.4039025
20
-0.099923825
30
0
70
192
0
VERTEX
8
3
62
5
10
8.4039025
20
-0.099923825
30
1
70
192
0
VERTEX
8
3
62
5
10
8.4573059
20
-0.081951444
30
0
70
192
0
VERTEX
8
3
62
5
10
8.4573059
20
-0.081951444
30
1
70
192
0
VERTEX
8
3
62
5
10
8.492515
20
-0.037960059
30
0
70
192
0
VERTEX
8
3
62
5
10
8.492515
20
-0.037960059
30
1
70
192
0
VERTEX
8
3
62
5
10
8.4983514
20
0.018083377
30
0
70
192
0
VERTEX
8
3
62
5
10
8.4983514
20
0.018083377
30
1
70
192
0
VERTEX
8
3
62
5
10
8.4729618
20
0.068385469
30
0
70
192
0
VERTEX
8
3
62
5
10
8.4729618
20
0.068385469
30
1
70
192
0
VERTEX
8
3
62
5
10
8.4244074
20
0.096975657
30
0
70
192
0
VERTEX
8
3
62
5
10
8.4244074
20
0.096975657
30
1
70
192
0
VERTEX
8
3
62
5
10
8.3681038
20
0.094776759
30
0
70
192
0
VERTEX
8
3
62
5
10
8.3681038
20
0.094776759
30
1
70
192
0
VERTEX
8
3
62
5
10
8.321927
20
0.06248691
30
0
70
192
0
VERTEX
8
3
62
5
10
8.321927
20
0.06248691
30
1
70
192
0
VERTEX
8
3
62
5
10
8.3005379
20
0.010357909
30
0
70
192
0
VERTEX
8
3
62
5
10
8.3005379
20
0.010357909
30
1
70
192
0
VERTEX
8
3
62
5
10
8.3107272
20
-0.045059655
30
0
70
192
0
VERTEX
8
3
62
5
10
8.3107272
20
-0.045059655
30
1
70
192
0
VERTEX
8
3
62
5
10
8.3492601
20
-0.086171098
30
0
70
192
0
VERTEX
8
3
62
5
10
8.3492601
20
-0.086171098
30
1
70
192
0
VERTEX
8
3
62
5
10
0
20
0
30
0
70
128
71
1
72
3
73
4
74
0
0
VERTEX
8
3
62
5
10
0
20
0
30
0
70
128
71
3
72
5
73
6
74
0
0
VERTEX
8
3
62
5
10
0
20
0
30
0
70
128
71
5
72
7
73
8
74
0
0
VERTEX
8
3
62
5
10
0
20
0
30
0
70
128
71
7
72
9
73
10
74
0
0
VERTEX
8
3
62
5
10
0
20
0
30
0
70
128
71
9
72
11
73
12
74
0
0
VERTEX
8
3
62
5
10
0
20
0
30
0
70
128
71
11
72
13
73
14
74
0
0
VERTEX
8
3
62
5
10
0
20
0
30
0
70
128
71
13
72
15
73
16
74
0
0
VERTEX
8
3
62
5
10
0
20
0
30
0
70
128
71
15
72
17
73
18
74
0
0
VERTEX
8
3
62
5
10
0
20
0
30
0
70
128
71
17
72
19
73
20
74
0
0
VERTEX
8
3
62
5
10
0
20
0
30
0
70
128
71
19
72
21
73
22
74
0
0
VERTEX
8
3
62
5
10
0
20
0
30
0
70
128
71
21
72
23
73
24
74
0
0
VERTEX
8
3
62
5
10
0
20
0
30
0
70
128
71
1
72
4
73
2
74
0
0
VERTEX
8
3
62
5
10
0
20
0
30
0
70
128
71
3
72
6
73
4
74
0
0
VERTEX
8
3
62
5
10
0
20
0
30
0
70
128
71
5
72
8
73
6
74
0
0
VERTEX
8
3
62
5
10
0
20
0
30
0
70
128
71
7
72
10
73
8
74
0
0
VERTEX
8
3
62
5
10
0
20
0
30
0
70
128
71
9
72
12
73
10
74
0
0
VERTEX
8
3
62
5
10
0
20
0
30
0
70
128
71
11
72
14
73
12
74
0
0
VERTEX
8
3
62
5
10
0
20
0
30
0
70
128
71
13
72
16
73
14
74
0
0
VERTEX
8
3
62
5
10
0
20
0
30
0
70
128
71
15
72
18
73
16
74
0
0
VERTEX
8
3
62
5
10
0
20
0
30
0
70
128
71
17
72
20
73
18
74
0
0
VERTEX
8
3
62
5
10
0
20
0
30
0
70
128
71
19
72
22
73
20
74
0
0
VERTEX
8
3
62
5
10
0
20
0
30
0
70
128
71
21
72
24
73
22
74
0
0
SEQEND
8
3
0
POLYLINE
8
3
62
5
66
1
10
0
20
0
30
0
70
64
0
VERTEX
8
3
62
5
10
8.2167243
20
-0.080062607
30
1
70
192
0
VERTEX
8
3
62
5
10
8.4
20
0
30
1.5
70
192
0
VERTEX
8
3
62
5
10
8.2891038
20
-0.16643927
30
1
70
192
0
VERTEX
8
3
62
5
10
8.4
20
0
30
1.5
70
192
0
VERTEX
8
3
62
5
10
8.396692
20
-0.19997264
30
1
70
192
0
VERTEX
8
3
62
5
10
8.4
20
0
30
1.5
70
192
0
VERTEX
8
3
62
5
10
8.5053305
20
-0.17001611
30
1
70
192
0
VERTEX
8
3
62
5
10
8.4
20
0
30
1.5
70
192
0
VERTEX
8
3
62
5
10
8.5805273
20
-0.086080668
30
1
70
192
0
VERTEX
8
3
62
5
10
8.4
20
0
30
1.5
70
192
0
VERTEX
8
3
62
5
10
8.598408
20
0.02518478
30
1
70
192
0
VERTEX
8
3
62
5
10
8.4
20
0
30
1.5
70
192
0
VERTEX
8
3
62
5
10
8.5532955
20
0.12845424
30
1
70
192
0
VERTEX
8
3
62
5
10
8.4
20
0
30
1.5
70
192
0
VERTEX
8
3
62
5
10
8.4595128
20
0.19094038
30
1
70
192
0
VERTEX
8
3
62
5
10
8.4
20
0
30
1.5
70
192
0
VERTEX
8
3
62
5
10
8.3468352
20
0.19280431
30
1
70
192
0
VERTEX
8
3
62
5
10
8.4
20
0
30
1.5
70
192
0
VERTEX
8
3
62
5
10
8.251037
20
0.13345422
30
1
70
192
0
VERTEX
8
3
62
5
10
8.4
20
0
30
1.5
70
192
0
VERTEX
8
3
62
5
10
8.2025336
20
0.031733368
30
1
70
192
0
VERTEX
8
3
62
5
10
8.4
20
0
30
1.5
70
192
0
VERTEX
8
3
62
5
10
8.2167243
20
-0.080062607
30
1
70
192
0
VERTEX
8
3
62
5
10
8.4
20
0
30
1.5
70
192
0
VERTEX
8
3
62
5
10
0
20
0
30
0
70
128
71
1
72
3
73
4
74
0
0
VERTEX
8
3
62
5
10
0
20
0
30
0
70
128
71
3
72
5
73
6
74
0
0
VERTEX
8
3
62
5
10
0
20
0
30
0
70
128
71
5
72
7
73
8
74
0
0
VERTEX
8
3
62
5
10
0
20
0
30
0
70
128
71
7
72
9
73
10
74
0
0
VERTEX
8
3
62
5
10
0
20
0
30
0
70
128
71
9
72
11
73
12
74
0
0
VERTEX
8
3
62
5
10
0
20
0
30
0
70
128
71
11
72
13
73
14
74
0
0
VERTEX
8
3
62
5
10
0
20
0
30
0
70
128
71
13
72
15
73
16
74
0
0
VERTEX
8
3
62
5
10
0
20
0
30
0
70
128
71
15
72
17
73
18
74
0
0
VERTEX
8
3
62
5
10
0
20
0
30
0
70
128
71
17
72
19
73
20
74
0
0
VERTEX
8
3
62
5
10
0
20
0
30
0
70
128
71
19
72
21
73
22
74
0
0
VERTEX
8
3
62
5
10
0
20
0
30
0
70
128
71
21
72
23
73
24
74
0
0
VERTEX
8
3
62
5
10
0
20
0
30
0
70
128
71
1
72
4
73
2
74
0
0
VERTEX
8
3
62
5
10
0
20
0
30
0
70
128
71
3
72
6
73
4
74
0
0
VERTEX
8
3
62
5
10
0
20
0
30
0
70
128
71
5
72
8
73
6
74
0
0
VERTEX
8
3
62
5
10
0
20
0
30
0
70
128
71
7
72
10
73
8
74
0
0
VERTEX
8
3
62
5
10
0
20
0
30
0
70
128
71
9
72
12
73
10
74
0
0
VERTEX
8
3
62
5
10
0
20
0
30
0
70
128
71
11
72
14
73
12
74
0
0
VERTEX
8
3
62
5
10
0
20
0
30
0
70
128
71
13
72
16
73
14
74
0
0
VERTEX
8
3
62
5
10
0
20
0
30
0
70
128
71
15
72
18
73
16
74
0
0
VERTEX
8
3
62
5
10
0
20
0
30
0
70
128
71
17
72
20
73
18
74
0
0
VERTEX
8
3
62
5
10
0
20
0
30
0
70
128
71
19
72
22
73
20
74
0
0
VERTEX
8
3
62
5
10
0
20
0
30
0
70
128
71
21
72
24
73
22
74
0
0
SEQEND
8
3
0
TEXT
8
3
62
5
10
8.4
20
0
30
0
210
0
220
0
230
1
40
1
51
0
50
0
39
0
72
0
73
0
1
Ch. 4; U3
0
ENDSEC
0
EOF
