0
SECTION
2
HEADER
9
$ACADVER
1
AC1006
9
$INSUNITS
70
6
0
ENDSEC
0
SECTION
2
ENTITIES
0
POINT
8
1
62
18
10
-15
20
-6
30
0
0
POINT
8
1
62
18
10
-15
20
-6
30
3
0
POINT
8
1
62
18
10
-15
20
-6
30
6
0
POINT
8
1
62
18
10
-15
20
-6
30
9
0
POINT
8
1
62
18
10
-15
20
0
30
0
0
POINT
8
1
62
18
10
-15
20
0
30
3
0
POINT
8
1
62
18
10
-15
20
0
30
6
0
POINT
8
1
62
18
10
-15
20
0
30
9
0
POINT
8
1
62
18
10
-15
20
6
30
0
0
POINT
8
1
62
18
10
-15
20
6
30
3
0
POINT
8
1
62
18
10
-15
20
6
30
6
0
POINT
8
1
62
18
10
-15
20
6
30
9
0
POINT
8
1
62
18
10
-9
20
-6
30
0
0
POINT
8
1
62
18
10
-9
20
-6
30
3
0
POINT
8
1
62
18
10
-9
20
-6
30
6
0
POINT
8
1
62
18
10
-9
20
-6
30
9
0
POINT
8
1
62
18
10
-9
20
0
30
0
0
POINT
8
1
62
18
10
-9
20
0
30
3
0
POINT
8
1
62
18
10
-9
20
0
30
6
0
POINT
8
1
62
18
10
-9
20
0
30
9
0
POINT
8
1
62
18
10
-9
20
6
30
0
0
POINT
8
1
62
18
10
-9
20
6
30
3
0
POINT
8
1
62
18
10
-9
20
6
30
6
0
POINT
8
1
62
18
10
-9
20
6
30
9
0
POINT
8
1
62
18
10
-3
20
-6
30
0
0
POINT
8
1
62
18
10
-3
20
-6
30
3
0
POINT
8
1
62
18
10
-3
20
-6
30
6
0
POINT
8
1
62
18
10
-3
20
-6
30
9
0
POINT
8
1
62
18
10
-3
20
0
30
0
0
POINT
8
1
62
18
10
-3
20
0
30
3
0
POINT
8
1
62
18
10
-3
20
0
30
6
0
POINT
8
1
62
18
10
-3
20
0
30
9
0
POINT
8
1
62
18
10
-3
20
6
30
0
0
POINT
8
1
62
18
10
-3
20
6
30
3
0
POINT
8
1
62
18
10
-3
20
6
30
6
0
POINT
8
1
62
18
10
-3
20
6
30
9
0
POINT
8
1
62
18
10
3
20
-6
30
0
0
POINT
8
1
62
18
10
3
20
-6
30
3
0
POINT
8
1
62
18
10
3
20
-6
30
6
0
POINT
8
1
62
18
10
3
20
-6
30
9
0
POINT
8
1
62
18
10
3
20
0
30
0
0
POINT
8
1
62
18
10
3
20
0
30
3
0
POINT
8
1
62
18
10
3
20
0
30
6
0
POINT
8
1
62
18
10
3
20
0
30
9
0
POINT
8
1
62
18
10
3
20
6
30
0
0
POINT
8
1
62
18
10
3
20
6
30
3
0
POINT
8
1
62
18
10
3
20
6
30
6
0
POINT
8
1
62
18
10
3
20
6
30
9
0
POINT
8
1
62
18
10
9
20
-6
30
0
0
POINT
8
1
62
18
10
9
20
-6
30
3
0
POINT
8
1
62
18
10
9
20
-6
30
6
0
POINT
8
1
62
18
10
9
20
-6
30
9
0
POINT
8
1
62
18
10
9
20
0
30
0
0
POINT
8
1
62
18
10
9
20
0
30
3
0
POINT
8
1
62
18
10
9
20
0
30
6
0
POINT
8
1
62
18
10
9
20
0
30
9
0
POINT
8
1
62
18
10
9
20
6
30
0
0
POINT
8
1
62
18
10
9
20
6
30
3
0
POINT
8
1
62
18
10
9
20
6
30
6
0
POINT
8
1
62
18
10
9
20
6
30
9
0
POINT
8
1
62
18
10
15
20
-6
30
0
0
POINT
8
1
62
18
10
15
20
-6
30
3
0
POINT
8
1
62
18
10
15
20
-6
30
6
0
POINT
8
1
62
18
10
15
20
-6
30
9
0
POINT
8
1
62
18
10
15
20
0
30
0
0
POINT
8
1
62
18
10
15
20
0
30
3
0
POINT
8
1
62
18
10
15
20
0
30
6
0
POINT
8
1
62
18
10
15
20
0
30
9
0
POINT
8
1
62
18
10
15
20
6
30
0
0
POINT
8
1
62
18
10
15
20
6
30
3
0
POINT
8
1
62
18
10
15
20
6
30
6
0
POINT
8
1
62
18
10
15
20
6
30
9
0
POLYLINE
8
2
62
2
66
1
10
0
20
0
30
0
70
8
0
VERTEX
8
2
62
2
10
-15
20
-6
30
0
70
32
0
VERTEX
8
2
62
2
10
-15
20
-6
30
3
70
32
0
SEQEND
8
2
0
POLYLINE
8
2
62
2
66
1
10
0
20
0
30
0
70
8
0
VERTEX
8
2
62
2
10
-15
20
-6
30
3
70
32
0
VERTEX
8
2
62
2
10
-15
20
-6
30
6
70
32
0
SEQEND
8
2
0
POLYLINE
8
2
62
2
66
1
10
0
20
0
30
0
70
8
0
VERTEX
8
2
62
2
10
-15
20
-6
30
6
70
32
0
VERTEX
8
2
62
2
10
-15
20
-6
30
9
70
32
0
SEQEND
8
2
0
POLYLINE
8
2
62
2
66
1
10
0
20
0
30
0
70
8
0
VERTEX
8
2
62
2
10
-15
20
0
30
0
70
32
0
VERTEX
8
2
62
2
10
-15
20
0
30
3
70
32
0
SEQEND
8
2
0
POLYLINE
8
2
62
2
66
1
10
0
20
0
30
0
70
8
0
VERTEX
8
2
62
2
10
-15
20
0
30
3
70
32
0
VERTEX
8
2
62
2
10
-15
20
0
30
6
70
32
0
SEQEND
8
2
0
POLYLINE
8
2
62
2
66
1
10
0
20
0
30
0
70
8
0
VERTEX
8
2
62
2
10
-15
20
0
30
6
70
32
0
VERTEX
8
2
62
2
10
-15
20
0
30
9
70
32
0
SEQEND
8
2
0
POLYLINE
8
2
62
2
66
1
10
0
20
0
30
0
70
8
0
VERTEX
8
2
62
2
10
-15
20
6
30
0
70
32
0
VERTEX
8
2
62
2
10
-15
20
6
30
3
70
32
0
SEQEND
8
2
0
POLYLINE
8
2
62
2
66
1
10
0
20
0
30
0
70
8
0
VERTEX
8
2
62
2
10
-15
20
6
30
3
70
32
0
VERTEX
8
2
62
2
10
-15
20
6
30
6
70
32
0
SEQEND
8
2
0
POLYLINE
8
2
62
2
66
1
10
0
20
0
30
0
70
8
0
VERTEX
8
2
62
2
10
-15
20
6
30
6
70
32
0
VERTEX
8
2
62
2
10
-15
20
6
30
9
70
32
0
SEQEND
8
2
0
POLYLINE
8
2
62
2
66
1
10
0
20
0
30
0
70
8
0
VERTEX
8
2
62
2
10
-9
20
-6
30
0
70
32
0
VERTEX
8
2
62
2
10
-9
20
-6
30
3
70
32
0
SEQEND
8
2
0
POLYLINE
8
2
62
2
66
1
10
0
20
0
30
0
70
8
0
VERTEX
8
2
62
2
10
-9
20
-6
30
3
70
32
0
VERTEX
8
2
62
2
10
-9
20
-6
30
6
70
32
0
SEQEND
8
2
0
POLYLINE
8
2
62
2
66
1
10
0
20
0
30
0
70
8
0
VERTEX
8
2
62
2
10
-9
20
-6
30
6
70
32
0
VERTEX
8
2
62
2
10
-9
20
-6
30
9
70
32
0
SEQEND
8
2
0
POLYLINE
8
2
62
2
66
1
10
0
20
0
30
0
70
8
0
VERTEX
8
2
62
2
10
-9
20
0
30
0
70
32
0
VERTEX
8
2
62
2
10
-9
20
0
30
3
70
32
0
SEQEND
8
2
0
POLYLINE
8
2
62
2
66
1
10
0
20
0
30
0
70
8
0
VERTEX
8
2
62
2
10
-9
20
0
30
3
70
32
0
VERTEX
8
2
62
2
10
-9
20
0
30
6
70
32
0
SEQEND
8
2
0
POLYLINE
8
2
62
2
66
1
10
0
20
0
30
0
70
8
0
VERTEX
8
2
62
2
10
-9
20
0
30
6
70
32
0
VERTEX
8
2
62
2
10
-9
20
0
30
9
70
32
0
SEQEND
8
2
0
POLYLINE
8
2
62
2
66
1
10
0
20
0
30
0
70
8
0
VERTEX
8
2
62
2
10
-9
20
6
30
0
70
32
0
VERTEX
8
2
62
2
10
-9
20
6
30
3
70
32
0
SEQEND
8
2
0
POLYLINE
8
2
62
2
66
1
10
0
20
0
30
0
70
8
0
VERTEX
8
2
62
2
10
-9
20
6
30
3
70
32
0
VERTEX
8
2
62
2
10
-9
20
6
30
6
70
32
0
SEQEND
8
2
0
POLYLINE
8
2
62
2
66
1
10
0
20
0
30
0
70
8
0
VERTEX
8
2
62
2
10
-9
20
6
30
6
70
32
0
VERTEX
8
2
62
2
10
-9
20
6
30
9
70
32
0
SEQEND
8
2
0
POLYLINE
8
2
62
2
66
1
10
0
20
0
30
0
70
8
0
VERTEX
8
2
62
2
10
-3
20
-6
30
0
70
32
0
VERTEX
8
2
62
2
10
-3
20
-6
30
3
70
32
0
SEQEND
8
2
0
POLYLINE
8
2
62
2
66
1
10
0
20
0
30
0
70
8
0
VERTEX
8
2
62
2
10
-3
20
-6
30
3
70
32
0
VERTEX
8
2
62
2
10
-3
20
-6
30
6
70
32
0
SEQEND
8
2
0
POLYLINE
8
2
62
2
66
1
10
0
20
0
30
0
70
8
0
VERTEX
8
2
62
2
10
-3
20
-6
30
6
70
32
0
VERTEX
8
2
62
2
10
-3
20
-6
30
9
70
32
0
SEQEND
8
2
0
POLYLINE
8
2
62
2
66
1
10
0
20
0
30
0
70
8
0
VERTEX
8
2
62
2
10
-3
20
0
30
0
70
32
0
VERTEX
8
2
62
2
10
-3
20
0
30
3
70
32
0
SEQEND
8
2
0
POLYLINE
8
2
62
2
66
1
10
0
20
0
30
0
70
8
0
VERTEX
8
2
62
2
10
-3
20
0
30
3
70
32
0
VERTEX
8
2
62
2
10
-3
20
0
30
6
70
32
0
SEQEND
8
2
0
POLYLINE
8
2
62
2
66
1
10
0
20
0
30
0
70
8
0
VERTEX
8
2
62
2
10
-3
20
0
30
6
70
32
0
VERTEX
8
2
62
2
10
-3
20
0
30
9
70
32
0
SEQEND
8
2
0
POLYLINE
8
2
62
2
66
1
10
0
20
0
30
0
70
8
0
VERTEX
8
2
62
2
10
-3
20
6
30
0
70
32
0
VERTEX
8
2
62
2
10
-3
20
6
30
3
70
32
0
SEQEND
8
2
0
POLYLINE
8
2
62
2
66
1
10
0
20
0
30
0
70
8
0
VERTEX
8
2
62
2
10
-3
20
6
30
3
70
32
0
VERTEX
8
2
62
2
10
-3
20
6
30
6
70
32
0
SEQEND
8
2
0
POLYLINE
8
2
62
2
66
1
10
0
20
0
30
0
70
8
0
VERTEX
8
2
62
2
10
-3
20
6
30
6
70
32
0
VERTEX
8
2
62
2
10
-3
20
6
30
9
70
32
0
SEQEND
8
2
0
POLYLINE
8
2
62
2
66
1
10
0
20
0
30
0
70
8
0
VERTEX
8
2
62
2
10
3
20
-6
30
0
70
32
0
VERTEX
8
2
62
2
10
3
20
-6
30
3
70
32
0
SEQEND
8
2
0
POLYLINE
8
2
62
2
66
1
10
0
20
0
30
0
70
8
0
VERTEX
8
2
62
2
10
3
20
-6
30
3
70
32
0
VERTEX
8
2
62
2
10
3
20
-6
30
6
70
32
0
SEQEND
8
2
0
POLYLINE
8
2
62
2
66
1
10
0
20
0
30
0
70
8
0
VERTEX
8
2
62
2
10
3
20
-6
30
6
70
32
0
VERTEX
8
2
62
2
10
3
20
-6
30
9
70
32
0
SEQEND
8
2
0
POLYLINE
8
2
62
2
66
1
10
0
20
0
30
0
70
8
0
VERTEX
8
2
62
2
10
3
20
0
30
0
70
32
0
VERTEX
8
2
62
2
10
3
20
0
30
3
70
32
0
SEQEND
8
2
0
POLYLINE
8
2
62
2
66
1
10
0
20
0
30
0
70
8
0
VERTEX
8
2
62
2
10
3
20
0
30
3
70
32
0
VERTEX
8
2
62
2
10
3
20
0
30
6
70
32
0
SEQEND
8
2
0
POLYLINE
8
2
62
2
66
1
10
0
20
0
30
0
70
8
0
VERTEX
8
2
62
2
10
3
20
0
30
6
70
32
0
VERTEX
8
2
62
2
10
3
20
0
30
9
70
32
0
SEQEND
8
2
0
POLYLINE
8
2
62
2
66
1
10
0
20
0
30
0
70
8
0
VERTEX
8
2
62
2
10
3
20
6
30
0
70
32
0
VERTEX
8
2
62
2
10
3
20
6
30
3
70
32
0
SEQEND
8
2
0
POLYLINE
8
2
62
2
66
1
10
0
20
0
30
0
70
8
0
VERTEX
8
2
62
2
10
3
20
6
30
3
70
32
0
VERTEX
8
2
62
2
10
3
20
6
30
6
70
32
0
SEQEND
8
2
0
POLYLINE
8
2
62
2
66
1
10
0
20
0
30
0
70
8
0
VERTEX
8
2
62
2
10
3
20
6
30
6
70
32
0
VERTEX
8
2
62
2
10
3
20
6
30
9
70
32
0
SEQEND
8
2
0
POLYLINE
8
2
62
2
66
1
10
0
20
0
30
0
70
8
0
VERTEX
8
2
62
2
10
9
20
-6
30
0
70
32
0
VERTEX
8
2
62
2
10
9
20
-6
30
3
70
32
0
SEQEND
8
2
0
POLYLINE
8
2
62
2
66
1
10
0
20
0
30
0
70
8
0
VERTEX
8
2
62
2
10
9
20
-6
30
3
70
32
0
VERTEX
8
2
62
2
10
9
20
-6
30
6
70
32
0
SEQEND
8
2
0
POLYLINE
8
2
62
2
66
1
10
0
20
0
30
0
70
8
0
VERTEX
8
2
62
2
10
9
20
-6
30
6
70
32
0
VERTEX
8
2
62
2
10
9
20
-6
30
9
70
32
0
SEQEND
8
2
0
POLYLINE
8
2
62
2
66
1
10
0
20
0
30
0
70
8
0
VERTEX
8
2
62
2
10
9
20
0
30
0
70
32
0
VERTEX
8
2
62
2
10
9
20
0
30
3
70
32
0
SEQEND
8
2
0
POLYLINE
8
2
62
2
66
1
10
0
20
0
30
0
70
8
0
VERTEX
8
2
62
2
10
9
20
0
30
3
70
32
0
VERTEX
8
2
62
2
10
9
20
0
30
6
70
32
0
SEQEND
8
2
0
POLYLINE
8
2
62
2
66
1
10
0
20
0
30
0
70
8
0
VERTEX
8
2
62
2
10
9
20
0
30
6
70
32
0
VERTEX
8
2
62
2
10
9
20
0
30
9
70
32
0
SEQEND
8
2
0
POLYLINE
8
2
62
2
66
1
10
0
20
0
30
0
70
8
0
VERTEX
8
2
62
2
10
9
20
6
30
0
70
32
0
VERTEX
8
2
62
2
10
9
20
6
30
3
70
32
0
SEQEND
8
2
0
POLYLINE
8
2
62
2
66
1
10
0
20
0
30
0
70
8
0
VERTEX
8
2
62
2
10
9
20
6
30
3
70
32
0
VERTEX
8
2
62
2
10
9
20
6
30
6
70
32
0
SEQEND
8
2
0
POLYLINE
8
2
62
2
66
1
10
0
20
0
30
0
70
8
0
VERTEX
8
2
62
2
10
9
20
6
30
6
70
32
0
VERTEX
8
2
62
2
10
9
20
6
30
9
70
32
0
SEQEND
8
2
0
POLYLINE
8
2
62
2
66
1
10
0
20
0
30
0
70
8
0
VERTEX
8
2
62
2
10
15
20
-6
30
0
70
32
0
VERTEX
8
2
62
2
10
15
20
-6
30
3
70
32
0
SEQEND
8
2
0
POLYLINE
8
2
62
2
66
1
10
0
20
0
30
0
70
8
0
VERTEX
8
2
62
2
10
15
20
-6
30
3
70
32
0
VERTEX
8
2
62
2
10
15
20
-6
30
6
70
32
0
SEQEND
8
2
0
POLYLINE
8
2
62
2
66
1
10
0
20
0
30
0
70
8
0
VERTEX
8
2
62
2
10
15
20
-6
30
6
70
32
0
VERTEX
8
2
62
2
10
15
20
-6
30
9
70
32
0
SEQEND
8
2
0
POLYLINE
8
2
62
2
66
1
10
0
20
0
30
0
70
8
0
VERTEX
8
2
62
2
10
15
20
0
30
0
70
32
0
VERTEX
8
2
62
2
10
15
20
0
30
3
70
32
0
SEQEND
8
2
0
POLYLINE
8
2
62
2
66
1
10
0
20
0
30
0
70
8
0
VERTEX
8
2
62
2
10
15
20
0
30
3
70
32
0
VERTEX
8
2
62
2
10
15
20
0
30
6
70
32
0
SEQEND
8
2
0
POLYLINE
8
2
62
2
66
1
10
0
20
0
30
0
70
8
0
VERTEX
8
2
62
2
10
15
20
0
30
6
70
32
0
VERTEX
8
2
62
2
10
15
20
0
30
9
70
32
0
SEQEND
8
2
0
POLYLINE
8
2
62
2
66
1
10
0
20
0
30
0
70
8
0
VERTEX
8
2
62
2
10
15
20
6
30
0
70
32
0
VERTEX
8
2
62
2
10
15
20
6
30
3
70
32
0
SEQEND
8
2
0
POLYLINE
8
2
62
2
66
1
10
0
20
0
30
0
70
8
0
VERTEX
8
2
62
2
10
15
20
6
30
3
70
32
0
VERTEX
8
2
62
2
10
15
20
6
30
6
70
32
0
SEQEND
8
2
0
POLYLINE
8
2
62
2
66
1
10
0
20
0
30
0
70
8
0
VERTEX
8
2
62
2
10
15
20
6
30
6
70
32
0
VERTEX
8
2
62
2
10
15
20
6
30
9
70
32
0
SEQEND
8
2
0
POLYLINE
8
2
62
2
66
1
10
0
20
0
30
0
70
8
0
VERTEX
8
2
62
2
10
-15
20
-6
30
3
70
32
0
VERTEX
8
2
62
2
10
-9
20
-6
30
3
70
32
0
SEQEND
8
2
0
POLYLINE
8
2
62
2
66
1
10
0
20
0
30
0
70
8
0
VERTEX
8
2
62
2
10
-15
20
-6
30
6
70
32
0
VERTEX
8
2
62
2
10
-9
20
-6
30
6
70
32
0
SEQEND
8
2
0
POLYLINE
8
2
62
2
66
1
10
0
20
0
30
0
70
8
0
VERTEX
8
2
62
2
10
-15
20
-6
30
9
70
32
0
VERTEX
8
2
62
2
10
-9
20
-6
30
9
70
32
0
SEQEND
8
2
0
POLYLINE
8
2
62
2
66
1
10
0
20
0
30
0
70
8
0
VERTEX
8
2
62
2
10
-9
20
-6
30
3
70
32
0
VERTEX
8
2
62
2
10
-3
20
-6
30
3
70
32
0
SEQEND
8
2
0
POLYLINE
8
2
62
2
66
1
10
0
20
0
30
0
70
8
0
VERTEX
8
2
62
2
10
-9
20
-6
30
6
70
32
0
VERTEX
8
2
62
2
10
-3
20
-6
30
6
70
32
0
SEQEND
8
2
0
POLYLINE
8
2
62
2
66
1
10
0
20
0
30
0
70
8
0
VERTEX
8
2
62
2
10
-9
20
-6
30
9
70
32
0
VERTEX
8
2
62
2
10
-3
20
-6
30
9
70
32
0
SEQEND
8
2
0
POLYLINE
8
2
62
2
66
1
10
0
20
0
30
0
70
8
0
VERTEX
8
2
62
2
10
-3
20
-6
30
3
70
32
0
VERTEX
8
2
62
2
10
3
20
-6
30
3
70
32
0
SEQEND
8
2
0
POLYLINE
8
2
62
2
66
1
10
0
20
0
30
0
70
8
0
VERTEX
8
2
62
2
10
-3
20
-6
30
6
70
32
0
VERTEX
8
2
62
2
10
3
20
-6
30
6
70
32
0
SEQEND
8
2
0
POLYLINE
8
2
62
2
66
1
10
0
20
0
30
0
70
8
0
VERTEX
8
2
62
2
10
-3
20
-6
30
9
70
32
0
VERTEX
8
2
62
2
10
3
20
-6
30
9
70
32
0
SEQEND
8
2
0
POLYLINE
8
2
62
2
66
1
10
0
20
0
30
0
70
8
0
VERTEX
8
2
62
2
10
3
20
-6
30
3
70
32
0
VERTEX
8
2
62
2
10
9
20
-6
30
3
70
32
0
SEQEND
8
2
0
POLYLINE
8
2
62
2
66
1
10
0
20
0
30
0
70
8
0
VERTEX
8
2
62
2
10
3
20
-6
30
6
70
32
0
VERTEX
8
2
62
2
10
9
20
-6
30
6
70
32
0
SEQEND
8
2
0
POLYLINE
8
2
62
2
66
1
10
0
20
0
30
0
70
8
0
VERTEX
8
2
62
2
10
3
20
-6
30
9
70
32
0
VERTEX
8
2
62
2
10
9
20
-6
30
9
70
32
0
SEQEND
8
2
0
POLYLINE
8
2
62
2
66
1
10
0
20
0
30
0
70
8
0
VERTEX
8
2
62
2
10
9
20
-6
30
3
70
32
0
VERTEX
8
2
62
2
10
15
20
-6
30
3
70
32
0
SEQEND
8
2
0
POLYLINE
8
2
62
2
66
1
10
0
20
0
30
0
70
8
0
VERTEX
8
2
62
2
10
9
20
-6
30
6
70
32
0
VERTEX
8
2
62
2
10
15
20
-6
30
6
70
32
0
SEQEND
8
2
0
POLYLINE
8
2
62
2
66
1
10
0
20
0
30
0
70
8
0
VERTEX
8
2
62
2
10
9
20
-6
30
9
70
32
0
VERTEX
8
2
62
2
10
15
20
-6
30
9
70
32
0
SEQEND
8
2
0
POLYLINE
8
2
62
2
66
1
10
0
20
0
30
0
70
8
0
VERTEX
8
2
62
2
10
-15
20
0
30
3
70
32
0
VERTEX
8
2
62
2
10
-9
20
0
30
3
70
32
0
SEQEND
8
2
0
POLYLINE
8
2
62
2
66
1
10
0
20
0
30
0
70
8
0
VERTEX
8
2
62
2
10
-15
20
0
30
6
70
32
0
VERTEX
8
2
62
2
10
-9
20
0
30
6
70
32
0
SEQEND
8
2
0
POLYLINE
8
2
62
2
66
1
10
0
20
0
30
0
70
8
0
VERTEX
8
2
62
2
10
-15
20
0
30
9
70
32
0
VERTEX
8
2
62
2
10
-9
20
0
30
9
70
32
0
SEQEND
8
2
0
POLYLINE
8
2
62
2
66
1
10
0
20
0
30
0
70
8
0
VERTEX
8
2
62
2
10
-9
20
0
30
3
70
32
0
VERTEX
8
2
62
2
10
-3
20
0
30
3
70
32
0
SEQEND
8
2
0
POLYLINE
8
2
62
2
66
1
10
0
20
0
30
0
70
8
0
VERTEX
8
2
62
2
10
-9
20
0
30
6
70
32
0
VERTEX
8
2
62
2
10
-3
20
0
30
6
70
32
0
SEQEND
8
2
0
POLYLINE
8
2
62
2
66
1
10
0
20
0
30
0
70
8
0
VERTEX
8
2
62
2
10
-9
20
0
30
9
70
32
0
VERTEX
8
2
62
2
10
-3
20
0
30
9
70
32
0
SEQEND
8
2
0
POLYLINE
8
2
62
2
66
1
10
0
20
0
30
0
70
8
0
VERTEX
8
2
62
2
10
-3
20
0
30
3
70
32
0
VERTEX
8
2
62
2
10
3
20
0
30
3
70
32
0
SEQEND
8
2
0
POLYLINE
8
2
62
2
66
1
10
0
20
0
30
0
70
8
0
VERTEX
8
2
62
2
10
-3
20
0
30
6
70
32
0
VERTEX
8
2
62
2
10
3
20
0
30
6
70
32
0
SEQEND
8
2
0
POLYLINE
8
2
62
2
66
1
10
0
20
0
30
0
70
8
0
VERTEX
8
2
62
2
10
-3
20
0
30
9
70
32
0
VERTEX
8
2
62
2
10
3
20
0
30
9
70
32
0
SEQEND
8
2
0
POLYLINE
8
2
62
2
66
1
10
0
20
0
30
0
70
8
0
VERTEX
8
2
62
2
10
3
20
0
30
3
70
32
0
VERTEX
8
2
62
2
10
9
20
0
30
3
70
32
0
SEQEND
8
2
0
POLYLINE
8
2
62
2
66
1
10
0
20
0
30
0
70
8
0
VERTEX
8
2
62
2
10
3
20
0
30
6
70
32
0
VERTEX
8
2
62
2
10
9
20
0
30
6
70
32
0
SEQEND
8
2
0
POLYLINE
8
2
62
2
66
1
10
0
20
0
30
0
70
8
0
VERTEX
8
2
62
2
10
3
20
0
30
9
70
32
0
VERTEX
8
2
62
2
10
9
20
0
30
9
70
32
0
SEQEND
8
2
0
POLYLINE
8
2
62
2
66
1
10
0
20
0
30
0
70
8
0
VERTEX
8
2
62
2
10
9
20
0
30
3
70
32
0
VERTEX
8
2
62
2
10
15
20
0
30
3
70
32
0
SEQEND
8
2
0
POLYLINE
8
2
62
2
66
1
10
0
20
0
30
0
70
8
0
VERTEX
8
2
62
2
10
9
20
0
30
6
70
32
0
VERTEX
8
2
62
2
10
15
20
0
30
6
70
32
0
SEQEND
8
2
0
POLYLINE
8
2
62
2
66
1
10
0
20
0
30
0
70
8
0
VERTEX
8
2
62
2
10
9
20
0
30
9
70
32
0
VERTEX
8
2
62
2
10
15
20
0
30
9
70
32
0
SEQEND
8
2
0
POLYLINE
8
2
62
2
66
1
10
0
20
0
30
0
70
8
0
VERTEX
8
2
62
2
10
-15
20
6
30
3
70
32
0
VERTEX
8
2
62
2
10
-9
20
6
30
3
70
32
0
SEQEND
8
2
0
POLYLINE
8
2
62
2
66
1
10
0
20
0
30
0
70
8
0
VERTEX
8
2
62
2
10
-15
20
6
30
6
70
32
0
VERTEX
8
2
62
2
10
-9
20
6
30
6
70
32
0
SEQEND
8
2
0
POLYLINE
8
2
62
2
66
1
10
0
20
0
30
0
70
8
0
VERTEX
8
2
62
2
10
-15
20
6
30
9
70
32
0
VERTEX
8
2
62
2
10
-9
20
6
30
9
70
32
0
SEQEND
8
2
0
POLYLINE
8
2
62
2
66
1
10
0
20
0
30
0
70
8
0
VERTEX
8
2
62
2
10
-9
20
6
30
3
70
32
0
VERTEX
8
2
62
2
10
-3
20
6
30
3
70
32
0
SEQEND
8
2
0
POLYLINE
8
2
62
2
66
1
10
0
20
0
30
0
70
8
0
VERTEX
8
2
62
2
10
-9
20
6
30
6
70
32
0
VERTEX
8
2
62
2
10
-3
20
6
30
6
70
32
0
SEQEND
8
2
0
POLYLINE
8
2
62
2
66
1
10
0
20
0
30
0
70
8
0
VERTEX
8
2
62
2
10
-9
20
6
30
9
70
32
0
VERTEX
8
2
62
2
10
-3
20
6
30
9
70
32
0
SEQEND
8
2
0
POLYLINE
8
2
62
2
66
1
10
0
20
0
30
0
70
8
0
VERTEX
8
2
62
2
10
-3
20
6
30
3
70
32
0
VERTEX
8
2
62
2
10
3
20
6
30
3
70
32
0
SEQEND
8
2
0
POLYLINE
8
2
62
2
66
1
10
0
20
0
30
0
70
8
0
VERTEX
8
2
62
2
10
-3
20
6
30
6
70
32
0
VERTEX
8
2
62
2
10
3
20
6
30
6
70
32
0
SEQEND
8
2
0
POLYLINE
8
2
62
2
66
1
10
0
20
0
30
0
70
8
0
VERTEX
8
2
62
2
10
-3
20
6
30
9
70
32
0
VERTEX
8
2
62
2
10
3
20
6
30
9
70
32
0
SEQEND
8
2
0
POLYLINE
8
2
62
2
66
1
10
0
20
0
30
0
70
8
0
VERTEX
8
2
62
2
10
3
20
6
30
3
70
32
0
VERTEX
8
2
62
2
10
9
20
6
30
3
70
32
0
SEQEND
8
2
0
POLYLINE
8
2
62
2
66
1
10
0
20
0
30
0
70
8
0
VERTEX
8
2
62
2
10
3
20
6
30
6
70
32
0
VERTEX
8
2
62
2
10
9
20
6
30
6
70
32
0
SEQEND
8
2
0
POLYLINE
8
2
62
2
66
1
10
0
20
0
30
0
70
8
0
VERTEX
8
2
62
2
10
3
20
6
30
9
70
32
0
VERTEX
8
2
62
2
10
9
20
6
30
9
70
32
0
SEQEND
8
2
0
POLYLINE
8
2
62
2
66
1
10
0
20
0
30
0
70
8
0
VERTEX
8
2
62
2
10
9
20
6
30
3
70
32
0
VERTEX
8
2
62
2
10
15
20
6
30
3
70
32
0
SEQEND
8
2
0
POLYLINE
8
2
62
2
66
1
10
0
20
0
30
0
70
8
0
VERTEX
8
2
62
2
10
9
20
6
30
6
70
32
0
VERTEX
8
2
62
2
10
15
20
6
30
6
70
32
0
SEQEND
8
2
0
POLYLINE
8
2
62
2
66
1
10
0
20
0
30
0
70
8
0
VERTEX
8
2
62
2
10
9
20
6
30
9
70
32
0
VERTEX
8
2
62
2
10
15
20
6
30
9
70
32
0
SEQEND
8
2
0
POLYLINE
8
2
62
2
66
1
10
0
20
0
30
0
70
8
0
VERTEX
8
2
62
2
10
-15
20
-6
30
3
70
32
0
VERTEX
8
2
62
2
10
-15
20
0
30
3
70
32
0
SEQEND
8
2
0
POLYLINE
8
2
62
2
66
1
10
0
20
0
30
0
70
8
0
VERTEX
8
2
62
2
10
-15
20
-6
30
6
70
32
0
VERTEX
8
2
62
2
10
-15
20
0
30
6
70
32
0
SEQEND
8
2
0
POLYLINE
8
2
62
2
66
1
10
0
20
0
30
0
70
8
0
VERTEX
8
2
62
2
10
-15
20
-6
30
9
70
32
0
VERTEX
8
2
62
2
10
-15
20
0
30
9
70
32
0
SEQEND
8
2
0
POLYLINE
8
2
62
2
66
1
10
0
20
0
30
0
70
8
0
VERTEX
8
2
62
2
10
-15
20
0
30
3
70
32
0
VERTEX
8
2
62
2
10
-15
20
6
30
3
70
32
0
SEQEND
8
2
0
POLYLINE
8
2
62
2
66
1
10
0
20
0
30
0
70
8
0
VERTEX
8
2
62
2
10
-15
20
0
30
6
70
32
0
VERTEX
8
2
62
2
10
-15
20
6
30
6
70
32
0
SEQEND
8
2
0
POLYLINE
8
2
62
2
66
1
10
0
20
0
30
0
70
8
0
VERTEX
8
2
62
2
10
-15
20
0
30
9
70
32
0
VERTEX
8
2
62
2
10
-15
20
6
30
9
70
32
0
SEQEND
8
2
0
POLYLINE
8
2
62
2
66
1
10
0
20
0
30
0
70
8
0
VERTEX
8
2
62
2
10
-9
20
-6
30
3
70
32
0
VERTEX
8
2
62
2
10
-9
20
0
30
3
70
32
0
SEQEND
8
2
0
POLYLINE
8
2
62
2
66
1
10
0
20
0
30
0
70
8
0
VERTEX
8
2
62
2
10
-9
20
-6
30
6
70
32
0
VERTEX
8
2
62
2
10
-9
20
0
30
6
70
32
0
SEQEND
8
2
0
POLYLINE
8
2
62
2
66
1
10
0
20
0
30
0
70
8
0
VERTEX
8
2
62
2
10
-9
20
-6
30
9
70
32
0
VERTEX
8
2
62
2
10
-9
20
0
30
9
70
32
0
SEQEND
8
2
0
POLYLINE
8
2
62
2
66
1
10
0
20
0
30
0
70
8
0
VERTEX
8
2
62
2
10
-9
20
0
30
3
70
32
0
VERTEX
8
2
62
2
10
-9
20
6
30
3
70
32
0
SEQEND
8
2
0
POLYLINE
8
2
62
2
66
1
10
0
20
0
30
0
70
8
0
VERTEX
8
2
62
2
10
-9
20
0
30
6
70
32
0
VERTEX
8
2
62
2
10
-9
20
6
30
6
70
32
0
SEQEND
8
2
0
POLYLINE
8
2
62
2
66
1
10
0
20
0
30
0
70
8
0
VERTEX
8
2
62
2
10
-9
20
0
30
9
70
32
0
VERTEX
8
2
62
2
10
-9
20
6
30
9
70
32
0
SEQEND
8
2
0
POLYLINE
8
2
62
2
66
1
10
0
20
0
30
0
70
8
0
VERTEX
8
2
62
2
10
-3
20
-6
30
3
70
32
0
VERTEX
8
2
62
2
10
-3
20
0
30
3
70
32
0
SEQEND
8
2
0
POLYLINE
8
2
62
2
66
1
10
0
20
0
30
0
70
8
0
VERTEX
8
2
62
2
10
-3
20
-6
30
6
70
32
0
VERTEX
8
2
62
2
10
-3
20
0
30
6
70
32
0
SEQEND
8
2
0
POLYLINE
8
2
62
2
66
1
10
0
20
0
30
0
70
8
0
VERTEX
8
2
62
2
10
-3
20
-6
30
9
70
32
0
VERTEX
8
2
62
2
10
-3
20
0
30
9
70
32
0
SEQEND
8
2
0
POLYLINE
8
2
62
2
66
1
10
0
20
0
30
0
70
8
0
VERTEX
8
2
62
2
10
-3
20
0
30
3
70
32
0
VERTEX
8
2
62
2
10
-3
20
6
30
3
70
32
0
SEQEND
8
2
0
POLYLINE
8
2
62
2
66
1
10
0
20
0
30
0
70
8
0
VERTEX
8
2
62
2
10
-3
20
0
30
6
70
32
0
VERTEX
8
2
62
2
10
-3
20
6
30
6
70
32
0
SEQEND
8
2
0
POLYLINE
8
2
62
2
66
1
10
0
20
0
30
0
70
8
0
VERTEX
8
2
62
2
10
-3
20
0
30
9
70
32
0
VERTEX
8
2
62
2
10
-3
20
6
30
9
70
32
0
SEQEND
8
2
0
POLYLINE
8
2
62
2
66
1
10
0
20
0
30
0
70
8
0
VERTEX
8
2
62
2
10
3
20
-6
30
3
70
32
0
VERTEX
8
2
62
2
10
3
20
0
30
3
70
32
0
SEQEND
8
2
0
POLYLINE
8
2
62
2
66
1
10
0
20
0
30
0
70
8
0
VERTEX
8
2
62
2
10
3
20
-6
30
6
70
32
0
VERTEX
8
2
62
2
10
3
20
0
30
6
70
32
0
SEQEND
8
2
0
POLYLINE
8
2
62
2
66
1
10
0
20
0
30
0
70
8
0
VERTEX
8
2
62
2
10
3
20
-6
30
9
70
32
0
VERTEX
8
2
62
2
10
3
20
0
30
9
70
32
0
SEQEND
8
2
0
POLYLINE
8
2
62
2
66
1
10
0
20
0
30
0
70
8
0
VERTEX
8
2
62
2
10
3
20
0
30
3
70
32
0
VERTEX
8
2
62
2
10
3
20
6
30
3
70
32
0
SEQEND
8
2
0
POLYLINE
8
2
62
2
66
1
10
0
20
0
30
0
70
8
0
VERTEX
8
2
62
2
10
3
20
0
30
6
70
32
0
VERTEX
8
2
62
2
10
3
20
6
30
6
70
32
0
SEQEND
8
2
0
POLYLINE
8
2
62
2
66
1
10
0
20
0
30
0
70
8
0
VERTEX
8
2
62
2
10
3
20
0
30
9
70
32
0
VERTEX
8
2
62
2
10
3
20
6
30
9
70
32
0
SEQEND
8
2
0
POLYLINE
8
2
62
2
66
1
10
0
20
0
30
0
70
8
0
VERTEX
8
2
62
2
10
9
20
-6
30
3
70
32
0
VERTEX
8
2
62
2
10
9
20
0
30
3
70
32
0
SEQEND
8
2
0
POLYLINE
8
2
62
2
66
1
10
0
20
0
30
0
70
8
0
VERTEX
8
2
62
2
10
9
20
-6
30
6
70
32
0
VERTEX
8
2
62
2
10
9
20
0
30
6
70
32
0
SEQEND
8
2
0
POLYLINE
8
2
62
2
66
1
10
0
20
0
30
0
70
8
0
VERTEX
8
2
62
2
10
9
20
-6
30
9
70
32
0
VERTEX
8
2
62
2
10
9
20
0
30
9
70
32
0
SEQEND
8
2
0
POLYLINE
8
2
62
2
66
1
10
0
20
0
30
0
70
8
0
VERTEX
8
2
62
2
10
9
20
0
30
3
70
32
0
VERTEX
8
2
62
2
10
9
20
6
30
3
70
32
0
SEQEND
8
2
0
POLYLINE
8
2
62
2
66
1
10
0
20
0
30
0
70
8
0
VERTEX
8
2
62
2
10
9
20
0
30
6
70
32
0
VERTEX
8
2
62
2
10
9
20
6
30
6
70
32
0
SEQEND
8
2
0
POLYLINE
8
2
62
2
66
1
10
0
20
0
30
0
70
8
0
VERTEX
8
2
62
2
10
9
20
0
30
9
70
32
0
VERTEX
8
2
62
2
10
9
20
6
30
9
70
32
0
SEQEND
8
2
0
POLYLINE
8
2
62
2
66
1
10
0
20
0
30
0
70
8
0
VERTEX
8
2
62
2
10
15
20
-6
30
3
70
32
0
VERTEX
8
2
62
2
10
15
20
0
30
3
70
32
0
SEQEND
8
2
0
POLYLINE
8
2
62
2
66
1
10
0
20
0
30
0
70
8
0
VERTEX
8
2
62
2
10
15
20
-6
30
6
70
32
0
VERTEX
8
2
62
2
10
15
20
0
30
6
70
32
0
SEQEND
8
2
0
POLYLINE
8
2
62
2
66
1
10
0
20
0
30
0
70
8
0
VERTEX
8
2
62
2
10
15
20
-6
30
9
70
32
0
VERTEX
8
2
62
2
10
15
20
0
30
9
70
32
0
SEQEND
8
2
0
POLYLINE
8
2
62
2
66
1
10
0
20
0
30
0
70
8
0
VERTEX
8
2
62
2
10
15
20
0
30
3
70
32
0
VERTEX
8
2
62
2
10
15
20
6
30
3
70
32
0
SEQEND
8
2
0
POLYLINE
8
2
62
2
66
1
10
0
20
0
30
0
70
8
0
VERTEX
8
2
62
2
10
15
20
0
30
6
70
32
0
VERTEX
8
2
62
2
10
15
20
6
30
6
70
32
0
SEQEND
8
2
0
POLYLINE
8
2
62
2
66
1
10
0
20
0
30
0
70
8
0
VERTEX
8
2
62
2
10
15
20
0
30
9
70
32
0
VERTEX
8
2
62
2
10
15
20
6
30
9
70
32
0
SEQEND
8
2
0
POLYLINE
8
3
62
5
66
1
10
0
20
0
30
0
70
64
0
VERTEX
8
3
62
5
10
-15.083702
20
0
30
2.9452835
70
192
0
VERTEX
8
3
62
5
10
-15.083702
20
1
30
2.9452835
70
192
0
VERTEX
8
3
62
5
10
-15.099997
20
0
30
2.9992225
70
192
0
VERTEX
8
3
62
5
10
-15.099997
20
1
30
2.9992225
70
192
0
VERTEX
8
3
62
5
10
-15.084543
20
0
30
3.0534084
70
192
0
VERTEX
8
3
62
5
10
-15.084543
20
1
30
3.0534084
70
192
0
VERTEX
8
3
62
5
10
-15.042248
20
0
30
3.0906375
70
192
0
VERTEX
8
3
62
5
10
-15.042248
20
1
30
3.0906375
70
192
0
VERTEX
8
3
62
5
10
-14.986539
20
0
30
3.0990898
70
192
0
VERTEX
8
3
62
5
10
-14.986539
20
1
30
3.0990898
70
192
0
VERTEX
8
3
62
5
10
-14.935104
20
0
30
3.0760818
70
192
0
VERTEX
8
3
62
5
10
-14.935104
20
1
30
3.0760818
70
192
0
VERTEX
8
3
62
5
10
-14.904273
20
0
30
3.0289184
70
192
0
VERTEX
8
3
62
5
10
-14.904273
20
1
30
3.0289184
70
192
0
VERTEX
8
3
62
5
10
-14.903835
20
0
30
2.9725736
70
192
0
VERTEX
8
3
62
5
10
-14.903835
20
1
30
2.9725736
70
192
0
VERTEX
8
3
62
5
10
-14.933928
20
0
30
2.9249365
70
192
0
VERTEX
8
3
62
5
10
-14.933928
20
1
30
2.9249365
70
192
0
VERTEX
8
3
62
5
10
-14.984999
20
0
30
2.9011315
70
192
0
VERTEX
8
3
62
5
10
-14.984999
20
1
30
2.9011315
70
192
0
VERTEX
8
3
62
5
10
-15.040833
20
0
30
2.9087166
70
192
0
VERTEX
8
3
62
5
10
-15.040833
20
1
30
2.9087166
70
192
0
VERTEX
8
3
62
5
10
-15.083702
20
0
30
2.9452835
70
192
0
VERTEX
8
3
62
5
10
-15.083702
20
1
30
2.9452835
70
192
0
VERTEX
8
3
62
5
10
0
20
0
30
0
70
128
71
1
72
3
73
4
74
0
0
VERTEX
8
3
62
5
10
0
20
0
30
0
70
128
71
3
72
5
73
6
74
0
0
VERTEX
8
3
62
5
10
0
20
0
30
0
70
128
71
5
72
7
73
8
74
0
0
VERTEX
8
3
62
5
10
0
20
0
30
0
70
128
71
7
72
9
73
10
74
0
0
VERTEX
8
3
62
5
10
0
20
0
30
0
70
128
71
9
72
11
73
12
74
0
0
VERTEX
8
3
62
5
10
0
20
0
30
0
70
128
71
11
72
13
73
14
74
0
0
VERTEX
8
3
62
5
10
0
20
0
30
0
70
128
71
13
72
15
73
16
74
0
0
VERTEX
8
3
62
5
10
0
20
0
30
0
70
128
71
15
72
17
73
18
74
0
0
VERTEX
8
3
62
5
10
0
20
0
30
0
70
128
71
17
72
19
73
20
74
0
0
VERTEX
8
3
62
5
10
0
20
0
30
0
70
128
71
19
72
21
73
22
74
0
0
VERTEX
8
3
62
5
10
0
20
0
30
0
70
128
71
21
72
23
73
24
74
0
0
VERTEX
8
3
62
5
10
0
20
0
30
0
70
128
71
1
72
4
73
2
74
0
0
VERTEX
8
3
62
5
10
0
20
0
30
0
70
128
71
3
72
6
73
4
74
0
0
VERTEX
8
3
62
5
10
0
20
0
30
0
70
128
71
5
72
8
73
6
74
0
0
VERTEX
8
3
62
5
10
0
20
0
30
0
70
128
71
7
72
10
73
8
74
0
0
VERTEX
8
3
62
5
10
0
20
0
30
0
70
128
71
9
72
12
73
10
74
0
0
VERTEX
8
3
62
5
10
0
20
0
30
0
70
128
71
11
72
14
73
12
74
0
0
VERTEX
8
3
62
5
10
0
20
0
30
0
70
128
71
13
72
16
73
14
74
0
0
VERTEX
8
3
62
5
10
0
20
0
30
0
70
128
71
15
72
18
73
16
74
0
0
VERTEX
8
3
62
5
10
0
20
0
30
0
70
128
71
17
72
20
73
18
74
0
0
VERTEX
8
3
62
5
10
0
20
0
30
0
70
128
71
19
72
22
73
20
74
0
0
VERTEX
8
3
62
5
10
0
20
0
30
0
70
128
71
21
72
24
73
22
74
0
0
SEQEND
8
3
0
POLYLINE
8
3
62
5
66
1
10
0
20
0
30
0
70
64
0
VERTEX
8
3
62
5
10
-15.018278
20
1
30
2.800837
70
192
0
VERTEX
8
3
62
5
10
-15
20
1.5
30
3
70
192
0
VERTEX
8
3
62
5
10
-15.123052
20
1
30
2.8423353
70
192
0
VERTEX
8
3
62
5
10
-15
20
1.5
30
3
70
192
0
VERTEX
8
3
62
5
10
-15.188758
20
1
30
2.9338911
70
192
0
VERTEX
8
3
62
5
10
-15
20
1.5
30
3
70
192
0
VERTEX
8
3
62
5
10
-15.194535
20
1
30
3.046436
70
192
0
VERTEX
8
3
62
5
10
-15
20
1.5
30
3
70
192
0
VERTEX
8
3
62
5
10
-15.138548
20
1
30
3.1442377
70
192
0
VERTEX
8
3
62
5
10
-15
20
1.5
30
3
70
192
0
VERTEX
8
3
62
5
10
-15.038573
20
1
30
3.1962451
70
192
0
VERTEX
8
3
62
5
10
-15
20
1.5
30
3
70
192
0
VERTEX
8
3
62
5
10
-14.926352
20
1
30
3.185946
70
192
0
VERTEX
8
3
62
5
10
-15
20
1.5
30
3
70
192
0
VERTEX
8
3
62
5
10
-14.837513
20
1
30
3.1166103
70
192
0
VERTEX
8
3
62
5
10
-15
20
1.5
30
3
70
192
0
VERTEX
8
3
62
5
10
-14.800263
20
1
30
3.0102517
70
192
0
VERTEX
8
3
62
5
10
-15
20
1.5
30
3
70
192
0
VERTEX
8
3
62
5
10
-14.826428
20
1
30
2.9006383
70
192
0
VERTEX
8
3
62
5
10
-15
20
1.5
30
3
70
192
0
VERTEX
8
3
62
5
10
-14.907701
20
1
30
2.8225715
70
192
0
VERTEX
8
3
62
5
10
-15
20
1.5
30
3
70
192
0
VERTEX
8
3
62
5
10
-15.018278
20
1
30
2.800837
70
192
0
VERTEX
8
3
62
5
10
-15
20
1.5
30
3
70
192
0
VERTEX
8
3
62
5
10
0
20
0
30
0
70
128
71
1
72
3
73
4
74
0
0
VERTEX
8
3
62
5
10
0
20
0
30
0
70
128
71
3
72
5
73
6
74
0
0
VERTEX
8
3
62
5
10
0
20
0
30
0
70
128
71
5
72
7
73
8
74
0
0
VERTEX
8
3
62
5
10
0
20
0
30
0
70
128
71
7
72
9
73
10
74
0
0
VERTEX
8
3
62
5
10
0
20
0
30
0
70
128
71
9
72
11
73
12
74
0
0
VERTEX
8
3
62
5
10
0
20
0
30
0
70
128
71
11
72
13
73
14
74
0
0
VERTEX
8
3
62
5
10
0
20
0
30
0
70
128
71
13
72
15
73
16
74
0
0
VERTEX
8
3
62
5
10
0
20
0
30
0
70
128
71
15
72
17
73
18
74
0
0
VERTEX
8
3
62
5
10
0
20
0
30
0
70
128
71
17
72
19
73
20
74
0
0
VERTEX
8
3
62
5
10
0
20
0
30
0
70
128
71
19
72
21
73
22
74
0
0
VERTEX
8
3
62
5
10
0
20
0
30
0
70
128
71
21
72
23
73
24
74
0
0
VERTEX
8
3
62
5
10
0
20
0
30
0
70
128
71
1
72
4
73
2
74
0
0
VERTEX
8
3
62
5
10
0
20
0
30
0
70
128
71
3
72
6
73
4
74
0
0
VERTEX
8
3
62
5
10
0
20
0
30
0
70
128
71
5
72
8
73
6
74
0
0
VERTEX
8
3
62
5
10
0
20
0
30
0
70
128
71
7
72
10
73
8
74
0
0
VERTEX
8
3
62
5
10
0
20
0
30
0
70
128
71
9
72
12
73
10
74
0
0
VERTEX
8
3
62
5
10
0
20
0
30
0
70
128
71
11
72
14
73
12
74
0
0
VERTEX
8
3
62
5
10
0
20
0
30
0
70
128
71
13
72
16
73
14
74
0
0
VERTEX
8
3
62
5
10
0
20
0
30
0
70
128
71
15
72
18
73
16
74
0
0
VERTEX
8
3
62
5
10
0
20
0
30
0
70
128
71
17
72
20
73
18
74
0
0
VERTEX
8
3
62
5
10
0
20
0
30
0
70
128
71
19
72
22
73
20
74
0
0
VERTEX
8
3
62
5
10
0
20
0
30
0
70
128
71
21
72
24
73
22
74
0
0
SEQEND
8
3
0
TEXT
8
3
62
5
10
-15
20
0
30
3
210
0
220
0
230
1
40
1
51
0
50
0
39
0
72
0
73
0
1
Ch. 1; U2
0
POLYLINE
8
3
62
5
66
1
10
0
20
0
30
0
70
64
0
VERTEX
8
3
62
5
10
-15
20
5.9162281
30
8.9453899
70
192
0
VERTEX
8
3
62
5
10
-14
20
5.9162281
30
8.9453899
70
192
0
VERTEX
8
3
62
5
10
-15
20
5.959051
30
8.9087685
70
192
0
VERTEX
8
3
62
5
10
-14
20
5.959051
30
8.9087685
70
192
0
VERTEX
8
3
62
5
10
-15
20
6.014875
30
8.9011125
70
192
0
VERTEX
8
3
62
5
10
-14
20
6.014875
30
8.9011125
70
192
0
VERTEX
8
3
62
5
10
-15
20
6.0659763
30
8.9248526
70
192
0
VERTEX
8
3
62
5
10
-14
20
6.0659763
30
8.9248526
70
192
0
VERTEX
8
3
62
5
10
-15
20
6.0961305
30
8.9724514
70
192
0
VERTEX
8
3
62
5
10
-14
20
6.0961305
30
8.9724514
70
192
0
VERTEX
8
3
62
5
10
-15
20
6.095764
30
9.0287968
70
192
0
VERTEX
8
3
62
5
10
-14
20
6.095764
30
9.0287968
70
192
0
VERTEX
8
3
62
5
10
-15
20
6.0649931
30
9.0759993
70
192
0
VERTEX
8
3
62
5
10
-14
20
6.0649931
30
9.0759993
70
192
0
VERTEX
8
3
62
5
10
-15
20
6.0135874
30
9.0990726
70
192
0
VERTEX
8
3
62
5
10
-14
20
6.0135874
30
9.0990726
70
192
0
VERTEX
8
3
62
5
10
-15
20
5.9578677
30
9.0906911
70
192
0
VERTEX
8
3
62
5
10
-14
20
5.9578677
30
9.0906911
70
192
0
VERTEX
8
3
62
5
10
-15
20
5.9155248
30
9.0535157
70
192
0
VERTEX
8
3
62
5
10
-14
20
5.9155248
30
9.0535157
70
192
0
VERTEX
8
3
62
5
10
-15
20
5.9000021
30
8.9993495
70
192
0
VERTEX
8
3
62
5
10
-14
20
5.9000021
30
8.9993495
70
192
0
VERTEX
8
3
62
5
10
-15
20
5.9162281
30
8.9453899
70
192
0
VERTEX
8
3
62
5
10
-14
20
5.9162281
30
8.9453899
70
192
0
VERTEX
8
3
62
5
10
0
20
0
30
0
70
128
71
1
72
3
73
4
74
0
0
VERTEX
8
3
62
5
10
0
20
0
30
0
70
128
71
3
72
5
73
6
74
0
0
VERTEX
8
3
62
5
10
0
20
0
30
0
70
128
71
5
72
7
73
8
74
0
0
VERTEX
8
3
62
5
10
0
20
0
30
0
70
128
71
7
72
9
73
10
74
0
0
VERTEX
8
3
62
5
10
0
20
0
30
0
70
128
71
9
72
11
73
12
74
0
0
VERTEX
8
3
62
5
10
0
20
0
30
0
70
128
71
11
72
13
73
14
74
0
0
VERTEX
8
3
62
5
10
0
20
0
30
0
70
128
71
13
72
15
73
16
74
0
0
VERTEX
8
3
62
5
10
0
20
0
30
0
70
128
71
15
72
17
73
18
74
0
0
VERTEX
8
3
62
5
10
0
20
0
30
0
70
128
71
17
72
19
73
20
74
0
0
VERTEX
8
3
62
5
10
0
20
0
30
0
70
128
71
19
72
21
73
22
74
0
0
VERTEX
8
3
62
5
10
0
20
0
30
0
70
128
71
21
72
23
73
24
74
0
0
VERTEX
8
3
62
5
10
0
20
0
30
0
70
128
71
1
72
4
73
2
74
0
0
VERTEX
8
3
62
5
10
0
20
0
30
0
70
128
71
3
72
6
73
4
74
0
0
VERTEX
8
3
62
5
10
0
20
0
30
0
70
128
71
5
72
8
73
6
74
0
0
VERTEX
8
3
62
5
10
0
20
0
30
0
70
128
71
7
72
10
73
8
74
0
0
VERTEX
8
3
62
5
10
0
20
0
30
0
70
128
71
9
72
12
73
10
74
0
0
VERTEX
8
3
62
5
10
0
20
0
30
0
70
128
71
11
72
14
73
12
74
0
0
VERTEX
8
3
62
5
10
0
20
0
30
0
70
128
71
13
72
16
73
14
74
0
0
VERTEX
8
3
62
5
10
0
20
0
30
0
70
128
71
15
72
18
73
16
74
0
0
VERTEX
8
3
62
5
10
0
20
0
30
0
70
128
71
17
72
20
73
18
74
0
0
VERTEX
8
3
62
5
10
0
20
0
30
0
70
128
71
19
72
22
73
20
74
0
0
VERTEX
8
3
62
5
10
0
20
0
30
0
70
128
71
21
72
24
73
22
74
0
0
SEQEND
8
3
0
POLYLINE
8
3
62
5
66
1
10
0
20
0
30
0
70
64
0
VERTEX
8
3
62
5
10
-14
20
5.9652188
30
8.8030475
70
192
0
VERTEX
8
3
62
5
10
-13.5
20
6
30
9
70
192
0
VERTEX
8
3
62
5
10
-14
20
6.0772208
30
8.8155089
70
192
0
VERTEX
8
3
62
5
10
-13.5
20
6
30
9
70
192
0
VERTEX
8
3
62
5
10
-14
20
6.1647056
30
8.8865449
70
192
0
VERTEX
8
3
62
5
10
-13.5
20
6
30
9
70
192
0
VERTEX
8
3
62
5
10
-14
20
6.1998976
30
8.9936021
70
192
0
VERTEX
8
3
62
5
10
-13.5
20
6
30
9
70
192
0
VERTEX
8
3
62
5
10
-14
20
6.1716236
30
9.1026906
70
192
0
VERTEX
8
3
62
5
10
-13.5
20
6
30
9
70
192
0
VERTEX
8
3
62
5
10
-14
20
6.0888602
30
9.1791755
70
192
0
VERTEX
8
3
62
5
10
-13.5
20
6
30
9
70
192
0
VERTEX
8
3
62
5
10
-14
20
5.9778844
30
9.1987735
70
192
0
VERTEX
8
3
62
5
10
-13.5
20
6
30
9
70
192
0
VERTEX
8
3
62
5
10
-14
20
5.8739301
30
9.1552623
70
192
0
VERTEX
8
3
62
5
10
-13.5
20
6
30
9
70
192
0
VERTEX
8
3
62
5
10
-14
20
5.8100021
30
9.0624564
70
192
0
VERTEX
8
3
62
5
10
-13.5
20
6
30
9
70
192
0
VERTEX
8
3
62
5
10
-14
20
5.8063971
30
8.949821
70
192
0
VERTEX
8
3
62
5
10
-13.5
20
6
30
9
70
192
0
VERTEX
8
3
62
5
10
-14
20
5.8642597
30
8.8531172
70
192
0
VERTEX
8
3
62
5
10
-13.5
20
6
30
9
70
192
0
VERTEX
8
3
62
5
10
-14
20
5.9652188
30
8.8030475
70
192
0
VERTEX
8
3
62
5
10
-13.5
20
6
30
9
70
192
0
VERTEX
8
3
62
5
10
0
20
0
30
0
70
128
71
1
72
3
73
4
74
0
0
VERTEX
8
3
62
5
10
0
20
0
30
0
70
128
71
3
72
5
73
6
74
0
0
VERTEX
8
3
62
5
10
0
20
0
30
0
70
128
71
5
72
7
73
8
74
0
0
VERTEX
8
3
62
5
10
0
20
0
30
0
70
128
71
7
72
9
73
10
74
0
0
VERTEX
8
3
62
5
10
0
20
0
30
0
70
128
71
9
72
11
73
12
74
0
0
VERTEX
8
3
62
5
10
0
20
0
30
0
70
128
71
11
72
13
73
14
74
0
0
VERTEX
8
3
62
5
10
0
20
0
30
0
70
128
71
13
72
15
73
16
74
0
0
VERTEX
8
3
62
5
10
0
20
0
30
0
70
128
71
15
72
17
73
18
74
0
0
VERTEX
8
3
62
5
10
0
20
0
30
0
70
128
71
17
72
19
73
20
74
0
0
VERTEX
8
3
62
5
10
0
20
0
30
0
70
128
71
19
72
21
73
22
74
0
0
VERTEX
8
3
62
5
10
0
20
0
30
0
70
128
71
21
72
23
73
24
74
0
0
VERTEX
8
3
62
5
10
0
20
0
30
0
70
128
71
1
72
4
73
2
74
0
0
VERTEX
8
3
62
5
10
0
20
0
30
0
70
128
71
3
72
6
73
4
74
0
0
VERTEX
8
3
62
5
10
0
20
0
30
0
70
128
71
5
72
8
73
6
74
0
0
VERTEX
8
3
62
5
10
0
20
0
30
0
70
128
71
7
72
10
73
8
74
0
0
VERTEX
8
3
62
5
10
0
20
0
30
0
70
128
71
9
72
12
73
10
74
0
0
VERTEX
8
3
62
5
10
0
20
0
30
0
70
128
71
11
72
14
73
12
74
0
0
VERTEX
8
3
62
5
10
0
20
0
30
0
70
128
71
13
72
16
73
14
74
0
0
VERTEX
8
3
62
5
10
0
20
0
30
0
70
128
71
15
72
18
73
16
74
0
0
VERTEX
8
3
62
5
10
0
20
0
30
0
70
128
71
17
72
20
73
18
74
0
0
VERTEX
8
3
62
5
10
0
20
0
30
0
70
128
71
19
72
22
73
20
74
0
0
VERTEX
8
3
62
5
10
0
20
0
30
0
70
128
71
21
72
24
73
22
74
0
0
SEQEND
8
3
0
TEXT
8
3
62
5
10
-15
20
6
30
9
210
0
220
0
230
1
40
1
51
0
50
0
39
0
72
0
73
0
1
Ch. 4; U1
0
POLYLINE
8
3
62
5
66
1
10
0
20
0
30
0
70
64
0
VERTEX
8
3
62
5
10
-9.0999057
20
6
30
8.9956589
70
192
0
VERTEX
8
3
62
5
10
-9.0999057
20
7
30
8.9956589
70
192
0
VERTEX
8
3
62
5
10
-9.086393
20
6
30
9.0503612
70
192
0
VERTEX
8
3
62
5
10
-9.086393
20
7
30
9.0503612
70
192
0
VERTEX
8
3
62
5
10
-9.0454511
20
6
30
9.0890741
70
192
0
VERTEX
8
3
62
5
10
-9.0454511
20
7
30
9.0890741
70
192
0
VERTEX
8
3
62
5
10
-8.9900788
20
6
30
9.0995066
70
192
0
VERTEX
8
3
62
5
10
-8.9900788
20
7
30
9.0995066
70
192
0
VERTEX
8
3
62
5
10
-8.9378564
20
6
30
9.0783465
70
192
0
VERTEX
8
3
62
5
10
-8.9378564
20
7
30
9.0783465
70
192
0
VERTEX
8
3
62
5
10
-8.9053642
20
6
30
9.0323119
70
192
0
VERTEX
8
3
62
5
10
-8.9053642
20
7
30
9.0323119
70
192
0
VERTEX
8
3
62
5
10
-8.9029181
20
6
30
8.9760185
70
192
0
VERTEX
8
3
62
5
10
-8.9029181
20
7
30
8.9760185
70
192
0
VERTEX
8
3
62
5
10
-8.9312949
20
6
30
8.9273391
70
192
0
VERTEX
8
3
62
5
10
-8.9312949
20
7
30
8.9273391
70
192
0
VERTEX
8
3
62
5
10
-8.9814851
20
6
30
8.901729
70
192
0
VERTEX
8
3
62
5
10
-8.9814851
20
7
30
8.901729
70
192
0
VERTEX
8
3
62
5
10
-9.0375536
20
6
30
8.9073192
70
192
0
VERTEX
8
3
62
5
10
-9.0375536
20
7
30
8.9073192
70
192
0
VERTEX
8
3
62
5
10
-9.0816991
20
6
30
8.942335
70
192
0
VERTEX
8
3
62
5
10
-9.0816991
20
7
30
8.942335
70
192
0
VERTEX
8
3
62
5
10
-9.0999057
20
6
30
8.9956589
70
192
0
VERTEX
8
3
62
5
10
-9.0999057
20
7
30
8.9956589
70
192
0
VERTEX
8
3
62
5
10
0
20
0
30
0
70
128
71
1
72
3
73
4
74
0
0
VERTEX
8
3
62
5
10
0
20
0
30
0
70
128
71
3
72
5
73
6
74
0
0
VERTEX
8
3
62
5
10
0
20
0
30
0
70
128
71
5
72
7
73
8
74
0
0
VERTEX
8
3
62
5
10
0
20
0
30
0
70
128
71
7
72
9
73
10
74
0
0
VERTEX
8
3
62
5
10
0
20
0
30
0
70
128
71
9
72
11
73
12
74
0
0
VERTEX
8
3
62
5
10
0
20
0
30
0
70
128
71
11
72
13
73
14
74
0
0
VERTEX
8
3
62
5
10
0
20
0
30
0
70
128
71
13
72
15
73
16
74
0
0
VERTEX
8
3
62
5
10
0
20
0
30
0
70
128
71
15
72
17
73
18
74
0
0
VERTEX
8
3
62
5
10
0
20
0
30
0
70
128
71
17
72
19
73
20
74
0
0
VERTEX
8
3
62
5
10
0
20
0
30
0
70
128
71
19
72
21
73
22
74
0
0
VERTEX
8
3
62
5
10
0
20
0
30
0
70
128
71
21
72
23
73
24
74
0
0
VERTEX
8
3
62
5
10
0
20
0
30
0
70
128
71
1
72
4
73
2
74
0
0
VERTEX
8
3
62
5
10
0
20
0
30
0
70
128
71
3
72
6
73
4
74
0
0
VERTEX
8
3
62
5
10
0
20
0
30
0
70
128
71
5
72
8
73
6
74
0
0
VERTEX
8
3
62
5
10
0
20
0
30
0
70
128
71
7
72
10
73
8
74
0
0
VERTEX
8
3
62
5
10
0
20
0
30
0
70
128
71
9
72
12
73
10
74
0
0
VERTEX
8
3
62
5
10
0
20
0
30
0
70
128
71
11
72
14
73
12
74
0
0
VERTEX
8
3
62
5
10
0
20
0
30
0
70
128
71
13
72
16
73
14
74
0
0
VERTEX
8
3
62
5
10
0
20
0
30
0
70
128
71
15
72
18
73
16
74
0
0
VERTEX
8
3
62
5
10
0
20
0
30
0
70
128
71
17
72
20
73
18
74
0
0
VERTEX
8
3
62
5
10
0
20
0
30
0
70
128
71
19
72
22
73
20
74
0
0
VERTEX
8
3
62
5
10
0
20
0
30
0
70
128
71
21
72
24
73
22
74
0
0
SEQEND
8
3
0
POLYLINE
8
3
62
5
66
1
10
0
20
0
30
0
70
64
0
VERTEX
8
3
62
5
10
-9.1331353
20
7
30
8.8507519
70
192
0
VERTEX
8
3
62
5
10
-9
20
7.5
30
9
70
192
0
VERTEX
8
3
62
5
10
-9.1926901
20
7
30
8.9464229
70
192
0
VERTEX
8
3
62
5
10
-9
20
7.5
30
9
70
192
0
VERTEX
8
3
62
5
10
-9.1910672
20
7
30
9.0591042
70
192
0
VERTEX
8
3
62
5
10
-9
20
7.5
30
9
70
192
0
VERTEX
8
3
62
5
10
-9.1287818
20
7
30
9.1530204
70
192
0
VERTEX
8
3
62
5
10
-9
20
7.5
30
9
70
192
0
VERTEX
8
3
62
5
10
-9.0256091
20
7
30
9.1983537
70
192
0
VERTEX
8
3
62
5
10
-9
20
7.5
30
9
70
192
0
VERTEX
8
3
62
5
10
-8.9143057
20
7
30
9.180711
70
192
0
VERTEX
8
3
62
5
10
-9
20
7.5
30
9
70
192
0
VERTEX
8
3
62
5
10
-8.8302096
20
7
30
9.105694
70
192
0
VERTEX
8
3
62
5
10
-9
20
7.5
30
9
70
192
0
VERTEX
8
3
62
5
10
-8.8000207
20
7
30
8.9971198
70
192
0
VERTEX
8
3
62
5
10
-9
20
7.5
30
9
70
192
0
VERTEX
8
3
62
5
10
-8.8333239
20
7
30
8.8894601
70
192
0
VERTEX
8
3
62
5
10
-9
20
7.5
30
9
70
192
0
VERTEX
8
3
62
5
10
-8.9195455
20
7
30
8.816896
70
192
0
VERTEX
8
3
62
5
10
-9
20
7.5
30
9
70
192
0
VERTEX
8
3
62
5
10
-9.0313109
20
7
30
8.8024661
70
192
0
VERTEX
8
3
62
5
10
-9
20
7.5
30
9
70
192
0
VERTEX
8
3
62
5
10
-9.1331353
20
7
30
8.8507519
70
192
0
VERTEX
8
3
62
5
10
-9
20
7.5
30
9
70
192
0
VERTEX
8
3
62
5
10
0
20
0
30
0
70
128
71
1
72
3
73
4
74
0
0
VERTEX
8
3
62
5
10
0
20
0
30
0
70
128
71
3
72
5
73
6
74
0
0
VERTEX
8
3
62
5
10
0
20
0
30
0
70
128
71
5
72
7
73
8
74
0
0
VERTEX
8
3
62
5
10
0
20
0
30
0
70
128
71
7
72
9
73
10
74
0
0
VERTEX
8
3
62
5
10
0
20
0
30
0
70
128
71
9
72
11
73
12
74
0
0
VERTEX
8
3
62
5
10
0
20
0
30
0
70
128
71
11
72
13
73
14
74
0
0
VERTEX
8
3
62
5
10
0
20
0
30
0
70
128
71
13
72
15
73
16
74
0
0
VERTEX
8
3
62
5
10
0
20
0
30
0
70
128
71
15
72
17
73
18
74
0
0
VERTEX
8
3
62
5
10
0
20
0
30
0
70
128
71
17
72
19
73
20
74
0
0
VERTEX
8
3
62
5
10
0
20
0
30
0
70
128
71
19
72
21
73
22
74
0
0
VERTEX
8
3
62
5
10
0
20
0
30
0
70
128
71
21
72
23
73
24
74
0
0
VERTEX
8
3
62
5
10
0
20
0
30
0
70
128
71
1
72
4
73
2
74
0
0
VERTEX
8
3
62
5
10
0
20
0
30
0
70
128
71
3
72
6
73
4
74
0
0
VERTEX
8
3
62
5
10
0
20
0
30
0
70
128
71
5
72
8
73
6
74
0
0
VERTEX
8
3
62
5
10
0
20
0
30
0
70
128
71
7
72
10
73
8
74
0
0
VERTEX
8
3
62
5
10
0
20
0
30
0
70
128
71
9
72
12
73
10
74
0
0
VERTEX
8
3
62
5
10
0
20
0
30
0
70
128
71
11
72
14
73
12
74
0
0
VERTEX
8
3
62
5
10
0
20
0
30
0
70
128
71
13
72
16
73
14
74
0
0
VERTEX
8
3
62
5
10
0
20
0
30
0
70
128
71
15
72
18
73
16
74
0
0
VERTEX
8
3
62
5
10
0
20
0
30
0
70
128
71
17
72
20
73
18
74
0
0
VERTEX
8
3
62
5
10
0
20
0
30
0
70
128
71
19
72
22
73
20
74
0
0
VERTEX
8
3
62
5
10
0
20
0
30
0
70
128
71
21
72
24
73
22
74
0
0
SEQEND
8
3
0
TEXT
8
3
62
5
10
-9
20
6
30
9
210
0
220
0
230
1
40
1
51
0
50
0
39
0
72
0
73
0
1
Ch. 6; U2
0
POLYLINE
8
3
62
5
66
1
10
0
20
0
30
0
70
64
0
VERTEX
8
3
62
5
10
-3
20
-6.0838432
30
8.9454994
70
192
0
VERTEX
8
3
62
5
10
-2
20
-6.0838432
30
8.9454994
70
192
0
VERTEX
8
3
62
5
10
-3
20
-6.0410682
30
8.9088221
70
192
0
VERTEX
8
3
62
5
10
-2
20
-6.0410682
30
8.9088221
70
192
0
VERTEX
8
3
62
5
10
-3
20
-5.9852543
30
8.9010932
70
192
0
VERTEX
8
3
62
5
10
-2
20
-5.9852543
30
8.9010932
70
192
0
VERTEX
8
3
62
5
10
-3
20
-5.934122
30
8.9247664
70
192
0
VERTEX
8
3
62
5
10
-2
20
-5.934122
30
8.9247664
70
192
0
VERTEX
8
3
62
5
10
-3
20
-5.9039056
30
8.9723258
70
192
0
VERTEX
8
3
62
5
10
-2
20
-5.9039056
30
8.9723258
70
192
0
VERTEX
8
3
62
5
10
-3
20
-5.9041984
30
9.0286715
70
192
0
VERTEX
8
3
62
5
10
-2
20
-5.9041984
30
9.0286715
70
192
0
VERTEX
8
3
62
5
10
-3
20
-5.9349076
30
9.0759143
70
192
0
VERTEX
8
3
62
5
10
-2
20
-5.9349076
30
9.0759143
70
192
0
VERTEX
8
3
62
5
10
-3
20
-5.9862831
30
9.0990548
70
192
0
VERTEX
8
3
62
5
10
-2
20
-5.9862831
30
9.0990548
70
192
0
VERTEX
8
3
62
5
10
-3
20
-6.0420137
30
9.0907461
70
192
0
VERTEX
8
3
62
5
10
-2
20
-6.0420137
30
9.0907461
70
192
0
VERTEX
8
3
62
5
10
-3
20
-6.0844052
30
9.0536261
70
192
0
VERTEX
8
3
62
5
10
-2
20
-6.0844052
30
9.0536261
70
192
0
VERTEX
8
3
62
5
10
-3
20
-6.0999986
30
8.9994803
70
192
0
VERTEX
8
3
62
5
10
-2
20
-6.0999986
30
8.9994803
70
192
0
VERTEX
8
3
62
5
10
-3
20
-6.0838432
30
8.9454994
70
192
0
VERTEX
8
3
62
5
10
-2
20
-6.0838432
30
8.9454994
70
192
0
VERTEX
8
3
62
5
10
0
20
0
30
0
70
128
71
1
72
3
73
4
74
0
0
VERTEX
8
3
62
5
10
0
20
0
30
0
70
128
71
3
72
5
73
6
74
0
0
VERTEX
8
3
62
5
10
0
20
0
30
0
70
128
71
5
72
7
73
8
74
0
0
VERTEX
8
3
62
5
10
0
20
0
30
0
70
128
71
7
72
9
73
10
74
0
0
VERTEX
8
3
62
5
10
0
20
0
30
0
70
128
71
9
72
11
73
12
74
0
0
VERTEX
8
3
62
5
10
0
20
0
30
0
70
128
71
11
72
13
73
14
74
0
0
VERTEX
8
3
62
5
10
0
20
0
30
0
70
128
71
13
72
15
73
16
74
0
0
VERTEX
8
3
62
5
10
0
20
0
30
0
70
128
71
15
72
17
73
18
74
0
0
VERTEX
8
3
62
5
10
0
20
0
30
0
70
128
71
17
72
19
73
20
74
0
0
VERTEX
8
3
62
5
10
0
20
0
30
0
70
128
71
19
72
21
73
22
74
0
0
VERTEX
8
3
62
5
10
0
20
0
30
0
70
128
71
21
72
23
73
24
74
0
0
VERTEX
8
3
62
5
10
0
20
0
30
0
70
128
71
1
72
4
73
2
74
0
0
VERTEX
8
3
62
5
10
0
20
0
30
0
70
128
71
3
72
6
73
4
74
0
0
VERTEX
8
3
62
5
10
0
20
0
30
0
70
128
71
5
72
8
73
6
74
0
0
VERTEX
8
3
62
5
10
0
20
0
30
0
70
128
71
7
72
10
73
8
74
0
0
VERTEX
8
3
62
5
10
0
20
0
30
0
70
128
71
9
72
12
73
10
74
0
0
VERTEX
8
3
62
5
10
0
20
0
30
0
70
128
71
11
72
14
73
12
74
0
0
VERTEX
8
3
62
5
10
0
20
0
30
0
70
128
71
13
72
16
73
14
74
0
0
VERTEX
8
3
62
5
10
0
20
0
30
0
70
128
71
15
72
18
73
16
74
0
0
VERTEX
8
3
62
5
10
0
20
0
30
0
70
128
71
17
72
20
73
18
74
0
0
VERTEX
8
3
62
5
10
0
20
0
30
0
70
128
71
19
72
22
73
20
74
0
0
VERTEX
8
3
62
5
10
0
20
0
30
0
70
128
71
21
72
24
73
22
74
0
0
SEQEND
8
3
0
POLYLINE
8
3
62
5
66
1
10
0
20
0
30
0
70
64
0
VERTEX
8
3
62
5
10
-2
20
-6.0856261
30
8.8192566
70
192
0
VERTEX
8
3
62
5
10
-1.5
20
-6
30
9
70
192
0
VERTEX
8
3
62
5
10
-2
20
-5.974316
30
8.801656
70
192
0
VERTEX
8
3
62
5
10
-1.5
20
-6
30
9
70
192
0
VERTEX
8
3
62
5
10
-2
20
-5.8711604
30
8.8470282
70
192
0
VERTEX
8
3
62
5
10
-1.5
20
-6
30
9
70
192
0
VERTEX
8
3
62
5
10
-2
20
-5.8089105
30
8.9409679
70
192
0
VERTEX
8
3
62
5
10
-1.5
20
-6
30
9
70
192
0
VERTEX
8
3
62
5
10
-2
20
-5.8073301
30
9.0536499
70
192
0
VERTEX
8
3
62
5
10
-1.5
20
-6
30
9
70
192
0
VERTEX
8
3
62
5
10
-2
20
-5.8669211
30
9.1492984
70
192
0
VERTEX
8
3
62
5
10
-1.5
20
-6
30
9
70
192
0
VERTEX
8
3
62
5
10
-2
20
-5.9687637
30
9.1975457
70
192
0
VERTEX
8
3
62
5
10
-1.5
20
-6
30
9
70
192
0
VERTEX
8
3
62
5
10
-2
20
-6.0805236
30
9.1830736
70
192
0
VERTEX
8
3
62
5
10
-1.5
20
-6
30
9
70
192
0
VERTEX
8
3
62
5
10
-2
20
-6.1667178
30
9.110477
70
192
0
VERTEX
8
3
62
5
10
-1.5
20
-6
30
9
70
192
0
VERTEX
8
3
62
5
10
-2
20
-6.1999803
30
9.0028047
70
192
0
VERTEX
8
3
62
5
10
-1.5
20
-6
30
9
70
192
0
VERTEX
8
3
62
5
10
-2
20
-6.1697505
30
8.8942419
70
192
0
VERTEX
8
3
62
5
10
-1.5
20
-6
30
9
70
192
0
VERTEX
8
3
62
5
10
-2
20
-6.0856261
30
8.8192566
70
192
0
VERTEX
8
3
62
5
10
-1.5
20
-6
30
9
70
192
0
VERTEX
8
3
62
5
10
0
20
0
30
0
70
128
71
1
72
3
73
4
74
0
0
VERTEX
8
3
62
5
10
0
20
0
30
0
70
128
71
3
72
5
73
6
74
0
0
VERTEX
8
3
62
5
10
0
20
0
30
0
70
128
71
5
72
7
73
8
74
0
0
VERTEX
8
3
62
5
10
0
20
0
30
0
70
128
71
7
72
9
73
10
74
0
0
VERTEX
8
3
62
5
10
0
20
0
30
0
70
128
71
9
72
11
73
12
74
0
0
VERTEX
8
3
62
5
10
0
20
0
30
0
70
128
71
11
72
13
73
14
74
0
0
VERTEX
8
3
62
5
10
0
20
0
30
0
70
128
71
13
72
15
73
16
74
0
0
VERTEX
8
3
62
5
10
0
20
0
30
0
70
128
71
15
72
17
73
18
74
0
0
VERTEX
8
3
62
5
10
0
20
0
30
0
70
128
71
17
72
19
73
20
74
0
0
VERTEX
8
3
62
5
10
0
20
0
30
0
70
128
71
19
72
21
73
22
74
0
0
VERTEX
8
3
62
5
10
0
20
0
30
0
70
128
71
21
72
23
73
24
74
0
0
VERTEX
8
3
62
5
10
0
20
0
30
0
70
128
71
1
72
4
73
2
74
0
0
VERTEX
8
3
62
5
10
0
20
0
30
0
70
128
71
3
72
6
73
4
74
0
0
VERTEX
8
3
62
5
10
0
20
0
30
0
70
128
71
5
72
8
73
6
74
0
0
VERTEX
8
3
62
5
10
0
20
0
30
0
70
128
71
7
72
10
73
8
74
0
0
VERTEX
8
3
62
5
10
0
20
0
30
0
70
128
71
9
72
12
73
10
74
0
0
VERTEX
8
3
62
5
10
0
20
0
30
0
70
128
71
11
72
14
73
12
74
0
0
VERTEX
8
3
62
5
10
0
20
0
30
0
70
128
71
13
72
16
73
14
74
0
0
VERTEX
8
3
62
5
10
0
20
0
30
0
70
128
71
15
72
18
73
16
74
0
0
VERTEX
8
3
62
5
10
0
20
0
30
0
70
128
71
17
72
20
73
18
74
0
0
VERTEX
8
3
62
5
10
0
20
0
30
0
70
128
71
19
72
22
73
20
74
0
0
VERTEX
8
3
62
5
10
0
20
0
30
0
70
128
71
21
72
24
73
22
74
0
0
SEQEND
8
3
0
TEXT
8
3
62
5
10
-3
20
-6
30
9
210
0
220
0
230
1
40
1
51
0
50
0
39
0
72
0
73
0
1
Ch. 8; U1
0
POLYLINE
8
3
62
5
66
1
10
0
20
0
30
0
70
64
0
VERTEX
8
3
62
5
10
-3.078074
20
-6
30
8.9375144
70
192
0
VERTEX
8
3
62
5
10
-3.078074
20
-5
30
8.9375144
70
192
0
VERTEX
8
3
62
5
10
-3.0994623
20
-6
30
8.9896438
70
192
0
VERTEX
8
3
62
5
10
-3.0994623
20
-5
30
8.9896438
70
192
0
VERTEX
8
3
62
5
10
-3.089272
20
-6
30
9.0450612
70
192
0
VERTEX
8
3
62
5
10
-3.089272
20
-5
30
9.0450612
70
192
0
VERTEX
8
3
62
5
10
-3.0507385
20
-6
30
9.086172
70
192
0
VERTEX
8
3
62
5
10
-3.0507385
20
-5
30
9.086172
70
192
0
VERTEX
8
3
62
5
10
-2.9960958
20
-6
30
9.0999238
70
192
0
VERTEX
8
3
62
5
10
-2.9960958
20
-5
30
9.0999238
70
192
0
VERTEX
8
3
62
5
10
-2.9426927
20
-6
30
9.0819505
70
192
0
VERTEX
8
3
62
5
10
-2.9426927
20
-5
30
9.0819505
70
192
0
VERTEX
8
3
62
5
10
-2.9074843
20
-6
30
9.0379585
70
192
0
VERTEX
8
3
62
5
10
-2.9074843
20
-5
30
9.0379585
70
192
0
VERTEX
8
3
62
5
10
-2.9016489
20
-6
30
8.9819149
70
192
0
VERTEX
8
3
62
5
10
-2.9016489
20
-5
30
8.9819149
70
192
0
VERTEX
8
3
62
5
10
-2.9270394
20
-6
30
8.9316133
70
192
0
VERTEX
8
3
62
5
10
-2.9270394
20
-5
30
8.9316133
70
192
0
VERTEX
8
3
62
5
10
-2.9755943
20
-6
30
8.9030239
70
192
0
VERTEX
8
3
62
5
10
-2.9755943
20
-5
30
8.9030239
70
192
0
VERTEX
8
3
62
5
10
-3.0318978
20
-6
30
8.9052238
70
192
0
VERTEX
8
3
62
5
10
-3.0318978
20
-5
30
8.9052238
70
192
0
VERTEX
8
3
62
5
10
-3.078074
20
-6
30
8.9375144
70
192
0
VERTEX
8
3
62
5
10
-3.078074
20
-5
30
8.9375144
70
192
0
VERTEX
8
3
62
5
10
0
20
0
30
0
70
128
71
1
72
3
73
4
74
0
0
VERTEX
8
3
62
5
10
0
20
0
30
0
70
128
71
3
72
5
73
6
74
0
0
VERTEX
8
3
62
5
10
0
20
0
30
0
70
128
71
5
72
7
73
8
74
0
0
VERTEX
8
3
62
5
10
0
20
0
30
0
70
128
71
7
72
9
73
10
74
0
0
VERTEX
8
3
62
5
10
0
20
0
30
0
70
128
71
9
72
11
73
12
74
0
0
VERTEX
8
3
62
5
10
0
20
0
30
0
70
128
71
11
72
13
73
14
74
0
0
VERTEX
8
3
62
5
10
0
20
0
30
0
70
128
71
13
72
15
73
16
74
0
0
VERTEX
8
3
62
5
10
0
20
0
30
0
70
128
71
15
72
17
73
18
74
0
0
VERTEX
8
3
62
5
10
0
20
0
30
0
70
128
71
17
72
19
73
20
74
0
0
VERTEX
8
3
62
5
10
0
20
0
30
0
70
128
71
19
72
21
73
22
74
0
0
VERTEX
8
3
62
5
10
0
20
0
30
0
70
128
71
21
72
23
73
24
74
0
0
VERTEX
8
3
62
5
10
0
20
0
30
0
70
128
71
1
72
4
73
2
74
0
0
VERTEX
8
3
62
5
10
0
20
0
30
0
70
128
71
3
72
6
73
4
74
0
0
VERTEX
8
3
62
5
10
0
20
0
30
0
70
128
71
5
72
8
73
6
74
0
0
VERTEX
8
3
62
5
10
0
20
0
30
0
70
128
71
7
72
10
73
8
74
0
0
VERTEX
8
3
62
5
10
0
20
0
30
0
70
128
71
9
72
12
73
10
74
0
0
VERTEX
8
3
62
5
10
0
20
0
30
0
70
128
71
11
72
14
73
12
74
0
0
VERTEX
8
3
62
5
10
0
20
0
30
0
70
128
71
13
72
16
73
14
74
0
0
VERTEX
8
3
62
5
10
0
20
0
30
0
70
128
71
15
72
18
73
16
74
0
0
VERTEX
8
3
62
5
10
0
20
0
30
0
70
128
71
17
72
20
73
18
74
0
0
VERTEX
8
3
62
5
10
0
20
0
30
0
70
128
71
19
72
22
73
20
74
0
0
VERTEX
8
3
62
5
10
0
20
0
30
0
70
128
71
21
72
24
73
22
74
0
0
SEQEND
8
3
0
POLYLINE
8
3
62
5
66
1
10
0
20
0
30
0
70
64
0
VERTEX
8
3
62
5
10
-3.045702
20
-5
30
8.8052917
70
192
0
VERTEX
8
3
62
5
10
-3
20
-4.5
30
9
70
192
0
VERTEX
8
3
62
5
10
-3.1437143
20
-5
30
8.8609093
70
192
0
VERTEX
8
3
62
5
10
-3
20
-4.5
30
9
70
192
0
VERTEX
8
3
62
5
10
-3.1960982
20
-5
30
8.9606873
70
192
0
VERTEX
8
3
62
5
10
-3
20
-4.5
30
9
70
192
0
VERTEX
8
3
62
5
10
-3.1862224
20
-5
30
9.0729467
70
192
0
VERTEX
8
3
62
5
10
-3
20
-4.5
30
9
70
192
0
VERTEX
8
3
62
5
10
-3.1172223
20
-5
30
9.1620461
70
192
0
VERTEX
8
3
62
5
10
-3
20
-4.5
30
9
70
192
0
VERTEX
8
3
62
5
10
-3.0110049
20
-5
30
9.199697
70
192
0
VERTEX
8
3
62
5
10
-3
20
-4.5
30
9
70
192
0
VERTEX
8
3
62
5
10
-2.9012936
20
-5
30
9.1739455
70
192
0
VERTEX
8
3
62
5
10
-3
20
-4.5
30
9
70
192
0
VERTEX
8
3
62
5
10
-2.8229208
20
-5
30
9.0929675
70
192
0
VERTEX
8
3
62
5
10
-3
20
-4.5
30
9
70
192
0
VERTEX
8
3
62
5
10
-2.8007695
20
-5
30
8.982473
70
192
0
VERTEX
8
3
62
5
10
-3
20
-4.5
30
9
70
192
0
VERTEX
8
3
62
5
10
-2.8418724
20
-5
30
8.8775432
70
192
0
VERTEX
8
3
62
5
10
-3
20
-4.5
30
9
70
192
0
VERTEX
8
3
62
5
10
-2.9331797
20
-5
30
8.8114926
70
192
0
VERTEX
8
3
62
5
10
-3
20
-4.5
30
9
70
192
0
VERTEX
8
3
62
5
10
-3.045702
20
-5
30
8.8052917
70
192
0
VERTEX
8
3
62
5
10
-3
20
-4.5
30
9
70
192
0
VERTEX
8
3
62
5
10
0
20
0
30
0
70
128
71
1
72
3
73
4
74
0
0
VERTEX
8
3
62
5
10
0
20
0
30
0
70
128
71
3
72
5
73
6
74
0
0
VERTEX
8
3
62
5
10
0
20
0
30
0
70
128
71
5
72
7
73
8
74
0
0
VERTEX
8
3
62
5
10
0
20
0
30
0
70
128
71
7
72
9
73
10
74
0
0
VERTEX
8
3
62
5
10
0
20
0
30
0
70
128
71
9
72
11
73
12
74
0
0
VERTEX
8
3
62
5
10
0
20
0
30
0
70
128
71
11
72
13
73
14
74
0
0
VERTEX
8
3
62
5
10
0
20
0
30
0
70
128
71
13
72
15
73
16
74
0
0
VERTEX
8
3
62
5
10
0
20
0
30
0
70
128
71
15
72
17
73
18
74
0
0
VERTEX
8
3
62
5
10
0
20
0
30
0
70
128
71
17
72
19
73
20
74
0
0
VERTEX
8
3
62
5
10
0
20
0
30
0
70
128
71
19
72
21
73
22
74
0
0
VERTEX
8
3
62
5
10
0
20
0
30
0
70
128
71
21
72
23
73
24
74
0
0
VERTEX
8
3
62
5
10
0
20
0
30
0
70
128
71
1
72
4
73
2
74
0
0
VERTEX
8
3
62
5
10
0
20
0
30
0
70
128
71
3
72
6
73
4
74
0
0
VERTEX
8
3
62
5
10
0
20
0
30
0
70
128
71
5
72
8
73
6
74
0
0
VERTEX
8
3
62
5
10
0
20
0
30
0
70
128
71
7
72
10
73
8
74
0
0
VERTEX
8
3
62
5
10
0
20
0
30
0
70
128
71
9
72
12
73
10
74
0
0
VERTEX
8
3
62
5
10
0
20
0
30
0
70
128
71
11
72
14
73
12
74
0
0
VERTEX
8
3
62
5
10
0
20
0
30
0
70
128
71
13
72
16
73
14
74
0
0
VERTEX
8
3
62
5
10
0
20
0
30
0
70
128
71
15
72
18
73
16
74
0
0
VERTEX
8
3
62
5
10
0
20
0
30
0
70
128
71
17
72
20
73
18
74
0
0
VERTEX
8
3
62
5
10
0
20
0
30
0
70
128
71
19
72
22
73
20
74
0
0
VERTEX
8
3
62
5
10
0
20
0
30
0
70
128
71
21
72
24
73
22
74
0
0
SEQEND
8
3
0
TEXT
8
3
62
5
10
-3
20
-6
30
9
210
0
220
0
230
1
40
1
51
0
50
0
39
0
72
0
73
0
1
Ch. 10; U2
0
POLYLINE
8
3
62
5
66
1
10
0
20
0
30
0
70
64
0
VERTEX
8
3
62
5
10
-3.0541791
20
0
30
2.9159487
70
192
0
VERTEX
8
3
62
5
10
-3.0541791
20
1
30
2.9159487
70
192
0
VERTEX
8
3
62
5
10
-3.0910199
20
0
30
2.958583
70
192
0
VERTEX
8
3
62
5
10
-3.0910199
20
1
30
2.958583
70
192
0
VERTEX
8
3
62
5
10
-3.0989626
20
0
30
3.0143669
70
192
0
VERTEX
8
3
62
5
10
-3.0989626
20
1
30
3.0143669
70
192
0
VERTEX
8
3
62
5
10
-3.0754853
20
0
30
3.0655894
70
192
0
VERTEX
8
3
62
5
10
-3.0754853
20
1
30
3.0655894
70
192
0
VERTEX
8
3
62
5
10
-3.028042
20
0
30
3.0959877
70
192
0
VERTEX
8
3
62
5
10
-3.028042
20
1
30
3.0959877
70
192
0
VERTEX
8
3
62
5
10
-2.9716955
20
0
30
3.0959107
70
192
0
VERTEX
8
3
62
5
10
-2.9716955
20
1
30
3.0959107
70
192
0
VERTEX
8
3
62
5
10
-2.9243355
20
0
30
3.0653826
70
192
0
VERTEX
8
3
62
5
10
-2.9243355
20
1
30
3.0653826
70
192
0
VERTEX
8
3
62
5
10
-2.9009985
20
0
30
3.0140961
70
192
0
VERTEX
8
3
62
5
10
-2.9009985
20
1
30
3.0140961
70
192
0
VERTEX
8
3
62
5
10
-2.9090937
20
0
30
2.9583341
70
192
0
VERTEX
8
3
62
5
10
-2.9090937
20
1
30
2.9583341
70
192
0
VERTEX
8
3
62
5
10
-2.9460511
20
0
30
2.9158008
70
192
0
VERTEX
8
3
62
5
10
-2.9460511
20
1
30
2.9158008
70
192
0
VERTEX
8
3
62
5
10
-3.0001368
20
0
30
2.9000001
70
192
0
VERTEX
8
3
62
5
10
-3.0001368
20
1
30
2.9000001
70
192
0
VERTEX
8
3
62
5
10
-3.0541791
20
0
30
2.9159487
70
192
0
VERTEX
8
3
62
5
10
-3.0541791
20
1
30
2.9159487
70
192
0
VERTEX
8
3
62
5
10
0
20
0
30
0
70
128
71
1
72
3
73
4
74
0
0
VERTEX
8
3
62
5
10
0
20
0
30
0
70
128
71
3
72
5
73
6
74
0
0
VERTEX
8
3
62
5
10
0
20
0
30
0
70
128
71
5
72
7
73
8
74
0
0
VERTEX
8
3
62
5
10
0
20
0
30
0
70
128
71
7
72
9
73
10
74
0
0
VERTEX
8
3
62
5
10
0
20
0
30
0
70
128
71
9
72
11
73
12
74
0
0
VERTEX
8
3
62
5
10
0
20
0
30
0
70
128
71
11
72
13
73
14
74
0
0
VERTEX
8
3
62
5
10
0
20
0
30
0
70
128
71
13
72
15
73
16
74
0
0
VERTEX
8
3
62
5
10
0
20
0
30
0
70
128
71
15
72
17
73
18
74
0
0
VERTEX
8
3
62
5
10
0
20
0
30
0
70
128
71
17
72
19
73
20
74
0
0
VERTEX
8
3
62
5
10
0
20
0
30
0
70
128
71
19
72
21
73
22
74
0
0
VERTEX
8
3
62
5
10
0
20
0
30
0
70
128
71
21
72
23
73
24
74
0
0
VERTEX
8
3
62
5
10
0
20
0
30
0
70
128
71
1
72
4
73
2
74
0
0
VERTEX
8
3
62
5
10
0
20
0
30
0
70
128
71
3
72
6
73
4
74
0
0
VERTEX
8
3
62
5
10
0
20
0
30
0
70
128
71
5
72
8
73
6
74
0
0
VERTEX
8
3
62
5
10
0
20
0
30
0
70
128
71
7
72
10
73
8
74
0
0
VERTEX
8
3
62
5
10
0
20
0
30
0
70
128
71
9
72
12
73
10
74
0
0
VERTEX
8
3
62
5
10
0
20
0
30
0
70
128
71
11
72
14
73
12
74
0
0
VERTEX
8
3
62
5
10
0
20
0
30
0
70
128
71
13
72
16
73
14
74
0
0
VERTEX
8
3
62
5
10
0
20
0
30
0
70
128
71
15
72
18
73
16
74
0
0
VERTEX
8
3
62
5
10
0
20
0
30
0
70
128
71
17
72
20
73
18
74
0
0
VERTEX
8
3
62
5
10
0
20
0
30
0
70
128
71
19
72
22
73
20
74
0
0
VERTEX
8
3
62
5
10
0
20
0
30
0
70
128
71
21
72
24
73
22
74
0
0
SEQEND
8
3
0
POLYLINE
8
3
62
5
66
1
10
0
20
0
30
0
70
64
0
VERTEX
8
3
62
5
10
-3.1542681
20
1
30
2.8727154
70
192
0
VERTEX
8
3
62
5
10
-3
20
1.5
30
3
70
192
0
VERTEX
8
3
62
5
10
-3.1985938
20
1
30
2.976325
70
192
0
VERTEX
8
3
62
5
10
-3
20
1.5
30
3
70
192
0
VERTEX
8
3
62
5
10
-3.1798674
20
1
30
3.0874513
70
192
0
VERTEX
8
3
62
5
10
-3
20
1.5
30
3
70
192
0
VERTEX
8
3
62
5
10
-3.1040344
20
1
30
3.1708123
70
192
0
VERTEX
8
3
62
5
10
-3
20
1.5
30
3
70
192
0
VERTEX
8
3
62
5
10
-2.9951712
20
1
30
3.1999417
70
192
0
VERTEX
8
3
62
5
10
-3
20
1.5
30
3
70
192
0
VERTEX
8
3
62
5
10
-2.8878411
20
1
30
3.165591
70
192
0
VERTEX
8
3
62
5
10
-3
20
1.5
30
3
70
192
0
VERTEX
8
3
62
5
10
-2.8161207
20
1
30
3.0786663
70
192
0
VERTEX
8
3
62
5
10
-3
20
1.5
30
3
70
192
0
VERTEX
8
3
62
5
10
-2.8027806
20
1
30
2.9667656
70
192
0
VERTEX
8
3
62
5
10
-3
20
1.5
30
3
70
192
0
VERTEX
8
3
62
5
10
-2.8520564
20
1
30
2.8654166
70
192
0
VERTEX
8
3
62
5
10
-3
20
1.5
30
3
70
192
0
VERTEX
8
3
62
5
10
-2.9483032
20
1
30
2.8067969
70
192
0
VERTEX
8
3
62
5
10
-3
20
1.5
30
3
70
192
0
VERTEX
8
3
62
5
10
-3.0609633
20
1
30
2.8095178
70
192
0
VERTEX
8
3
62
5
10
-3
20
1.5
30
3
70
192
0
VERTEX
8
3
62
5
10
-3.1542681
20
1
30
2.8727154
70
192
0
VERTEX
8
3
62
5
10
-3
20
1.5
30
3
70
192
0
VERTEX
8
3
62
5
10
0
20
0
30
0
70
128
71
1
72
3
73
4
74
0
0
VERTEX
8
3
62
5
10
0
20
0
30
0
70
128
71
3
72
5
73
6
74
0
0
VERTEX
8
3
62
5
10
0
20
0
30
0
70
128
71
5
72
7
73
8
74
0
0
VERTEX
8
3
62
5
10
0
20
0
30
0
70
128
71
7
72
9
73
10
74
0
0
VERTEX
8
3
62
5
10
0
20
0
30
0
70
128
71
9
72
11
73
12
74
0
0
VERTEX
8
3
62
5
10
0
20
0
30
0
70
128
71
11
72
13
73
14
74
0
0
VERTEX
8
3
62
5
10
0
20
0
30
0
70
128
71
13
72
15
73
16
74
0
0
VERTEX
8
3
62
5
10
0
20
0
30
0
70
128
71
15
72
17
73
18
74
0
0
VERTEX
8
3
62
5
10
0
20
0
30
0
70
128
71
17
72
19
73
20
74
0
0
VERTEX
8
3
62
5
10
0
20
0
30
0
70
128
71
19
72
21
73
22
74
0
0
VERTEX
8
3
62
5
10
0
20
0
30
0
70
128
71
21
72
23
73
24
74
0
0
VERTEX
8
3
62
5
10
0
20
0
30
0
70
128
71
1
72
4
73
2
74
0
0
VERTEX
8
3
62
5
10
0
20
0
30
0
70
128
71
3
72
6
73
4
74
0
0
VERTEX
8
3
62
5
10
0
20
0
30
0
70
128
71
5
72
8
73
6
74
0
0
VERTEX
8
3
62
5
10
0
20
0
30
0
70
128
71
7
72
10
73
8
74
0
0
VERTEX
8
3
62
5
10
0
20
0
30
0
70
128
71
9
72
12
73
10
74
0
0
VERTEX
8
3
62
5
10
0
20
0
30
0
70
128
71
11
72
14
73
12
74
0
0
VERTEX
8
3
62
5
10
0
20
0
30
0
70
128
71
13
72
16
73
14
74
0
0
VERTEX
8
3
62
5
10
0
20
0
30
0
70
128
71
15
72
18
73
16
74
0
0
VERTEX
8
3
62
5
10
0
20
0
30
0
70
128
71
17
72
20
73
18
74
0
0
VERTEX
8
3
62
5
10
0
20
0
30
0
70
128
71
19
72
22
73
20
74
0
0
VERTEX
8
3
62
5
10
0
20
0
30
0
70
128
71
21
72
24
73
22
74
0
0
SEQEND
8
3
0
TEXT
8
3
62
5
10
-3
20
0
30
3
210
0
220
0
230
1
40
1
51
0
50
0
39
0
72
0
73
0
1
Ch. 12; U2
0
POLYLINE
8
4
62
1
66
1
10
0
20
0
30
0
70
64
0
VERTEX
8
4
62
1
10
2.9141407
20
-6
30
8.9487342
70
192
0
VERTEX
8
4
62
1
10
2.9141407
20
-5
30
8.9487342
70
192
0
VERTEX
8
4
62
1
10
2.9000542
20
-6
30
9.0032915
70
192
0
VERTEX
8
4
62
1
10
2.9000542
20
-5
30
9.0032915
70
192
0
VERTEX
8
4
62
1
10
2.9176997
20
-6
30
9.0568037
70
192
0
VERTEX
8
4
62
1
10
2.9176997
20
-5
30
9.0568037
70
192
0
VERTEX
8
4
62
1
10
2.961475
20
-6
30
9.0922812
70
192
0
VERTEX
8
4
62
1
10
2.961475
20
-5
30
9.0922812
70
192
0
VERTEX
8
4
62
1
10
3.0174817
20
-6
30
9.0984601
70
192
0
VERTEX
8
4
62
1
10
3.0174817
20
-5
30
9.0984601
70
192
0
VERTEX
8
4
62
1
10
3.0679381
20
-6
30
9.0733786
70
192
0
VERTEX
8
4
62
1
10
3.0679381
20
-5
30
9.0733786
70
192
0
VERTEX
8
4
62
1
10
3.0968246
20
-6
30
9.0249999
70
192
0
VERTEX
8
4
62
1
10
3.0968246
20
-5
30
9.0249999
70
192
0
VERTEX
8
4
62
1
10
3.09497
20
-6
30
8.9686839
70
192
0
VERTEX
8
4
62
1
10
3.09497
20
-5
30
8.9686839
70
192
0
VERTEX
8
4
62
1
10
3.0629631
20
-6
30
8.9223105
70
192
0
VERTEX
8
4
62
1
10
3.0629631
20
-5
30
8.9223105
70
192
0
VERTEX
8
4
62
1
10
3.0109658
20
-6
30
8.9006031
70
192
0
VERTEX
8
4
62
1
10
3.0109658
20
-5
30
8.9006031
70
192
0
VERTEX
8
4
62
1
10
2.955487
20
-6
30
8.9104534
70
192
0
VERTEX
8
4
62
1
10
2.955487
20
-5
30
8.9104534
70
192
0
VERTEX
8
4
62
1
10
2.9141407
20
-6
30
8.9487342
70
192
0
VERTEX
8
4
62
1
10
2.9141407
20
-5
30
8.9487342
70
192
0
VERTEX
8
4
62
1
10
0
20
0
30
0
70
128
71
1
72
3
73
4
74
0
0
VERTEX
8
4
62
1
10
0
20
0
30
0
70
128
71
3
72
5
73
6
74
0
0
VERTEX
8
4
62
1
10
0
20
0
30
0
70
128
71
5
72
7
73
8
74
0
0
VERTEX
8
4
62
1
10
0
20
0
30
0
70
128
71
7
72
9
73
10
74
0
0
VERTEX
8
4
62
1
10
0
20
0
30
0
70
128
71
9
72
11
73
12
74
0
0
VERTEX
8
4
62
1
10
0
20
0
30
0
70
128
71
11
72
13
73
14
74
0
0
VERTEX
8
4
62
1
10
0
20
0
30
0
70
128
71
13
72
15
73
16
74
0
0
VERTEX
8
4
62
1
10
0
20
0
30
0
70
128
71
15
72
17
73
18
74
0
0
VERTEX
8
4
62
1
10
0
20
0
30
0
70
128
71
17
72
19
73
20
74
0
0
VERTEX
8
4
62
1
10
0
20
0
30
0
70
128
71
19
72
21
73
22
74
0
0
VERTEX
8
4
62
1
10
0
20
0
30
0
70
128
71
21
72
23
73
24
74
0
0
VERTEX
8
4
62
1
10
0
20
0
30
0
70
128
71
1
72
4
73
2
74
0
0
VERTEX
8
4
62
1
10
0
20
0
30
0
70
128
71
3
72
6
73
4
74
0
0
VERTEX
8
4
62
1
10
0
20
0
30
0
70
128
71
5
72
8
73
6
74
0
0
VERTEX
8
4
62
1
10
0
20
0
30
0
70
128
71
7
72
10
73
8
74
0
0
VERTEX
8
4
62
1
10
0
20
0
30
0
70
128
71
9
72
12
73
10
74
0
0
VERTEX
8
4
62
1
10
0
20
0
30
0
70
128
71
11
72
14
73
12
74
0
0
VERTEX
8
4
62
1
10
0
20
0
30
0
70
128
71
13
72
16
73
14
74
0
0
VERTEX
8
4
62
1
10
0
20
0
30
0
70
128
71
15
72
18
73
16
74
0
0
VERTEX
8
4
62
1
10
0
20
0
30
0
70
128
71
17
72
20
73
18
74
0
0
VERTEX
8
4
62
1
10
0
20
0
30
0
70
128
71
19
72
22
73
20
74
0
0
VERTEX
8
4
62
1
10
0
20
0
30
0
70
128
71
21
72
24
73
22
74
0
0
SEQEND
8
4
0
POLYLINE
8
4
62
1
66
1
10
0
20
0
30
0
70
64
0
VERTEX
8
4
62
1
10
2.9085804
20
-5
30
8.8221168
70
192
0
VERTEX
8
4
62
1
10
3
20
-4.5
30
9
70
192
0
VERTEX
8
4
62
1
10
2.826922
20
-5
30
8.8997803
70
192
0
VERTEX
8
4
62
1
10
3
20
-4.5
30
9
70
192
0
VERTEX
8
4
62
1
10
2.8002146
20
-5
30
9.0092629
70
192
0
VERTEX
8
4
62
1
10
3
20
-4.5
30
9
70
192
0
VERTEX
8
4
62
1
10
2.8369377
20
-5
30
9.1158045
70
192
0
VERTEX
8
4
62
1
10
3
20
-4.5
30
9
70
192
0
VERTEX
8
4
62
1
10
2.9254319
20
-5
30
9.1855791
70
192
0
VERTEX
8
4
62
1
10
3
20
-4.5
30
9
70
192
0
VERTEX
8
4
62
1
10
3.037601
20
-5
30
9.1964336
70
192
0
VERTEX
8
4
62
1
10
3
20
-4.5
30
9
70
192
0
VERTEX
8
4
62
1
10
3.137832
20
-5
30
9.1449218
70
192
0
VERTEX
8
4
62
1
10
3
20
-4.5
30
9
70
192
0
VERTEX
8
4
62
1
10
3.1943023
20
-5
30
9.0473984
70
192
0
VERTEX
8
4
62
1
10
3
20
-4.5
30
9
70
192
0
VERTEX
8
4
62
1
10
3.189083
20
-5
30
8.9348263
70
192
0
VERTEX
8
4
62
1
10
3
20
-4.5
30
9
70
192
0
VERTEX
8
4
62
1
10
3.1238312
20
-5
30
8.8429464
70
192
0
VERTEX
8
4
62
1
10
3
20
-4.5
30
9
70
192
0
VERTEX
8
4
62
1
10
3.0192639
20
-5
30
8.8009299
70
192
0
VERTEX
8
4
62
1
10
3
20
-4.5
30
9
70
192
0
VERTEX
8
4
62
1
10
2.9085804
20
-5
30
8.8221168
70
192
0
VERTEX
8
4
62
1
10
3
20
-4.5
30
9
70
192
0
VERTEX
8
4
62
1
10
0
20
0
30
0
70
128
71
1
72
3
73
4
74
0
0
VERTEX
8
4
62
1
10
0
20
0
30
0
70
128
71
3
72
5
73
6
74
0
0
VERTEX
8
4
62
1
10
0
20
0
30
0
70
128
71
5
72
7
73
8
74
0
0
VERTEX
8
4
62
1
10
0
20
0
30
0
70
128
71
7
72
9
73
10
74
0
0
VERTEX
8
4
62
1
10
0
20
0
30
0
70
128
71
9
72
11
73
12
74
0
0
VERTEX
8
4
62
1
10
0
20
0
30
0
70
128
71
11
72
13
73
14
74
0
0
VERTEX
8
4
62
1
10
0
20
0
30
0
70
128
71
13
72
15
73
16
74
0
0
VERTEX
8
4
62
1
10
0
20
0
30
0
70
128
71
15
72
17
73
18
74
0
0
VERTEX
8
4
62
1
10
0
20
0
30
0
70
128
71
17
72
19
73
20
74
0
0
VERTEX
8
4
62
1
10
0
20
0
30
0
70
128
71
19
72
21
73
22
74
0
0
VERTEX
8
4
62
1
10
0
20
0
30
0
70
128
71
21
72
23
73
24
74
0
0
VERTEX
8
4
62
1
10
0
20
0
30
0
70
128
71
1
72
4
73
2
74
0
0
VERTEX
8
4
62
1
10
0
20
0
30
0
70
128
71
3
72
6
73
4
74
0
0
VERTEX
8
4
62
1
10
0
20
0
30
0
70
128
71
5
72
8
73
6
74
0
0
VERTEX
8
4
62
1
10
0
20
0
30
0
70
128
71
7
72
10
73
8
74
0
0
VERTEX
8
4
62
1
10
0
20
0
30
0
70
128
71
9
72
12
73
10
74
0
0
VERTEX
8
4
62
1
10
0
20
0
30
0
70
128
71
11
72
14
73
12
74
0
0
VERTEX
8
4
62
1
10
0
20
0
30
0
70
128
71
13
72
16
73
14
74
0
0
VERTEX
8
4
62
1
10
0
20
0
30
0
70
128
71
15
72
18
73
16
74
0
0
VERTEX
8
4
62
1
10
0
20
0
30
0
70
128
71
17
72
20
73
18
74
0
0
VERTEX
8
4
62
1
10
0
20
0
30
0
70
128
71
19
72
22
73
20
74
0
0
VERTEX
8
4
62
1
10
0
20
0
30
0
70
128
71
21
72
24
73
22
74
0
0
SEQEND
8
4
0
TEXT
8
4
62
1
10
3
20
-6
30
9
210
0
220
0
230
1
40
1
51
0
50
0
39
0
72
0
73
0
1
Ch. 3; U2
0
POLYLINE
8
4
62
1
66
1
10
0
20
0
30
0
70
64
0
VERTEX
8
4
62
1
10
2.9580421
20
0
30
2.9092281
70
192
0
VERTEX
8
4
62
1
10
2.9580421
20
1
30
2.9092281
70
192
0
VERTEX
8
4
62
1
10
2.9156278
20
0
30
2.946322
70
192
0
VERTEX
8
4
62
1
10
2.9156278
20
1
30
2.946322
70
192
0
VERTEX
8
4
62
1
10
2.9000011
20
0
30
3.0004583
70
192
0
VERTEX
8
4
62
1
10
2.9000011
20
1
30
3.0004583
70
192
0
VERTEX
8
4
62
1
10
2.9161233
20
0
30
3.0544491
70
192
0
VERTEX
8
4
62
1
10
2.9161233
20
1
30
3.0544491
70
192
0
VERTEX
8
4
62
1
10
2.9588758
20
0
30
3.0911526
70
192
0
VERTEX
8
4
62
1
10
2.9588758
20
1
30
3.0911526
70
192
0
VERTEX
8
4
62
1
10
3.014685
20
0
30
3.0989159
70
192
0
VERTEX
8
4
62
1
10
3.014685
20
1
30
3.0989159
70
192
0
VERTEX
8
4
62
1
10
3.0658317
20
0
30
3.075274
70
192
0
VERTEX
8
4
62
1
10
3.0658317
20
1
30
3.075274
70
192
0
VERTEX
8
4
62
1
10
3.0960774
20
0
30
3.0277332
70
192
0
VERTEX
8
4
62
1
10
3.0960774
20
1
30
3.0277332
70
192
0
VERTEX
8
4
62
1
10
3.0958192
20
0
30
2.9713873
70
192
0
VERTEX
8
4
62
1
10
3.0958192
20
1
30
2.9713873
70
192
0
VERTEX
8
4
62
1
10
3.065139
20
0
30
2.9241257
70
192
0
VERTEX
8
4
62
1
10
3.065139
20
1
30
2.9241257
70
192
0
VERTEX
8
4
62
1
10
3.0137777
20
0
30
2.9009537
70
192
0
VERTEX
8
4
62
1
10
3.0137777
20
1
30
2.9009537
70
192
0
VERTEX
8
4
62
1
10
2.9580421
20
0
30
2.9092281
70
192
0
VERTEX
8
4
62
1
10
2.9580421
20
1
30
2.9092281
70
192
0
VERTEX
8
4
62
1
10
0
20
0
30
0
70
128
71
1
72
3
73
4
74
0
0
VERTEX
8
4
62
1
10
0
20
0
30
0
70
128
71
3
72
5
73
6
74
0
0
VERTEX
8
4
62
1
10
0
20
0
30
0
70
128
71
5
72
7
73
8
74
0
0
VERTEX
8
4
62
1
10
0
20
0
30
0
70
128
71
7
72
9
73
10
74
0
0
VERTEX
8
4
62
1
10
0
20
0
30
0
70
128
71
9
72
11
73
12
74
0
0
VERTEX
8
4
62
1
10
0
20
0
30
0
70
128
71
11
72
13
73
14
74
0
0
VERTEX
8
4
62
1
10
0
20
0
30
0
70
128
71
13
72
15
73
16
74
0
0
VERTEX
8
4
62
1
10
0
20
0
30
0
70
128
71
15
72
17
73
18
74
0
0
VERTEX
8
4
62
1
10
0
20
0
30
0
70
128
71
17
72
19
73
20
74
0
0
VERTEX
8
4
62
1
10
0
20
0
30
0
70
128
71
19
72
21
73
22
74
0
0
VERTEX
8
4
62
1
10
0
20
0
30
0
70
128
71
21
72
23
73
24
74
0
0
VERTEX
8
4
62
1
10
0
20
0
30
0
70
128
71
1
72
4
73
2
74
0
0
VERTEX
8
4
62
1
10
0
20
0
30
0
70
128
71
3
72
6
73
4
74
0
0
VERTEX
8
4
62
1
10
0
20
0
30
0
70
128
71
5
72
8
73
6
74
0
0
VERTEX
8
4
62
1
10
0
20
0
30
0
70
128
71
7
72
10
73
8
74
0
0
VERTEX
8
4
62
1
10
0
20
0
30
0
70
128
71
9
72
12
73
10
74
0
0
VERTEX
8
4
62
1
10
0
20
0
30
0
70
128
71
11
72
14
73
12
74
0
0
VERTEX
8
4
62
1
10
0
20
0
30
0
70
128
71
13
72
16
73
14
74
0
0
VERTEX
8
4
62
1
10
0
20
0
30
0
70
128
71
15
72
18
73
16
74
0
0
VERTEX
8
4
62
1
10
0
20
0
30
0
70
128
71
17
72
20
73
18
74
0
0
VERTEX
8
4
62
1
10
0
20
0
30
0
70
128
71
19
72
22
73
20
74
0
0
VERTEX
8
4
62
1
10
0
20
0
30
0
70
128
71
21
72
24
73
22
74
0
0
SEQEND
8
4
0
POLYLINE
8
4
62
1
66
1
10
0
20
0
30
0
70
64
0
VERTEX
8
4
62
1
10
2.8224002
20
1
30
2.908031
70
192
0
VERTEX
8
4
62
1
10
3
20
1.5
30
3
70
192
0
VERTEX
8
4
62
1
10
2.8008713
20
1
30
3.0186484
70
192
0
VERTEX
8
4
62
1
10
3
20
1.5
30
3
70
192
0
VERTEX
8
4
62
1
10
2.8425644
20
1
30
3.1233452
70
192
0
VERTEX
8
4
62
1
10
3
20
1.5
30
3
70
192
0
VERTEX
8
4
62
1
10
2.9342422
20
1
30
3.1888807
70
192
0
VERTEX
8
4
62
1
10
3
20
1.5
30
3
70
192
0
VERTEX
8
4
62
1
10
3.0467976
20
1
30
3.1944479
70
192
0
VERTEX
8
4
62
1
10
3
20
1.5
30
3
70
192
0
VERTEX
8
4
62
1
10
3.1444951
20
1
30
3.1382793
70
192
0
VERTEX
8
4
62
1
10
3
20
1.5
30
3
70
192
0
VERTEX
8
4
62
1
10
3.1963164
20
1
30
3.038208
70
192
0
VERTEX
8
4
62
1
10
3
20
1.5
30
3
70
192
0
VERTEX
8
4
62
1
10
3.1858087
20
1
30
2.9260059
70
192
0
VERTEX
8
4
62
1
10
3
20
1.5
30
3
70
192
0
VERTEX
8
4
62
1
10
3.116308
20
1
30
2.8372965
70
192
0
VERTEX
8
4
62
1
10
3
20
1.5
30
3
70
192
0
VERTEX
8
4
62
1
10
3.0098804
20
1
30
2.8002442
70
192
0
VERTEX
8
4
62
1
10
3
20
1.5
30
3
70
192
0
VERTEX
8
4
62
1
10
2.9003157
20
1
30
2.826613
70
192
0
VERTEX
8
4
62
1
10
3
20
1.5
30
3
70
192
0
VERTEX
8
4
62
1
10
2.8224002
20
1
30
2.908031
70
192
0
VERTEX
8
4
62
1
10
3
20
1.5
30
3
70
192
0
VERTEX
8
4
62
1
10
0
20
0
30
0
70
128
71
1
72
3
73
4
74
0
0
VERTEX
8
4
62
1
10
0
20
0
30
0
70
128
71
3
72
5
73
6
74
0
0
VERTEX
8
4
62
1
10
0
20
0
30
0
70
128
71
5
72
7
73
8
74
0
0
VERTEX
8
4
62
1
10
0
20
0
30
0
70
128
71
7
72
9
73
10
74
0
0
VERTEX
8
4
62
1
10
0
20
0
30
0
70
128
71
9
72
11
73
12
74
0
0
VERTEX
8
4
62
1
10
0
20
0
30
0
70
128
71
11
72
13
73
14
74
0
0
VERTEX
8
4
62
1
10
0
20
0
30
0
70
128
71
13
72
15
73
16
74
0
0
VERTEX
8
4
62
1
10
0
20
0
30
0
70
128
71
15
72
17
73
18
74
0
0
VERTEX
8
4
62
1
10
0
20
0
30
0
70
128
71
17
72
19
73
20
74
0
0
VERTEX
8
4
62
1
10
0
20
0
30
0
70
128
71
19
72
21
73
22
74
0
0
VERTEX
8
4
62
1
10
0
20
0
30
0
70
128
71
21
72
23
73
24
74
0
0
VERTEX
8
4
62
1
10
0
20
0
30
0
70
128
71
1
72
4
73
2
74
0
0
VERTEX
8
4
62
1
10
0
20
0
30
0
70
128
71
3
72
6
73
4
74
0
0
VERTEX
8
4
62
1
10
0
20
0
30
0
70
128
71
5
72
8
73
6
74
0
0
VERTEX
8
4
62
1
10
0
20
0
30
0
70
128
71
7
72
10
73
8
74
0
0
VERTEX
8
4
62
1
10
0
20
0
30
0
70
128
71
9
72
12
73
10
74
0
0
VERTEX
8
4
62
1
10
0
20
0
30
0
70
128
71
11
72
14
73
12
74
0
0
VERTEX
8
4
62
1
10
0
20
0
30
0
70
128
71
13
72
16
73
14
74
0
0
VERTEX
8
4
62
1
10
0
20
0
30
0
70
128
71
15
72
18
73
16
74
0
0
VERTEX
8
4
62
1
10
0
20
0
30
0
70
128
71
17
72
20
73
18
74
0
0
VERTEX
8
4
62
1
10
0
20
0
30
0
70
128
71
19
72
22
73
20
74
0
0
VERTEX
8
4
62
1
10
0
20
0
30
0
70
128
71
21
72
24
73
22
74
0
0
SEQEND
8
4
0
TEXT
8
4
62
1
10
3
20
0
30
3
210
0
220
0
230
1
40
1
51
0
50
0
39
0
72
0
73
0
1
Ch. 5; U2
0
POLYLINE
8
4
62
1
66
1
10
0
20
0
30
0
70
64
0
VERTEX
8
4
62
1
10
3
20
5.9074829
30
8.9620449
70
192
0
VERTEX
8
4
62
1
10
4
20
5.9074829
30
8.9620449
70
192
0
VERTEX
8
4
62
1
10
3
20
5.9426898
30
8.9180516
70
192
0
VERTEX
8
4
62
1
10
4
20
5.9426898
30
8.9180516
70
192
0
VERTEX
8
4
62
1
10
3
20
5.9960922
30
8.9000764
70
192
0
VERTEX
8
4
62
1
10
4
20
5.9960922
30
8.9000764
70
192
0
VERTEX
8
4
62
1
10
3
20
6.0507353
30
8.9138262
70
192
0
VERTEX
8
4
62
1
10
4
20
6.0507353
30
8.9138262
70
192
0
VERTEX
8
4
62
1
10
3
20
6.0892704
30
8.9549356
70
192
0
VERTEX
8
4
62
1
10
4
20
6.0892704
30
8.9549356
70
192
0
VERTEX
8
4
62
1
10
3
20
6.0994627
30
9.0103526
70
192
0
VERTEX
8
4
62
1
10
4
20
6.0994627
30
9.0103526
70
192
0
VERTEX
8
4
62
1
10
3
20
6.0780763
30
9.0624827
70
192
0
VERTEX
8
4
62
1
10
4
20
6.0780763
30
9.0624827
70
192
0
VERTEX
8
4
62
1
10
3
20
6.0319013
30
9.094775
70
192
0
VERTEX
8
4
62
1
10
4
20
6.0319013
30
9.094775
70
192
0
VERTEX
8
4
62
1
10
3
20
5.9755978
30
9.096977
70
192
0
VERTEX
8
4
62
1
10
4
20
5.9755978
30
9.096977
70
192
0
VERTEX
8
4
62
1
10
3
20
5.9270418
30
9.0683894
70
192
0
VERTEX
8
4
62
1
10
4
20
5.9270418
30
9.0683894
70
192
0
VERTEX
8
4
62
1
10
3
20
5.9016496
30
9.0180886
70
192
0
VERTEX
8
4
62
1
10
4
20
5.9016496
30
9.0180886
70
192
0
VERTEX
8
4
62
1
10
3
20
5.9074829
30
8.9620449
70
192
0
VERTEX
8
4
62
1
10
4
20
5.9074829
30
8.9620449
70
192
0
VERTEX
8
4
62
1
10
0
20
0
30
0
70
128
71
1
72
3
73
4
74
0
0
VERTEX
8
4
62
1
10
0
20
0
30
0
70
128
71
3
72
5
73
6
74
0
0
VERTEX
8
4
62
1
10
0
20
0
30
0
70
128
71
5
72
7
73
8
74
0
0
VERTEX
8
4
62
1
10
0
20
0
30
0
70
128
71
7
72
9
73
10
74
0
0
VERTEX
8
4
62
1
10
0
20
0
30
0
70
128
71
9
72
11
73
12
74
0
0
VERTEX
8
4
62
1
10
0
20
0
30
0
70
128
71
11
72
13
73
14
74
0
0
VERTEX
8
4
62
1
10
0
20
0
30
0
70
128
71
13
72
15
73
16
74
0
0
VERTEX
8
4
62
1
10
0
20
0
30
0
70
128
71
15
72
17
73
18
74
0
0
VERTEX
8
4
62
1
10
0
20
0
30
0
70
128
71
17
72
19
73
20
74
0
0
VERTEX
8
4
62
1
10
0
20
0
30
0
70
128
71
19
72
21
73
22
74
0
0
VERTEX
8
4
62
1
10
0
20
0
30
0
70
128
71
21
72
23
73
24
74
0
0
VERTEX
8
4
62
1
10
0
20
0
30
0
70
128
71
1
72
4
73
2
74
0
0
VERTEX
8
4
62
1
10
0
20
0
30
0
70
128
71
3
72
6
73
4
74
0
0
VERTEX
8
4
62
1
10
0
20
0
30
0
70
128
71
5
72
8
73
6
74
0
0
VERTEX
8
4
62
1
10
0
20
0
30
0
70
128
71
7
72
10
73
8
74
0
0
VERTEX
8
4
62
1
10
0
20
0
30
0
70
128
71
9
72
12
73
10
74
0
0
VERTEX
8
4
62
1
10
0
20
0
30
0
70
128
71
11
72
14
73
12
74
0
0
VERTEX
8
4
62
1
10
0
20
0
30
0
70
128
71
13
72
16
73
14
74
0
0
VERTEX
8
4
62
1
10
0
20
0
30
0
70
128
71
15
72
18
73
16
74
0
0
VERTEX
8
4
62
1
10
0
20
0
30
0
70
128
71
17
72
20
73
18
74
0
0
VERTEX
8
4
62
1
10
0
20
0
30
0
70
128
71
19
72
22
73
20
74
0
0
VERTEX
8
4
62
1
10
0
20
0
30
0
70
128
71
21
72
24
73
22
74
0
0
SEQEND
8
4
0
POLYLINE
8
4
62
1
66
1
10
0
20
0
30
0
70
64
0
VERTEX
8
4
62
1
10
4
20
5.8210791
30
8.9106283
70
192
0
VERTEX
8
4
62
1
10
4.5
20
6
30
9
70
192
0
VERTEX
8
4
62
1
10
4
20
5.8978001
30
8.8280838
70
192
0
VERTEX
8
4
62
1
10
4.5
20
6
30
9
70
192
0
VERTEX
8
4
62
1
10
4
20
6.0069689
30
8.8001215
70
192
0
VERTEX
8
4
62
1
10
4.5
20
6
30
9
70
192
0
VERTEX
8
4
62
1
10
4
20
6.1139251
30
8.8356191
70
192
0
VERTEX
8
4
62
1
10
4.5
20
6
30
9
70
192
0
VERTEX
8
4
62
1
10
4
20
6.1847109
30
8.9233066
70
192
0
VERTEX
8
4
62
1
10
4.5
20
6
30
9
70
192
0
VERTEX
8
4
62
1
10
4
20
6.1968523
30
9.0353436
70
192
0
VERTEX
8
4
62
1
10
4.5
20
6
30
9
70
192
0
VERTEX
8
4
62
1
10
4
20
6.1464945
30
9.1361594
70
192
0
VERTEX
8
4
62
1
10
4.5
20
6
30
9
70
192
0
VERTEX
8
4
62
1
10
4
20
6.0496257
30
9.1937454
70
192
0
VERTEX
8
4
62
1
10
4.5
20
6
30
9
70
192
0
VERTEX
8
4
62
1
10
4
20
5.9370011
30
9.1898187
70
192
0
VERTEX
8
4
62
1
10
4.5
20
6
30
9
70
192
0
VERTEX
8
4
62
1
10
4
20
5.8443782
30
9.1256259
70
192
0
VERTEX
8
4
62
1
10
4.5
20
6
30
9
70
192
0
VERTEX
8
4
62
1
10
4
20
5.8011641
30
9.0215477
70
192
0
VERTEX
8
4
62
1
10
4.5
20
6
30
9
70
192
0
VERTEX
8
4
62
1
10
4
20
5.8210791
30
8.9106283
70
192
0
VERTEX
8
4
62
1
10
4.5
20
6
30
9
70
192
0
VERTEX
8
4
62
1
10
0
20
0
30
0
70
128
71
1
72
3
73
4
74
0
0
VERTEX
8
4
62
1
10
0
20
0
30
0
70
128
71
3
72
5
73
6
74
0
0
VERTEX
8
4
62
1
10
0
20
0
30
0
70
128
71
5
72
7
73
8
74
0
0
VERTEX
8
4
62
1
10
0
20
0
30
0
70
128
71
7
72
9
73
10
74
0
0
VERTEX
8
4
62
1
10
0
20
0
30
0
70
128
71
9
72
11
73
12
74
0
0
VERTEX
8
4
62
1
10
0
20
0
30
0
70
128
71
11
72
13
73
14
74
0
0
VERTEX
8
4
62
1
10
0
20
0
30
0
70
128
71
13
72
15
73
16
74
0
0
VERTEX
8
4
62
1
10
0
20
0
30
0
70
128
71
15
72
17
73
18
74
0
0
VERTEX
8
4
62
1
10
0
20
0
30
0
70
128
71
17
72
19
73
20
74
0
0
VERTEX
8
4
62
1
10
0
20
0
30
0
70
128
71
19
72
21
73
22
74
0
0
VERTEX
8
4
62
1
10
0
20
0
30
0
70
128
71
21
72
23
73
24
74
0
0
VERTEX
8
4
62
1
10
0
20
0
30
0
70
128
71
1
72
4
73
2
74
0
0
VERTEX
8
4
62
1
10
0
20
0
30
0
70
128
71
3
72
6
73
4
74
0
0
VERTEX
8
4
62
1
10
0
20
0
30
0
70
128
71
5
72
8
73
6
74
0
0
VERTEX
8
4
62
1
10
0
20
0
30
0
70
128
71
7
72
10
73
8
74
0
0
VERTEX
8
4
62
1
10
0
20
0
30
0
70
128
71
9
72
12
73
10
74
0
0
VERTEX
8
4
62
1
10
0
20
0
30
0
70
128
71
11
72
14
73
12
74
0
0
VERTEX
8
4
62
1
10
0
20
0
30
0
70
128
71
13
72
16
73
14
74
0
0
VERTEX
8
4
62
1
10
0
20
0
30
0
70
128
71
15
72
18
73
16
74
0
0
VERTEX
8
4
62
1
10
0
20
0
30
0
70
128
71
17
72
20
73
18
74
0
0
VERTEX
8
4
62
1
10
0
20
0
30
0
70
128
71
19
72
22
73
20
74
0
0
VERTEX
8
4
62
1
10
0
20
0
30
0
70
128
71
21
72
24
73
22
74
0
0
SEQEND
8
4
0
TEXT
8
4
62
1
10
3
20
6
30
9
210
0
220
0
230
1
40
1
51
0
50
0
39
0
72
0
73
0
1
Ch. 7; U1
0
POLYLINE
8
4
62
1
66
1
10
0
20
0
30
0
70
64
0
VERTEX
8
4
62
1
10
8.9071229
20
-6
30
2.9629345
70
192
0
VERTEX
8
4
62
1
10
8.9071229
20
-5
30
2.9629345
70
192
0
VERTEX
8
4
62
1
10
8.9018277
20
-6
30
3.0190316
70
192
0
VERTEX
8
4
62
1
10
8.9018277
20
-5
30
3.0190316
70
192
0
VERTEX
8
4
62
1
10
8.9277015
20
-6
30
3.0690864
70
192
0
VERTEX
8
4
62
1
10
8.9277015
20
-5
30
3.0690864
70
192
0
VERTEX
8
4
62
1
10
8.9765295
20
-6
30
3.0972067
70
192
0
VERTEX
8
4
62
1
10
8.9765295
20
-5
30
3.0972067
70
192
0
VERTEX
8
4
62
1
10
9.0328093
20
-6
30
3.0944645
70
192
0
VERTEX
8
4
62
1
10
9.0328093
20
-5
30
3.0944645
70
192
0
VERTEX
8
4
62
1
10
9.0786723
20
-6
30
3.0617306
70
192
0
VERTEX
8
4
62
1
10
9.0786723
20
-5
30
3.0617306
70
192
0
VERTEX
8
4
62
1
10
9.0995574
20
-6
30
3.0093976
70
192
0
VERTEX
8
4
62
1
10
9.0995574
20
-5
30
3.0093976
70
192
0
VERTEX
8
4
62
1
10
9.0888338
20
-6
30
2.954081
70
192
0
VERTEX
8
4
62
1
10
9.0888338
20
-5
30
2.954081
70
192
0
VERTEX
8
4
62
1
10
9.049906
20
-6
30
2.9133433
70
192
0
VERTEX
8
4
62
1
10
9.049906
20
-5
30
2.9133433
70
192
0
VERTEX
8
4
62
1
10
8.9951335
20
-6
30
2.9001185
70
192
0
VERTEX
8
4
62
1
10
8.9951335
20
-5
30
2.9001185
70
192
0
VERTEX
8
4
62
1
10
8.941906
20
-6
30
2.9186054
70
192
0
VERTEX
8
4
62
1
10
8.941906
20
-5
30
2.9186054
70
192
0
VERTEX
8
4
62
1
10
8.9071229
20
-6
30
2.9629345
70
192
0
VERTEX
8
4
62
1
10
8.9071229
20
-5
30
2.9629345
70
192
0
VERTEX
8
4
62
1
10
0
20
0
30
0
70
128
71
1
72
3
73
4
74
0
0
VERTEX
8
4
62
1
10
0
20
0
30
0
70
128
71
3
72
5
73
6
74
0
0
VERTEX
8
4
62
1
10
0
20
0
30
0
70
128
71
5
72
7
73
8
74
0
0
VERTEX
8
4
62
1
10
0
20
0
30
0
70
128
71
7
72
9
73
10
74
0
0
VERTEX
8
4
62
1
10
0
20
0
30
0
70
128
71
9
72
11
73
12
74
0
0
VERTEX
8
4
62
1
10
0
20
0
30
0
70
128
71
11
72
13
73
14
74
0
0
VERTEX
8
4
62
1
10
0
20
0
30
0
70
128
71
13
72
15
73
16
74
0
0
VERTEX
8
4
62
1
10
0
20
0
30
0
70
128
71
15
72
17
73
18
74
0
0
VERTEX
8
4
62
1
10
0
20
0
30
0
70
128
71
17
72
19
73
20
74
0
0
VERTEX
8
4
62
1
10
0
20
0
30
0
70
128
71
19
72
21
73
22
74
0
0
VERTEX
8
4
62
1
10
0
20
0
30
0
70
128
71
21
72
23
73
24
74
0
0
VERTEX
8
4
62
1
10
0
20
0
30
0
70
128
71
1
72
4
73
2
74
0
0
VERTEX
8
4
62
1
10
0
20
0
30
0
70
128
71
3
72
6
73
4
74
0
0
VERTEX
8
4
62
1
10
0
20
0
30
0
70
128
71
5
72
8
73
6
74
0
0
VERTEX
8
4
62
1
10
0
20
0
30
0
70
128
71
7
72
10
73
8
74
0
0
VERTEX
8
4
62
1
10
0
20
0
30
0
70
128
71
9
72
12
73
10
74
0
0
VERTEX
8
4
62
1
10
0
20
0
30
0
70
128
71
11
72
14
73
12
74
0
0
VERTEX
8
4
62
1
10
0
20
0
30
0
70
128
71
13
72
16
73
14
74
0
0
VERTEX
8
4
62
1
10
0
20
0
30
0
70
128
71
15
72
18
73
16
74
0
0
VERTEX
8
4
62
1
10
0
20
0
30
0
70
128
71
17
72
20
73
18
74
0
0
VERTEX
8
4
62
1
10
0
20
0
30
0
70
128
71
19
72
22
73
20
74
0
0
VERTEX
8
4
62
1
10
0
20
0
30
0
70
128
71
21
72
24
73
22
74
0
0
SEQEND
8
4
0
POLYLINE
8
4
62
1
66
1
10
0
20
0
30
0
70
64
0
VERTEX
8
4
62
1
10
8.9726537
20
-5
30
2.8018784
70
192
0
VERTEX
8
4
62
1
10
9
20
-4.5
30
3
70
192
0
VERTEX
8
4
62
1
10
8.8698822
20
-5
30
2.848114
70
192
0
VERTEX
8
4
62
1
10
9
20
-4.5
30
3
70
192
0
VERTEX
8
4
62
1
10
8.8084222
20
-5
30
2.9425724
70
192
0
VERTEX
8
4
62
1
10
9
20
-4.5
30
3
70
192
0
VERTEX
8
4
62
1
10
8.8077868
20
-5
30
3.0552636
70
192
0
VERTEX
8
4
62
1
10
9
20
-4.5
30
3
70
192
0
VERTEX
8
4
62
1
10
8.8681777
20
-5
30
3.150409
70
192
0
VERTEX
8
4
62
1
10
9
20
-4.5
30
3
70
192
0
VERTEX
8
4
62
1
10
8.9704213
20
-5
30
3.1978007
70
192
0
VERTEX
8
4
62
1
10
9
20
-4.5
30
3
70
192
0
VERTEX
8
4
62
1
10
9.0820559
20
-5
30
3.182392
70
192
0
VERTEX
8
4
62
1
10
9
20
-4.5
30
3
70
192
0
VERTEX
8
4
62
1
10
9.1676384
20
-5
30
3.1090751
70
192
0
VERTEX
8
4
62
1
10
9
20
-4.5
30
3
70
192
0
VERTEX
8
4
62
1
10
9.1999968
20
-5
30
3.0011277
70
192
0
VERTEX
8
4
62
1
10
9
20
-4.5
30
3
70
192
0
VERTEX
8
4
62
1
10
9.1688577
20
-5
30
2.8928222
70
192
0
VERTEX
8
4
62
1
10
9
20
-4.5
30
3
70
192
0
VERTEX
8
4
62
1
10
9.0841074
20
-5
30
2.8185449
70
192
0
VERTEX
8
4
62
1
10
9
20
-4.5
30
3
70
192
0
VERTEX
8
4
62
1
10
8.9726537
20
-5
30
2.8018784
70
192
0
VERTEX
8
4
62
1
10
9
20
-4.5
30
3
70
192
0
VERTEX
8
4
62
1
10
0
20
0
30
0
70
128
71
1
72
3
73
4
74
0
0
VERTEX
8
4
62
1
10
0
20
0
30
0
70
128
71
3
72
5
73
6
74
0
0
VERTEX
8
4
62
1
10
0
20
0
30
0
70
128
71
5
72
7
73
8
74
0
0
VERTEX
8
4
62
1
10
0
20
0
30
0
70
128
71
7
72
9
73
10
74
0
0
VERTEX
8
4
62
1
10
0
20
0
30
0
70
128
71
9
72
11
73
12
74
0
0
VERTEX
8
4
62
1
10
0
20
0
30
0
70
128
71
11
72
13
73
14
74
0
0
VERTEX
8
4
62
1
10
0
20
0
30
0
70
128
71
13
72
15
73
16
74
0
0
VERTEX
8
4
62
1
10
0
20
0
30
0
70
128
71
15
72
17
73
18
74
0
0
VERTEX
8
4
62
1
10
0
20
0
30
0
70
128
71
17
72
19
73
20
74
0
0
VERTEX
8
4
62
1
10
0
20
0
30
0
70
128
71
19
72
21
73
22
74
0
0
VERTEX
8
4
62
1
10
0
20
0
30
0
70
128
71
21
72
23
73
24
74
0
0
VERTEX
8
4
62
1
10
0
20
0
30
0
70
128
71
1
72
4
73
2
74
0
0
VERTEX
8
4
62
1
10
0
20
0
30
0
70
128
71
3
72
6
73
4
74
0
0
VERTEX
8
4
62
1
10
0
20
0
30
0
70
128
71
5
72
8
73
6
74
0
0
VERTEX
8
4
62
1
10
0
20
0
30
0
70
128
71
7
72
10
73
8
74
0
0
VERTEX
8
4
62
1
10
0
20
0
30
0
70
128
71
9
72
12
73
10
74
0
0
VERTEX
8
4
62
1
10
0
20
0
30
0
70
128
71
11
72
14
73
12
74
0
0
VERTEX
8
4
62
1
10
0
20
0
30
0
70
128
71
13
72
16
73
14
74
0
0
VERTEX
8
4
62
1
10
0
20
0
30
0
70
128
71
15
72
18
73
16
74
0
0
VERTEX
8
4
62
1
10
0
20
0
30
0
70
128
71
17
72
20
73
18
74
0
0
VERTEX
8
4
62
1
10
0
20
0
30
0
70
128
71
19
72
22
73
20
74
0
0
VERTEX
8
4
62
1
10
0
20
0
30
0
70
128
71
21
72
24
73
22
74
0
0
SEQEND
8
4
0
TEXT
8
4
62
1
10
9
20
-6
30
3
210
0
220
0
230
1
40
1
51
0
50
0
39
0
72
0
73
0
1
Ch. 9; U2
0
POLYLINE
8
4
62
1
66
1
10
0
20
0
30
0
70
64
0
VERTEX
8
4
62
1
10
15
20
-6.0246747
30
8.903092
70
192
0
VERTEX
8
4
62
1
10
16
20
-6.0246747
30
8.903092
70
192
0
VERTEX
8
4
62
1
10
15
20
-5.9683652
30
8.9051357
70
192
0
VERTEX
8
4
62
1
10
16
20
-5.9683652
30
8.9051357
70
192
0
VERTEX
8
4
62
1
10
15
20
-5.9220996
30
8.9372981
70
192
0
VERTEX
8
4
62
1
10
16
20
-5.9220996
30
8.9372981
70
192
0
VERTEX
8
4
62
1
10
15
20
-5.9005668
30
8.9893679
70
192
0
VERTEX
8
4
62
1
10
16
20
-5.9005668
30
8.9893679
70
192
0
VERTEX
8
4
62
1
10
15
20
-5.9106033
30
9.0448134
70
192
0
VERTEX
8
4
62
1
10
16
20
-5.9106033
30
9.0448134
70
192
0
VERTEX
8
4
62
1
10
15
20
-5.9490227
30
9.0860309
70
192
0
VERTEX
8
4
62
1
10
16
20
-5.9490227
30
9.0860309
70
192
0
VERTEX
8
4
62
1
10
15
20
-6.003627
30
9.0999342
70
192
0
VERTEX
8
4
62
1
10
16
20
-6.003627
30
9.0999342
70
192
0
VERTEX
8
4
62
1
10
15
20
-6.0570797
30
9.0821091
70
192
0
VERTEX
8
4
62
1
10
16
20
-6.0570797
30
9.0821091
70
192
0
VERTEX
8
4
62
1
10
15
20
-6.09241
30
9.038215
70
192
0
VERTEX
8
4
62
1
10
16
20
-6.09241
30
9.038215
70
192
0
VERTEX
8
4
62
1
10
15
20
-6.0984008
30
8.9821878
70
192
0
VERTEX
8
4
62
1
10
16
20
-6.0984008
30
8.9821878
70
192
0
VERTEX
8
4
62
1
10
15
20
-6.0731501
30
8.9318159
70
192
0
VERTEX
8
4
62
1
10
16
20
-6.0731501
30
8.9318159
70
192
0
VERTEX
8
4
62
1
10
15
20
-6.0246747
30
8.903092
70
192
0
VERTEX
8
4
62
1
10
16
20
-6.0246747
30
8.903092
70
192
0
VERTEX
8
4
62
1
10
0
20
0
30
0
70
128
71
1
72
3
73
4
74
0
0
VERTEX
8
4
62
1
10
0
20
0
30
0
70
128
71
3
72
5
73
6
74
0
0
VERTEX
8
4
62
1
10
0
20
0
30
0
70
128
71
5
72
7
73
8
74
0
0
VERTEX
8
4
62
1
10
0
20
0
30
0
70
128
71
7
72
9
73
10
74
0
0
VERTEX
8
4
62
1
10
0
20
0
30
0
70
128
71
9
72
11
73
12
74
0
0
VERTEX
8
4
62
1
10
0
20
0
30
0
70
128
71
11
72
13
73
14
74
0
0
VERTEX
8
4
62
1
10
0
20
0
30
0
70
128
71
13
72
15
73
16
74
0
0
VERTEX
8
4
62
1
10
0
20
0
30
0
70
128
71
15
72
17
73
18
74
0
0
VERTEX
8
4
62
1
10
0
20
0
30
0
70
128
71
17
72
19
73
20
74
0
0
VERTEX
8
4
62
1
10
0
20
0
30
0
70
128
71
19
72
21
73
22
74
0
0
VERTEX
8
4
62
1
10
0
20
0
30
0
70
128
71
21
72
23
73
24
74
0
0
VERTEX
8
4
62
1
10
0
20
0
30
0
70
128
71
1
72
4
73
2
74
0
0
VERTEX
8
4
62
1
10
0
20
0
30
0
70
128
71
3
72
6
73
4
74
0
0
VERTEX
8
4
62
1
10
0
20
0
30
0
70
128
71
5
72
8
73
6
74
0
0
VERTEX
8
4
62
1
10
0
20
0
30
0
70
128
71
7
72
10
73
8
74
0
0
VERTEX
8
4
62
1
10
0
20
0
30
0
70
128
71
9
72
12
73
10
74
0
0
VERTEX
8
4
62
1
10
0
20
0
30
0
70
128
71
11
72
14
73
12
74
0
0
VERTEX
8
4
62
1
10
0
20
0
30
0
70
128
71
13
72
16
73
14
74
0
0
VERTEX
8
4
62
1
10
0
20
0
30
0
70
128
71
15
72
18
73
16
74
0
0
VERTEX
8
4
62
1
10
0
20
0
30
0
70
128
71
17
72
20
73
18
74
0
0
VERTEX
8
4
62
1
10
0
20
0
30
0
70
128
71
19
72
22
73
20
74
0
0
VERTEX
8
4
62
1
10
0
20
0
30
0
70
128
71
21
72
24
73
22
74
0
0
SEQEND
8
4
0
POLYLINE
8
4
62
1
66
1
10
0
20
0
30
0
70
64
0
VERTEX
8
4
62
1
10
16
20
-6.1999648
30
8.9962492
70
192
0
VERTEX
8
4
62
1
10
16.5
20
-6
30
9
70
192
0
VERTEX
8
4
62
1
10
16
20
-6.1661933
30
8.8887355
70
192
0
VERTEX
8
4
62
1
10
16.5
20
-6
30
9
70
192
0
VERTEX
8
4
62
1
10
16
20
-6.0796565
30
8.8165475
70
192
0
VERTEX
8
4
62
1
10
16.5
20
-6
30
9
70
192
0
VERTEX
8
4
62
1
10
16
20
-5.9678294
30
8.8026043
70
192
0
VERTEX
8
4
62
1
10
16.5
20
-6
30
9
70
192
0
VERTEX
8
4
62
1
10
16
20
-5.8662162
30
8.8513329
70
192
0
VERTEX
8
4
62
1
10
16.5
20
-6
30
9
70
192
0
VERTEX
8
4
62
1
10
16
20
-5.8070784
30
8.9472623
70
192
0
VERTEX
8
4
62
1
10
16.5
20
-6
30
9
70
192
0
VERTEX
8
4
62
1
10
16
20
-5.8091919
30
9.0599355
70
192
0
VERTEX
8
4
62
1
10
16.5
20
-6
30
9
70
192
0
VERTEX
8
4
62
1
10
16
20
-5.8718856
30
9.1535796
70
192
0
VERTEX
8
4
62
1
10
16.5
20
-6
30
9
70
192
0
VERTEX
8
4
62
1
10
16
20
-5.9752547
30
9.1984633
70
192
0
VERTEX
8
4
62
1
10
16.5
20
-6
30
9
70
192
0
VERTEX
8
4
62
1
10
16
20
-6.0864803
30
9.1803363
70
192
0
VERTEX
8
4
62
1
10
16.5
20
-6
30
9
70
192
0
VERTEX
8
4
62
1
10
16
20
-6.170249
30
9.1049538
70
192
0
VERTEX
8
4
62
1
10
16.5
20
-6
30
9
70
192
0
VERTEX
8
4
62
1
10
16
20
-6.1999648
30
8.9962492
70
192
0
VERTEX
8
4
62
1
10
16.5
20
-6
30
9
70
192
0
VERTEX
8
4
62
1
10
0
20
0
30
0
70
128
71
1
72
3
73
4
74
0
0
VERTEX
8
4
62
1
10
0
20
0
30
0
70
128
71
3
72
5
73
6
74
0
0
VERTEX
8
4
62
1
10
0
20
0
30
0
70
128
71
5
72
7
73
8
74
0
0
VERTEX
8
4
62
1
10
0
20
0
30
0
70
128
71
7
72
9
73
10
74
0
0
VERTEX
8
4
62
1
10
0
20
0
30
0
70
128
71
9
72
11
73
12
74
0
0
VERTEX
8
4
62
1
10
0
20
0
30
0
70
128
71
11
72
13
73
14
74
0
0
VERTEX
8
4
62
1
10
0
20
0
30
0
70
128
71
13
72
15
73
16
74
0
0
VERTEX
8
4
62
1
10
0
20
0
30
0
70
128
71
15
72
17
73
18
74
0
0
VERTEX
8
4
62
1
10
0
20
0
30
0
70
128
71
17
72
19
73
20
74
0
0
VERTEX
8
4
62
1
10
0
20
0
30
0
70
128
71
19
72
21
73
22
74
0
0
VERTEX
8
4
62
1
10
0
20
0
30
0
70
128
71
21
72
23
73
24
74
0
0
VERTEX
8
4
62
1
10
0
20
0
30
0
70
128
71
1
72
4
73
2
74
0
0
VERTEX
8
4
62
1
10
0
20
0
30
0
70
128
71
3
72
6
73
4
74
0
0
VERTEX
8
4
62
1
10
0
20
0
30
0
70
128
71
5
72
8
73
6
74
0
0
VERTEX
8
4
62
1
10
0
20
0
30
0
70
128
71
7
72
10
73
8
74
0
0
VERTEX
8
4
62
1
10
0
20
0
30
0
70
128
71
9
72
12
73
10
74
0
0
VERTEX
8
4
62
1
10
0
20
0
30
0
70
128
71
11
72
14
73
12
74
0
0
VERTEX
8
4
62
1
10
0
20
0
30
0
70
128
71
13
72
16
73
14
74
0
0
VERTEX
8
4
62
1
10
0
20
0
30
0
70
128
71
15
72
18
73
16
74
0
0
VERTEX
8
4
62
1
10
0
20
0
30
0
70
128
71
17
72
20
73
18
74
0
0
VERTEX
8
4
62
1
10
0
20
0
30
0
70
128
71
19
72
22
73
20
74
0
0
VERTEX
8
4
62
1
10
0
20
0
30
0
70
128
71
21
72
24
73
22
74
0
0
SEQEND
8
4
0
TEXT
8
4
62
1
10
15
20
-6
30
9
210
0
220
0
230
1
40
1
51
0
50
0
39
0
72
0
73
0
1
Ch. 13; U1
0
POLYLINE
8
4
62
1
66
1
10
0
20
0
30
0
70
64
0
VERTEX
8
4
62
1
10
14.993386
20
-6
30
8.9002189
70
192
0
VERTEX
8
4
62
1
10
14.993386
20
-5
30
8.9002189
70
192
0
VERTEX
8
4
62
1
10
14.940491
20
-6
30
8.9196344
70
192
0
VERTEX
8
4
62
1
10
14.940491
20
-5
30
8.9196344
70
192
0
VERTEX
8
4
62
1
10
14.906489
20
-6
30
8.9645653
70
192
0
VERTEX
8
4
62
1
10
14.906489
20
-5
30
8.9645653
70
192
0
VERTEX
8
4
62
1
10
14.902176
20
-6
30
9.0207466
70
192
0
VERTEX
8
4
62
1
10
14.902176
20
-5
30
9.0207466
70
192
0
VERTEX
8
4
62
1
10
14.928921
20
-6
30
9.0703409
70
192
0
VERTEX
8
4
62
1
10
14.928921
20
-5
30
9.0703409
70
192
0
VERTEX
8
4
62
1
10
14.978234
20
-6
30
9.0976025
70
192
0
VERTEX
8
4
62
1
10
14.978234
20
-5
30
9.0976025
70
192
0
VERTEX
8
4
62
1
10
15.034457
20
-6
30
9.093876
70
192
0
VERTEX
8
4
62
1
10
15.034457
20
-5
30
9.093876
70
192
0
VERTEX
8
4
62
1
10
15.07974
20
-6
30
9.0603445
70
192
0
VERTEX
8
4
62
1
10
15.07974
20
-5
30
9.0603445
70
192
0
VERTEX
8
4
62
1
10
15.099707
20
-6
30
9.0076541
70
192
0
VERTEX
8
4
62
1
10
15.099707
20
-5
30
9.0076541
70
192
0
VERTEX
8
4
62
1
10
15.088017
20
-6
30
8.9525335
70
192
0
VERTEX
8
4
62
1
10
15.088017
20
-5
30
8.9525335
70
192
0
VERTEX
8
4
62
1
10
15.048382
20
-6
30
8.9124833
70
192
0
VERTEX
8
4
62
1
10
15.048382
20
-5
30
8.9124833
70
192
0
VERTEX
8
4
62
1
10
14.993386
20
-6
30
8.9002189
70
192
0
VERTEX
8
4
62
1
10
14.993386
20
-5
30
8.9002189
70
192
0
VERTEX
8
4
62
1
10
0
20
0
30
0
70
128
71
1
72
3
73
4
74
0
0
VERTEX
8
4
62
1
10
0
20
0
30
0
70
128
71
3
72
5
73
6
74
0
0
VERTEX
8
4
62
1
10
0
20
0
30
0
70
128
71
5
72
7
73
8
74
0
0
VERTEX
8
4
62
1
10
0
20
0
30
0
70
128
71
7
72
9
73
10
74
0
0
VERTEX
8
4
62
1
10
0
20
0
30
0
70
128
71
9
72
11
73
12
74
0
0
VERTEX
8
4
62
1
10
0
20
0
30
0
70
128
71
11
72
13
73
14
74
0
0
VERTEX
8
4
62
1
10
0
20
0
30
0
70
128
71
13
72
15
73
16
74
0
0
VERTEX
8
4
62
1
10
0
20
0
30
0
70
128
71
15
72
17
73
18
74
0
0
VERTEX
8
4
62
1
10
0
20
0
30
0
70
128
71
17
72
19
73
20
74
0
0
VERTEX
8
4
62
1
10
0
20
0
30
0
70
128
71
19
72
21
73
22
74
0
0
VERTEX
8
4
62
1
10
0
20
0
30
0
70
128
71
21
72
23
73
24
74
0
0
VERTEX
8
4
62
1
10
0
20
0
30
0
70
128
71
1
72
4
73
2
74
0
0
VERTEX
8
4
62
1
10
0
20
0
30
0
70
128
71
3
72
6
73
4
74
0
0
VERTEX
8
4
62
1
10
0
20
0
30
0
70
128
71
5
72
8
73
6
74
0
0
VERTEX
8
4
62
1
10
0
20
0
30
0
70
128
71
7
72
10
73
8
74
0
0
VERTEX
8
4
62
1
10
0
20
0
30
0
70
128
71
9
72
12
73
10
74
0
0
VERTEX
8
4
62
1
10
0
20
0
30
0
70
128
71
11
72
14
73
12
74
0
0
VERTEX
8
4
62
1
10
0
20
0
30
0
70
128
71
13
72
16
73
14
74
0
0
VERTEX
8
4
62
1
10
0
20
0
30
0
70
128
71
15
72
18
73
16
74
0
0
VERTEX
8
4
62
1
10
0
20
0
30
0
70
128
71
17
72
20
73
18
74
0
0
VERTEX
8
4
62
1
10
0
20
0
30
0
70
128
71
19
72
22
73
20
74
0
0
VERTEX
8
4
62
1
10
0
20
0
30
0
70
128
71
21
72
24
73
22
74
0
0
SEQEND
8
4
0
POLYLINE
8
4
62
1
66
1
10
0
20
0
30
0
70
64
0
VERTEX
8
4
62
1
10
14.829734
20
-5
30
8.8950737
70
192
0
VERTEX
8
4
62
1
10
15
20
-4.5
30
9
70
192
0
VERTEX
8
4
62
1
10
14.800036
20
-5
30
9.0037831
70
192
0
VERTEX
8
4
62
1
10
15
20
-4.5
30
9
70
192
0
VERTEX
8
4
62
1
10
14.833825
20
-5
30
9.1112913
70
192
0
VERTEX
8
4
62
1
10
15
20
-4.5
30
9
70
192
0
VERTEX
8
4
62
1
10
14.920373
20
-5
30
9.1834654
70
192
0
VERTEX
8
4
62
1
10
15
20
-4.5
30
9
70
192
0
VERTEX
8
4
62
1
10
15.032202
20
-5
30
9.1973905
70
192
0
VERTEX
8
4
62
1
10
15
20
-4.5
30
9
70
192
0
VERTEX
8
4
62
1
10
15.133808
20
-5
30
9.1486455
70
192
0
VERTEX
8
4
62
1
10
15
20
-4.5
30
9
70
192
0
VERTEX
8
4
62
1
10
15.19293
20
-5
30
9.0527066
70
192
0
VERTEX
8
4
62
1
10
15
20
-4.5
30
9
70
192
0
VERTEX
8
4
62
1
10
15.190798
20
-5
30
8.9400337
70
192
0
VERTEX
8
4
62
1
10
15
20
-4.5
30
9
70
192
0
VERTEX
8
4
62
1
10
15.12809
20
-5
30
8.8463997
70
192
0
VERTEX
8
4
62
1
10
15
20
-4.5
30
9
70
192
0
VERTEX
8
4
62
1
10
15.024713
20
-5
30
8.8015327
70
192
0
VERTEX
8
4
62
1
10
15
20
-4.5
30
9
70
192
0
VERTEX
8
4
62
1
10
14.913491
20
-5
30
8.8196777
70
192
0
VERTEX
8
4
62
1
10
15
20
-4.5
30
9
70
192
0
VERTEX
8
4
62
1
10
14.829734
20
-5
30
8.8950737
70
192
0
VERTEX
8
4
62
1
10
15
20
-4.5
30
9
70
192
0
VERTEX
8
4
62
1
10
0
20
0
30
0
70
128
71
1
72
3
73
4
74
0
0
VERTEX
8
4
62
1
10
0
20
0
30
0
70
128
71
3
72
5
73
6
74
0
0
VERTEX
8
4
62
1
10
0
20
0
30
0
70
128
71
5
72
7
73
8
74
0
0
VERTEX
8
4
62
1
10
0
20
0
30
0
70
128
71
7
72
9
73
10
74
0
0
VERTEX
8
4
62
1
10
0
20
0
30
0
70
128
71
9
72
11
73
12
74
0
0
VERTEX
8
4
62
1
10
0
20
0
30
0
70
128
71
11
72
13
73
14
74
0
0
VERTEX
8
4
62
1
10
0
20
0
30
0
70
128
71
13
72
15
73
16
74
0
0
VERTEX
8
4
62
1
10
0
20
0
30
0
70
128
71
15
72
17
73
18
74
0
0
VERTEX
8
4
62
1
10
0
20
0
30
0
70
128
71
17
72
19
73
20
74
0
0
VERTEX
8
4
62
1
10
0
20
0
30
0
70
128
71
19
72
21
73
22
74
0
0
VERTEX
8
4
62
1
10
0
20
0
30
0
70
128
71
21
72
23
73
24
74
0
0
VERTEX
8
4
62
1
10
0
20
0
30
0
70
128
71
1
72
4
73
2
74
0
0
VERTEX
8
4
62
1
10
0
20
0
30
0
70
128
71
3
72
6
73
4
74
0
0
VERTEX
8
4
62
1
10
0
20
0
30
0
70
128
71
5
72
8
73
6
74
0
0
VERTEX
8
4
62
1
10
0
20
0
30
0
70
128
71
7
72
10
73
8
74
0
0
VERTEX
8
4
62
1
10
0
20
0
30
0
70
128
71
9
72
12
73
10
74
0
0
VERTEX
8
4
62
1
10
0
20
0
30
0
70
128
71
11
72
14
73
12
74
0
0
VERTEX
8
4
62
1
10
0
20
0
30
0
70
128
71
13
72
16
73
14
74
0
0
VERTEX
8
4
62
1
10
0
20
0
30
0
70
128
71
15
72
18
73
16
74
0
0
VERTEX
8
4
62
1
10
0
20
0
30
0
70
128
71
17
72
20
73
18
74
0
0
VERTEX
8
4
62
1
10
0
20
0
30
0
70
128
71
19
72
22
73
20
74
0
0
VERTEX
8
4
62
1
10
0
20
0
30
0
70
128
71
21
72
24
73
22
74
0
0
SEQEND
8
4
0
TEXT
8
4
62
1
10
15
20
-6
30
9
210
0
220
0
230
1
40
1
51
0
50
0
39
0
72
0
73
0
1
Ch. 14; U2
0
POLYLINE
8
5
62
2
66
1
10
0
20
0
30
0
70
64
0
VERTEX
8
5
62
2
10
-15.0592
20
0
30
8.919406
70
192
0
VERTEX
8
5
62
2
10
-15.0592
20
1
30
8.919406
70
192
0
VERTEX
8
5
62
2
10
-15.093374
20
0
30
8.9642058
70
192
0
VERTEX
8
5
62
2
10
-15.093374
20
1
30
8.9642058
70
192
0
VERTEX
8
5
62
2
10
-15.097903
20
0
30
9.02037
70
192
0
VERTEX
8
5
62
2
10
-15.097903
20
1
30
9.02037
70
192
0
VERTEX
8
5
62
2
10
-15.071349
20
0
30
9.0700669
70
192
0
VERTEX
8
5
62
2
10
-15.071349
20
1
30
9.0700669
70
192
0
VERTEX
8
5
62
2
10
-15.022141
20
0
30
9.097518
70
192
0
VERTEX
8
5
62
2
10
-15.022141
20
1
30
9.097518
70
192
0
VERTEX
8
5
62
2
10
-14.965904
20
0
30
9.0940079
70
192
0
VERTEX
8
5
62
2
10
-14.965904
20
1
30
9.0940079
70
192
0
VERTEX
8
5
62
2
10
-14.920492
20
0
30
9.0606509
70
192
0
VERTEX
8
5
62
2
10
-14.920492
20
1
30
9.0606509
70
192
0
VERTEX
8
5
62
2
10
-14.900324
20
0
30
9.0080377
70
192
0
VERTEX
8
5
62
2
10
-14.900324
20
1
30
9.0080377
70
192
0
VERTEX
8
5
62
2
10
-14.911801
20
0
30
8.9528725
70
192
0
VERTEX
8
5
62
2
10
-14.911801
20
1
30
8.9528725
70
192
0
VERTEX
8
5
62
2
10
-14.951282
20
0
30
8.9126701
70
192
0
VERTEX
8
5
62
2
10
-14.951282
20
1
30
8.9126701
70
192
0
VERTEX
8
5
62
2
10
-15.00623
20
0
30
8.9001942
70
192
0
VERTEX
8
5
62
2
10
-15.00623
20
1
30
8.9001942
70
192
0
VERTEX
8
5
62
2
10
-15.0592
20
0
30
8.919406
70
192
0
VERTEX
8
5
62
2
10
-15.0592
20
1
30
8.919406
70
192
0
VERTEX
8
5
62
2
10
0
20
0
30
0
70
128
71
1
72
3
73
4
74
0
0
VERTEX
8
5
62
2
10
0
20
0
30
0
70
128
71
3
72
5
73
6
74
0
0
VERTEX
8
5
62
2
10
0
20
0
30
0
70
128
71
5
72
7
73
8
74
0
0
VERTEX
8
5
62
2
10
0
20
0
30
0
70
128
71
7
72
9
73
10
74
0
0
VERTEX
8
5
62
2
10
0
20
0
30
0
70
128
71
9
72
11
73
12
74
0
0
VERTEX
8
5
62
2
10
0
20
0
30
0
70
128
71
11
72
13
73
14
74
0
0
VERTEX
8
5
62
2
10
0
20
0
30
0
70
128
71
13
72
15
73
16
74
0
0
VERTEX
8
5
62
2
10
0
20
0
30
0
70
128
71
15
72
17
73
18
74
0
0
VERTEX
8
5
62
2
10
0
20
0
30
0
70
128
71
17
72
19
73
20
74
0
0
VERTEX
8
5
62
2
10
0
20
0
30
0
70
128
71
19
72
21
73
22
74
0
0
VERTEX
8
5
62
2
10
0
20
0
30
0
70
128
71
21
72
23
73
24
74
0
0
VERTEX
8
5
62
2
10
0
20
0
30
0
70
128
71
1
72
4
73
2
74
0
0
VERTEX
8
5
62
2
10
0
20
0
30
0
70
128
71
3
72
6
73
4
74
0
0
VERTEX
8
5
62
2
10
0
20
0
30
0
70
128
71
5
72
8
73
6
74
0
0
VERTEX
8
5
62
2
10
0
20
0
30
0
70
128
71
7
72
10
73
8
74
0
0
VERTEX
8
5
62
2
10
0
20
0
30
0
70
128
71
9
72
12
73
10
74
0
0
VERTEX
8
5
62
2
10
0
20
0
30
0
70
128
71
11
72
14
73
12
74
0
0
VERTEX
8
5
62
2
10
0
20
0
30
0
70
128
71
13
72
16
73
14
74
0
0
VERTEX
8
5
62
2
10
0
20
0
30
0
70
128
71
15
72
18
73
16
74
0
0
VERTEX
8
5
62
2
10
0
20
0
30
0
70
128
71
17
72
20
73
18
74
0
0
VERTEX
8
5
62
2
10
0
20
0
30
0
70
128
71
19
72
22
73
20
74
0
0
VERTEX
8
5
62
2
10
0
20
0
30
0
70
128
71
21
72
24
73
22
74
0
0
SEQEND
8
5
0
POLYLINE
8
5
62
2
66
1
10
0
20
0
30
0
70
64
0
VERTEX
8
5
62
2
10
-15.143473
20
1
30
8.8606605
70
192
0
VERTEX
8
5
62
2
10
-15
20
1.5
30
9
70
192
0
VERTEX
8
5
62
2
10
-15.19603
20
1
30
8.9603475
70
192
0
VERTEX
8
5
62
2
10
-15
20
1.5
30
9
70
192
0
VERTEX
8
5
62
2
10
-15.186349
20
1
30
9.0726239
70
192
0
VERTEX
8
5
62
2
10
-15
20
1.5
30
9
70
192
0
VERTEX
8
5
62
2
10
-15.117503
20
1
30
9.1618427
70
192
0
VERTEX
8
5
62
2
10
-15
20
1.5
30
9
70
192
0
VERTEX
8
5
62
2
10
-15.011351
20
1
30
9.1996776
70
192
0
VERTEX
8
5
62
2
10
-15
20
1.5
30
9
70
192
0
VERTEX
8
5
62
2
10
-14.901595
20
1
30
9.1741163
70
192
0
VERTEX
8
5
62
2
10
-15
20
1.5
30
9
70
192
0
VERTEX
8
5
62
2
10
-14.823082
20
1
30
9.0932743
70
192
0
VERTEX
8
5
62
2
10
-15
20
1.5
30
9
70
192
0
VERTEX
8
5
62
2
10
-14.800739
20
1
30
8.9828183
70
192
0
VERTEX
8
5
62
2
10
-15
20
1.5
30
9
70
192
0
VERTEX
8
5
62
2
10
-14.84166
20
1
30
8.8778174
70
192
0
VERTEX
8
5
62
2
10
-15
20
1.5
30
9
70
192
0
VERTEX
8
5
62
2
10
-14.932853
20
1
30
8.8116086
70
192
0
VERTEX
8
5
62
2
10
-15
20
1.5
30
9
70
192
0
VERTEX
8
5
62
2
10
-15.045365
20
1
30
8.8052128
70
192
0
VERTEX
8
5
62
2
10
-15
20
1.5
30
9
70
192
0
VERTEX
8
5
62
2
10
-15.143473
20
1
30
8.8606605
70
192
0
VERTEX
8
5
62
2
10
-15
20
1.5
30
9
70
192
0
VERTEX
8
5
62
2
10
0
20
0
30
0
70
128
71
1
72
3
73
4
74
0
0
VERTEX
8
5
62
2
10
0
20
0
30
0
70
128
71
3
72
5
73
6
74
0
0
VERTEX
8
5
62
2
10
0
20
0
30
0
70
128
71
5
72
7
73
8
74
0
0
VERTEX
8
5
62
2
10
0
20
0
30
0
70
128
71
7
72
9
73
10
74
0
0
VERTEX
8
5
62
2
10
0
20
0
30
0
70
128
71
9
72
11
73
12
74
0
0
VERTEX
8
5
62
2
10
0
20
0
30
0
70
128
71
11
72
13
73
14
74
0
0
VERTEX
8
5
62
2
10
0
20
0
30
0
70
128
71
13
72
15
73
16
74
0
0
VERTEX
8
5
62
2
10
0
20
0
30
0
70
128
71
15
72
17
73
18
74
0
0
VERTEX
8
5
62
2
10
0
20
0
30
0
70
128
71
17
72
19
73
20
74
0
0
VERTEX
8
5
62
2
10
0
20
0
30
0
70
128
71
19
72
21
73
22
74
0
0
VERTEX
8
5
62
2
10
0
20
0
30
0
70
128
71
21
72
23
73
24
74
0
0
VERTEX
8
5
62
2
10
0
20
0
30
0
70
128
71
1
72
4
73
2
74
0
0
VERTEX
8
5
62
2
10
0
20
0
30
0
70
128
71
3
72
6
73
4
74
0
0
VERTEX
8
5
62
2
10
0
20
0
30
0
70
128
71
5
72
8
73
6
74
0
0
VERTEX
8
5
62
2
10
0
20
0
30
0
70
128
71
7
72
10
73
8
74
0
0
VERTEX
8
5
62
2
10
0
20
0
30
0
70
128
71
9
72
12
73
10
74
0
0
VERTEX
8
5
62
2
10
0
20
0
30
0
70
128
71
11
72
14
73
12
74
0
0
VERTEX
8
5
62
2
10
0
20
0
30
0
70
128
71
13
72
16
73
14
74
0
0
VERTEX
8
5
62
2
10
0
20
0
30
0
70
128
71
15
72
18
73
16
74
0
0
VERTEX
8
5
62
2
10
0
20
0
30
0
70
128
71
17
72
20
73
18
74
0
0
VERTEX
8
5
62
2
10
0
20
0
30
0
70
128
71
19
72
22
73
20
74
0
0
VERTEX
8
5
62
2
10
0
20
0
30
0
70
128
71
21
72
24
73
22
74
0
0
SEQEND
8
5
0
TEXT
8
5
62
2
10
-15
20
0
30
9
210
0
220
0
230
1
40
1
51
0
50
0
39
0
72
0
73
0
1
Ch. 2; U2
0
POLYLINE
8
5
62
2
66
1
10
0
20
0
30
0
70
64
0
VERTEX
8
5
62
2
10
8.9572952
20
0
30
8.9095771
70
192
0
VERTEX
8
5
62
2
10
8.9572952
20
1
30
8.9095771
70
192
0
VERTEX
8
5
62
2
10
8.9151881
20
0
30
8.9470194
70
192
0
VERTEX
8
5
62
2
10
8.9151881
20
1
30
8.9470194
70
192
0
VERTEX
8
5
62
2
10
8.9000082
20
0
30
9.0012826
70
192
0
VERTEX
8
5
62
2
10
8.9000082
20
1
30
9.0012826
70
192
0
VERTEX
8
5
62
2
10
8.916575
20
0
30
9.0551386
70
192
0
VERTEX
8
5
62
2
10
8.916575
20
1
30
9.0551386
70
192
0
VERTEX
8
5
62
2
10
8.9596286
20
0
30
9.0914885
70
192
0
VERTEX
8
5
62
2
10
8.9596286
20
1
30
9.0914885
70
192
0
VERTEX
8
5
62
2
10
9.0154999
20
0
30
9.0987915
70
192
0
VERTEX
8
5
62
2
10
9.0154999
20
1
30
9.0987915
70
192
0
VERTEX
8
5
62
2
10
9.06645
20
0
30
9.0747288
70
192
0
VERTEX
8
5
62
2
10
9.06645
20
1
30
9.0747288
70
192
0
VERTEX
8
5
62
2
10
9.0963028
20
0
30
9.0269403
70
192
0
VERTEX
8
5
62
2
10
9.0963028
20
1
30
9.0269403
70
192
0
VERTEX
8
5
62
2
10
9.0955801
20
0
30
8.9705984
70
192
0
VERTEX
8
5
62
2
10
9.0955801
20
1
30
8.9705984
70
192
0
VERTEX
8
5
62
2
10
9.0645114
20
0
30
8.9235913
70
192
0
VERTEX
8
5
62
2
10
9.0645114
20
1
30
8.9235913
70
192
0
VERTEX
8
5
62
2
10
9.0129608
20
0
30
8.9008435
70
192
0
VERTEX
8
5
62
2
10
9.0129608
20
1
30
8.9008435
70
192
0
VERTEX
8
5
62
2
10
8.9572952
20
0
30
8.9095771
70
192
0
VERTEX
8
5
62
2
10
8.9572952
20
1
30
8.9095771
70
192
0
VERTEX
8
5
62
2
10
0
20
0
30
0
70
128
71
1
72
3
73
4
74
0
0
VERTEX
8
5
62
2
10
0
20
0
30
0
70
128
71
3
72
5
73
6
74
0
0
VERTEX
8
5
62
2
10
0
20
0
30
0
70
128
71
5
72
7
73
8
74
0
0
VERTEX
8
5
62
2
10
0
20
0
30
0
70
128
71
7
72
9
73
10
74
0
0
VERTEX
8
5
62
2
10
0
20
0
30
0
70
128
71
9
72
11
73
12
74
0
0
VERTEX
8
5
62
2
10
0
20
0
30
0
70
128
71
11
72
13
73
14
74
0
0
VERTEX
8
5
62
2
10
0
20
0
30
0
70
128
71
13
72
15
73
16
74
0
0
VERTEX
8
5
62
2
10
0
20
0
30
0
70
128
71
15
72
17
73
18
74
0
0
VERTEX
8
5
62
2
10
0
20
0
30
0
70
128
71
17
72
19
73
20
74
0
0
VERTEX
8
5
62
2
10
0
20
0
30
0
70
128
71
19
72
21
73
22
74
0
0
VERTEX
8
5
62
2
10
0
20
0
30
0
70
128
71
21
72
23
73
24
74
0
0
VERTEX
8
5
62
2
10
0
20
0
30
0
70
128
71
1
72
4
73
2
74
0
0
VERTEX
8
5
62
2
10
0
20
0
30
0
70
128
71
3
72
6
73
4
74
0
0
VERTEX
8
5
62
2
10
0
20
0
30
0
70
128
71
5
72
8
73
6
74
0
0
VERTEX
8
5
62
2
10
0
20
0
30
0
70
128
71
7
72
10
73
8
74
0
0
VERTEX
8
5
62
2
10
0
20
0
30
0
70
128
71
9
72
12
73
10
74
0
0
VERTEX
8
5
62
2
10
0
20
0
30
0
70
128
71
11
72
14
73
12
74
0
0
VERTEX
8
5
62
2
10
0
20
0
30
0
70
128
71
13
72
16
73
14
74
0
0
VERTEX
8
5
62
2
10
0
20
0
30
0
70
128
71
15
72
18
73
16
74
0
0
VERTEX
8
5
62
2
10
0
20
0
30
0
70
128
71
17
72
20
73
18
74
0
0
VERTEX
8
5
62
2
10
0
20
0
30
0
70
128
71
19
72
22
73
20
74
0
0
VERTEX
8
5
62
2
10
0
20
0
30
0
70
128
71
21
72
24
73
22
74
0
0
SEQEND
8
5
0
POLYLINE
8
5
62
2
66
1
10
0
20
0
30
0
70
64
0
VERTEX
8
5
62
2
10
8.979197
20
1
30
8.8010849
70
192
0
VERTEX
8
5
62
2
10
9
20
1.5
30
9
70
192
0
VERTEX
8
5
62
2
10
8.8749578
20
1
30
8.8439089
70
192
0
VERTEX
8
5
62
2
10
9
20
1.5
30
9
70
192
0
VERTEX
8
5
62
2
10
8.8104185
20
1
30
8.9362907
70
192
0
VERTEX
8
5
62
2
10
9
20
1.5
30
9
70
192
0
VERTEX
8
5
62
2
10
8.8060701
20
1
30
9.0488998
70
192
0
VERTEX
8
5
62
2
10
9
20
1.5
30
9
70
192
0
VERTEX
8
5
62
2
10
8.863293
20
1
30
9.1459836
70
192
0
VERTEX
8
5
62
2
10
9
20
1.5
30
9
70
192
0
VERTEX
8
5
62
2
10
8.9639195
20
1
30
9.1967186
70
192
0
VERTEX
8
5
62
2
10
9
20
1.5
30
9
70
192
0
VERTEX
8
5
62
2
10
9.0760012
20
1
30
9.1849968
70
192
0
VERTEX
8
5
62
2
10
9
20
1.5
30
9
70
192
0
VERTEX
8
5
62
2
10
9.1639531
20
1
30
9.1145399
70
192
0
VERTEX
8
5
62
2
10
9
20
1.5
30
9
70
192
0
VERTEX
8
5
62
2
10
9.1998511
20
1
30
9.0077173
70
192
0
VERTEX
8
5
62
2
10
9
20
1.5
30
9
70
192
0
VERTEX
8
5
62
2
10
9.1722977
20
1
30
8.8984446
70
192
0
VERTEX
8
5
62
2
10
9
20
1.5
30
9
70
192
0
VERTEX
8
5
62
2
10
9.0900411
20
1
30
8.821415
70
192
0
VERTEX
8
5
62
2
10
9
20
1.5
30
9
70
192
0
VERTEX
8
5
62
2
10
8.979197
20
1
30
8.8010849
70
192
0
VERTEX
8
5
62
2
10
9
20
1.5
30
9
70
192
0
VERTEX
8
5
62
2
10
0
20
0
30
0
70
128
71
1
72
3
73
4
74
0
0
VERTEX
8
5
62
2
10
0
20
0
30
0
70
128
71
3
72
5
73
6
74
0
0
VERTEX
8
5
62
2
10
0
20
0
30
0
70
128
71
5
72
7
73
8
74
0
0
VERTEX
8
5
62
2
10
0
20
0
30
0
70
128
71
7
72
9
73
10
74
0
0
VERTEX
8
5
62
2
10
0
20
0
30
0
70
128
71
9
72
11
73
12
74
0
0
VERTEX
8
5
62
2
10
0
20
0
30
0
70
128
71
11
72
13
73
14
74
0
0
VERTEX
8
5
62
2
10
0
20
0
30
0
70
128
71
13
72
15
73
16
74
0
0
VERTEX
8
5
62
2
10
0
20
0
30
0
70
128
71
15
72
17
73
18
74
0
0
VERTEX
8
5
62
2
10
0
20
0
30
0
70
128
71
17
72
19
73
20
74
0
0
VERTEX
8
5
62
2
10
0
20
0
30
0
70
128
71
19
72
21
73
22
74
0
0
VERTEX
8
5
62
2
10
0
20
0
30
0
70
128
71
21
72
23
73
24
74
0
0
VERTEX
8
5
62
2
10
0
20
0
30
0
70
128
71
1
72
4
73
2
74
0
0
VERTEX
8
5
62
2
10
0
20
0
30
0
70
128
71
3
72
6
73
4
74
0
0
VERTEX
8
5
62
2
10
0
20
0
30
0
70
128
71
5
72
8
73
6
74
0
0
VERTEX
8
5
62
2
10
0
20
0
30
0
70
128
71
7
72
10
73
8
74
0
0
VERTEX
8
5
62
2
10
0
20
0
30
0
70
128
71
9
72
12
73
10
74
0
0
VERTEX
8
5
62
2
10
0
20
0
30
0
70
128
71
11
72
14
73
12
74
0
0
VERTEX
8
5
62
2
10
0
20
0
30
0
70
128
71
13
72
16
73
14
74
0
0
VERTEX
8
5
62
2
10
0
20
0
30
0
70
128
71
15
72
18
73
16
74
0
0
VERTEX
8
5
62
2
10
0
20
0
30
0
70
128
71
17
72
20
73
18
74
0
0
VERTEX
8
5
62
2
10
0
20
0
30
0
70
128
71
19
72
22
73
20
74
0
0
VERTEX
8
5
62
2
10
0
20
0
30
0
70
128
71
21
72
24
73
22
74
0
0
SEQEND
8
5
0
TEXT
8
5
62
2
10
9
20
0
30
9
210
0
220
0
230
1
40
1
51
0
50
0
39
0
72
0
73
0
1
Ch. 13; U2
0
ENDSEC
0
EOF
